<svg viewBox="0 0 252 138.71" width="252pt" height="138.71pt" xmlns="http://www.w3.org/2000/svg" xmlns:xlink="http://www.w3.org/1999/xlink" xmlns:h5="http://www.w3.org/1999/xhtml"><g transform="matrix(1 0 0 -1 0 39.1)"><use xlink:href="#g958778A9A7416D28C00BCB9F30D40337" x="0" y="0" fill="#1c1b1f" fill-rule="nonzero"/><use xlink:href="#g11BED93FD6E9A21010D3472FC62C3C76" x="7.97" y="0" fill="#1c1b1f" fill-rule="nonzero"/><use xlink:href="#g74D9CAE07DB564DFFA18589A15CE9FEA" x="15.79" y="0" fill="#1c1b1f" fill-rule="nonzero"/><use xlink:href="#g679A0797A1D914641723DCD213341CA4" x="23.73" y="0" fill="#1c1b1f" fill-rule="nonzero"/><use xlink:href="#g74D9CAE07DB564DFFA18589A15CE9FEA" x="28.82" y="0" fill="#1c1b1f" fill-rule="nonzero"/><use xlink:href="#g8925E053502C3597DBC7318AF79C88A8" x="36.76" y="0" fill="#1c1b1f" fill-rule="nonzero"/></g><g transform="translate(0 62.7)"><path fill="#ffffff" fill-rule="nonzero" d="M 0 0m 0 5.7c 0 -3.15 2.55 -5.7 5.7 -5.7h 240.6c 3.15 0 5.7 2.55 5.7 5.7v 59.61c 0 3.15 -2.55 5.7 -5.7 5.7h -240.6c -3.15 0 -5.7 -2.55 -5.7 -5.7Z "/><path fill="none" stroke="#d6d3da" stroke-width="0.6" stroke-linecap="butt" stroke-linejoin="miter" stroke-miterlimit="4" d="M 0 0m 5.7 0h 240.6c 3.15 0 5.7 2.55 5.7 5.7v 59.61c 0 3.15 -2.55 5.7 -5.7 5.7h -240.6c -3.15 0 -5.7 -2.55 -5.7 -5.7v -59.61c 0 -3.15 2.55 -5.7 5.7 -5.7"/><g transform="translate(9 8)"><path fill="#1e6b3a" fill-rule="nonzero" d="M 0 0m 0 1.1c 0 -0.61 0.49 -1.1 1.1 -1.1h 5.8c 0.61 0 1.1 0.49 1.1 1.1v 5.8c 0 0.61 -0.49 1.1 -1.1 1.1h -5.8c -0.61 0 -1.1 -0.49 -1.1 -1.1Z "/><path fill="none" stroke="#1e6b3a" stroke-width="0.8" stroke-linecap="butt" stroke-linejoin="miter" stroke-miterlimit="4" d="M 0 0m 1.1 0h 5.8c 0.61 0 1.1 0.49 1.1 1.1v 5.8c 0 0.61 -0.49 1.1 -1.1 1.1h -5.8c -0.61 0 -1.1 -0.49 -1.1 -1.1v -5.8c 0 -0.61 0.49 -1.1 1.1 -1.1"/><path fill="none" stroke="#ffffff" stroke-width="1.3" stroke-linecap="round" stroke-linejoin="round" stroke-miterlimit="4" d="M 0 0m 1.8 4.2l 1.7 1.8l 2.9 -3.8"/></g><g transform="matrix(1 0 0 -1 24 14.3)"><use xlink:href="#g83CF86FA252D06CAAAC5F8929496908D" x="0" y="0" fill="#1c1b1f" fill-rule="nonzero"/><use xlink:href="#gBDB36A810B8D5B70E991FADD641A123A" x="5.12" y="0" fill="#1c1b1f" fill-rule="nonzero"/><use xlink:href="#gCE353107D060B65EF7D75658D6833684" x="10.33" y="0" fill="#1c1b1f" fill-rule="nonzero"/><use xlink:href="#gA5059AE7B37FE30D820F5234E89DF786" x="15.72" y="0" fill="#1c1b1f" fill-rule="nonzero"/><use xlink:href="#gCE353107D060B65EF7D75658D6833684" x="18.89" y="0" fill="#1c1b1f" fill-rule="nonzero"/><use xlink:href="#g9FE6D929D14C7F837007228AED654940" x="24.28" y="0" fill="#1c1b1f" fill-rule="nonzero"/><use xlink:href="#gCE353107D060B65EF7D75658D6833684" x="30.67" y="0" fill="#1c1b1f" fill-rule="nonzero"/><use xlink:href="#g44A84F81F9FF6D223D94C55A75C258A9" x="36.07" y="0" fill="#1c1b1f" fill-rule="nonzero"/><use xlink:href="#gA5059AE7B37FE30D820F5234E89DF786" x="43.74" y="0" fill="#1c1b1f" fill-rule="nonzero"/><use xlink:href="#gBDB36A810B8D5B70E991FADD641A123A" x="46.91" y="0" fill="#1c1b1f" fill-rule="nonzero"/><use xlink:href="#g61F65574F238E6A58387FA318FC26C84" x="52.11" y="0" fill="#1c1b1f" fill-rule="nonzero"/><use xlink:href="#g5CD7493F2595109B32F9298B9112AFB5" x="59.4" y="0" fill="#1c1b1f" fill-rule="nonzero"/><use xlink:href="#g2A87F2FBA68D3387DFBB803D0048E289" x="67.32" y="0" fill="#1c1b1f" fill-rule="nonzero"/><use xlink:href="#g7FA08378926DA3B6D38F7F71BD81EE0C" x="72.01" y="0" fill="#1c1b1f" fill-rule="nonzero"/><use xlink:href="#g6395D47FE2D18F0F87BE6CCD0FE6046B" x="79.89" y="0" fill="#1c1b1f" fill-rule="nonzero"/><use xlink:href="#g9FE6D929D14C7F837007228AED654940" x="85.1" y="0" fill="#1c1b1f" fill-rule="nonzero"/><use xlink:href="#g61F65574F238E6A58387FA318FC26C84" x="89.02" y="0" fill="#1c1b1f" fill-rule="nonzero"/><use xlink:href="#g2A87F2FBA68D3387DFBB803D0048E289" x="96.31" y="0" fill="#1c1b1f" fill-rule="nonzero"/><use xlink:href="#g2215A5A26844134E1E19B1BAD089E4C1" x="103.46" y="0" fill="#1c1b1f" fill-rule="nonzero"/><use xlink:href="#g2A87F2FBA68D3387DFBB803D0048E289" x="107.75" y="0" fill="#1c1b1f" fill-rule="nonzero"/><use xlink:href="#g5CD7493F2595109B32F9298B9112AFB5" x="112.44" y="0" fill="#1c1b1f" fill-rule="nonzero"/><use xlink:href="#g61F65574F238E6A58387FA318FC26C84" x="120.36" y="0" fill="#1c1b1f" fill-rule="nonzero"/><use xlink:href="#g8B67C79FA4388AC5F322928903AD0F4C" x="125.18" y="0" fill="#1c1b1f" fill-rule="nonzero"/><use xlink:href="#g2A87F2FBA68D3387DFBB803D0048E289" x="128.42" y="0" fill="#1c1b1f" fill-rule="nonzero"/><use xlink:href="#g5CD7493F2595109B32F9298B9112AFB5" x="135.58" y="0" fill="#1c1b1f" fill-rule="nonzero"/><use xlink:href="#g2A87F2FBA68D3387DFBB803D0048E289" x="143.49" y="0" fill="#1c1b1f" fill-rule="nonzero"/><use xlink:href="#g8B67C79FA4388AC5F322928903AD0F4C" x="148.18" y="0" fill="#1c1b1f" fill-rule="nonzero"/><use xlink:href="#gB9B387D9A667850372B67788EB0987CA" x="151.42" y="0" fill="#1c1b1f" fill-rule="nonzero"/><use xlink:href="#g8982858DB563BD4BCC03C20CE68634F6" x="156.01" y="0" fill="#1c1b1f" fill-rule="nonzero"/><use xlink:href="#g9FE6D929D14C7F837007228AED654940" x="160.51" y="0" fill="#1c1b1f" fill-rule="nonzero"/><use xlink:href="#g61F65574F238E6A58387FA318FC26C84" x="164.43" y="0" fill="#1c1b1f" fill-rule="nonzero"/><use xlink:href="#gEACDCE4EE71302BF7DB295F02F9BC62C" x="169.25" y="0" fill="#1c1b1f" fill-rule="nonzero"/><use xlink:href="#g61F65574F238E6A58387FA318FC26C84" x="171.51" y="0" fill="#1c1b1f" fill-rule="nonzero"/><use xlink:href="#g2215A5A26844134E1E19B1BAD089E4C1" x="176.33" y="0" fill="#1c1b1f" fill-rule="nonzero"/><use xlink:href="#gA5059AE7B37FE30D820F5234E89DF786" x="180.61" y="0" fill="#1c1b1f" fill-rule="nonzero"/><use xlink:href="#g61F65574F238E6A58387FA318FC26C84" x="183.77" y="0" fill="#1c1b1f" fill-rule="nonzero"/><use xlink:href="#gE2D707CAEDBFAB7A4E3820A5A3F5A9F7" x="188.6" y="0" fill="#1c1b1f" fill-rule="nonzero"/><use xlink:href="#gCE353107D060B65EF7D75658D6833684" x="196.48" y="0" fill="#1c1b1f" fill-rule="nonzero"/><use xlink:href="#g44A84F81F9FF6D223D94C55A75C258A9" x="201.88" y="0" fill="#1c1b1f" fill-rule="nonzero"/><use xlink:href="#g61F65574F238E6A58387FA318FC26C84" x="207.09" y="0" fill="#1c1b1f" fill-rule="nonzero"/><use xlink:href="#g9FE6D929D14C7F837007228AED654940" x="211.91" y="0" fill="#1c1b1f" fill-rule="nonzero"/></g><g transform="matrix(1 0 0 -1 24 26.45)"><use xlink:href="#gA5059AE7B37FE30D820F5234E89DF786" x="0" y="0" fill="#1c1b1f" fill-rule="nonzero"/><use xlink:href="#g6395D47FE2D18F0F87BE6CCD0FE6046B" x="3.16" y="0" fill="#1c1b1f" fill-rule="nonzero"/><use xlink:href="#g8B67C79FA4388AC5F322928903AD0F4C" x="8.38" y="0" fill="#1c1b1f" fill-rule="nonzero"/><use xlink:href="#g44A84F81F9FF6D223D94C55A75C258A9" x="11.61" y="0" fill="#1c1b1f" fill-rule="nonzero"/><use xlink:href="#gA5059AE7B37FE30D820F5234E89DF786" x="19.29" y="0" fill="#1c1b1f" fill-rule="nonzero"/><use xlink:href="#gBDB36A810B8D5B70E991FADD641A123A" x="22.46" y="0" fill="#1c1b1f" fill-rule="nonzero"/><use xlink:href="#g61F65574F238E6A58387FA318FC26C84" x="27.66" y="0" fill="#1c1b1f" fill-rule="nonzero"/><use xlink:href="#g9FE6D929D14C7F837007228AED654940" x="34.95" y="0" fill="#1c1b1f" fill-rule="nonzero"/><use xlink:href="#g61F65574F238E6A58387FA318FC26C84" x="38.87" y="0" fill="#1c1b1f" fill-rule="nonzero"/><use xlink:href="#gEACDCE4EE71302BF7DB295F02F9BC62C" x="43.69" y="0" fill="#1c1b1f" fill-rule="nonzero"/><use xlink:href="#g61F65574F238E6A58387FA318FC26C84" x="45.94" y="0" fill="#1c1b1f" fill-rule="nonzero"/><use xlink:href="#g2215A5A26844134E1E19B1BAD089E4C1" x="50.77" y="0" fill="#1c1b1f" fill-rule="nonzero"/><use xlink:href="#gA5059AE7B37FE30D820F5234E89DF786" x="55.05" y="0" fill="#1c1b1f" fill-rule="nonzero"/><use xlink:href="#g479F48A9EAAE032EE79AFA4FE7A49B8C" x="58.21" y="0" fill="#1c1b1f" fill-rule="nonzero"/><use xlink:href="#gCE353107D060B65EF7D75658D6833684" x="60.5" y="0" fill="#1c1b1f" fill-rule="nonzero"/><use xlink:href="#g44A84F81F9FF6D223D94C55A75C258A9" x="65.9" y="0" fill="#1c1b1f" fill-rule="nonzero"/><use xlink:href="#g2215A5A26844134E1E19B1BAD089E4C1" x="73.57" y="0" fill="#1c1b1f" fill-rule="nonzero"/><use xlink:href="#gCE353107D060B65EF7D75658D6833684" x="77.86" y="0" fill="#1c1b1f" fill-rule="nonzero"/><use xlink:href="#gEACDCE4EE71302BF7DB295F02F9BC62C" x="83.25" y="0" fill="#1c1b1f" fill-rule="nonzero"/><use xlink:href="#gCE353107D060B65EF7D75658D6833684" x="85.51" y="0" fill="#1c1b1f" fill-rule="nonzero"/><use xlink:href="#g8B67C79FA4388AC5F322928903AD0F4C" x="90.91" y="0" fill="#1c1b1f" fill-rule="nonzero"/></g><g transform="translate(9 44.55)"><path fill="#1e6b3a" fill-rule="nonzero" d="M 0 0m 0 1.1c 0 -0.61 0.49 -1.1 1.1 -1.1h 5.8c 0.61 0 1.1 0.49 1.1 1.1v 5.8c 0 0.61 -0.49 1.1 -1.1 1.1h -5.8c -0.61 0 -1.1 -0.49 -1.1 -1.1Z "/><path fill="none" stroke="#1e6b3a" stroke-width="0.8" stroke-linecap="butt" stroke-linejoin="miter" stroke-miterlimit="4" d="M 0 0m 1.1 0h 5.8c 0.61 0 1.1 0.49 1.1 1.1v 5.8c 0 0.61 -0.49 1.1 -1.1 1.1h -5.8c -0.61 0 -1.1 -0.49 -1.1 -1.1v -5.8c 0 -0.61 0.49 -1.1 1.1 -1.1"/><path fill="none" stroke="#ffffff" stroke-width="1.3" stroke-linecap="round" stroke-linejoin="round" stroke-miterlimit="4" d="M 0 0m 1.8 4.2l 1.7 1.8l 2.9 -3.8"/></g><g transform="matrix(1 0 0 -1 24 50.86)"><use xlink:href="#g2CBFE1659E2A55B7F1E2B985E8A9D854" x="0" y="0" fill="#1c1b1f" fill-rule="nonzero"/><use xlink:href="#gBDB36A810B8D5B70E991FADD641A123A" x="4.8" y="0" fill="#1c1b1f" fill-rule="nonzero"/><use xlink:href="#g61F65574F238E6A58387FA318FC26C84" x="10.01" y="0" fill="#1c1b1f" fill-rule="nonzero"/><use xlink:href="#g7FA08378926DA3B6D38F7F71BD81EE0C" x="17.29" y="0" fill="#1c1b1f" fill-rule="nonzero"/><use xlink:href="#gBDB36A810B8D5B70E991FADD641A123A" x="22.71" y="0" fill="#1c1b1f" fill-rule="nonzero"/><use xlink:href="#gCE353107D060B65EF7D75658D6833684" x="27.91" y="0" fill="#1c1b1f" fill-rule="nonzero"/><use xlink:href="#gA5059AE7B37FE30D820F5234E89DF786" x="33.31" y="0" fill="#1c1b1f" fill-rule="nonzero"/><use xlink:href="#gCE353107D060B65EF7D75658D6833684" x="36.47" y="0" fill="#1c1b1f" fill-rule="nonzero"/><use xlink:href="#g7FA08378926DA3B6D38F7F71BD81EE0C" x="44.34" y="0" fill="#1c1b1f" fill-rule="nonzero"/><use xlink:href="#g2A87F2FBA68D3387DFBB803D0048E289" x="49.75" y="0" fill="#1c1b1f" fill-rule="nonzero"/><use xlink:href="#g44A84F81F9FF6D223D94C55A75C258A9" x="54.44" y="0" fill="#1c1b1f" fill-rule="nonzero"/><use xlink:href="#g61F65574F238E6A58387FA318FC26C84" x="59.66" y="0" fill="#1c1b1f" fill-rule="nonzero"/><use xlink:href="#gEACDCE4EE71302BF7DB295F02F9BC62C" x="64.48" y="0" fill="#1c1b1f" fill-rule="nonzero"/><use xlink:href="#g9FE6D929D14C7F837007228AED654940" x="69.2" y="0" fill="#1c1b1f" fill-rule="nonzero"/><use xlink:href="#gBDB36A810B8D5B70E991FADD641A123A" x="73.12" y="0" fill="#1c1b1f" fill-rule="nonzero"/><use xlink:href="#gCE353107D060B65EF7D75658D6833684" x="78.32" y="0" fill="#1c1b1f" fill-rule="nonzero"/><use xlink:href="#g1D687ACE0CBA9FD49486339A1772C4A5" x="83.72" y="0" fill="#1c1b1f" fill-rule="nonzero"/><use xlink:href="#g9FE6D929D14C7F837007228AED654940" x="90.39" y="0" fill="#1c1b1f" fill-rule="nonzero"/><use xlink:href="#gA5059AE7B37FE30D820F5234E89DF786" x="96.78" y="0" fill="#1c1b1f" fill-rule="nonzero"/><use xlink:href="#gBDB36A810B8D5B70E991FADD641A123A" x="99.94" y="0" fill="#1c1b1f" fill-rule="nonzero"/><use xlink:href="#g61F65574F238E6A58387FA318FC26C84" x="105.15" y="0" fill="#1c1b1f" fill-rule="nonzero"/><use xlink:href="#g7FA08378926DA3B6D38F7F71BD81EE0C" x="112.43" y="0" fill="#1c1b1f" fill-rule="nonzero"/><use xlink:href="#gBDB36A810B8D5B70E991FADD641A123A" x="117.85" y="0" fill="#1c1b1f" fill-rule="nonzero"/><use xlink:href="#gCE353107D060B65EF7D75658D6833684" x="123.06" y="0" fill="#1c1b1f" fill-rule="nonzero"/><use xlink:href="#gA5059AE7B37FE30D820F5234E89DF786" x="128.45" y="0" fill="#1c1b1f" fill-rule="nonzero"/><use xlink:href="#gCE353107D060B65EF7D75658D6833684" x="131.62" y="0" fill="#1c1b1f" fill-rule="nonzero"/><use xlink:href="#g7CB221C51D5EF65E8DC61ECD3C806826" x="139.48" y="0" fill="#1c1b1f" fill-rule="nonzero"/><use xlink:href="#g2A87F2FBA68D3387DFBB803D0048E289" x="142.4" y="0" fill="#1c1b1f" fill-rule="nonzero"/><use xlink:href="#g479F48A9EAAE032EE79AFA4FE7A49B8C" x="147.09" y="0" fill="#1c1b1f" fill-rule="nonzero"/><use xlink:href="#g44A84F81F9FF6D223D94C55A75C258A9" x="149.37" y="0" fill="#1c1b1f" fill-rule="nonzero"/><use xlink:href="#gA5059AE7B37FE30D820F5234E89DF786" x="154.59" y="0" fill="#1c1b1f" fill-rule="nonzero"/><use xlink:href="#gEACDCE4EE71302BF7DB295F02F9BC62C" x="157.75" y="0" fill="#1c1b1f" fill-rule="nonzero"/><use xlink:href="#gA1577E50CDB733A9F5E4D6537CDBE4EF" x="160" y="0" fill="#1c1b1f" fill-rule="nonzero"/><use xlink:href="#g79C11A32749F30EBDDE416333CE0CDB4" x="166.96" y="0" fill="#1c1b1f" fill-rule="nonzero"/><use xlink:href="#g61F65574F238E6A58387FA318FC26C84" x="172.37" y="0" fill="#1c1b1f" fill-rule="nonzero"/><use xlink:href="#gBDB36A810B8D5B70E991FADD641A123A" x="177.19" y="0" fill="#1c1b1f" fill-rule="nonzero"/><use xlink:href="#g479F48A9EAAE032EE79AFA4FE7A49B8C" x="182.4" y="0" fill="#1c1b1f" fill-rule="nonzero"/><use xlink:href="#g44A84F81F9FF6D223D94C55A75C258A9" x="184.68" y="0" fill="#1c1b1f" fill-rule="nonzero"/><use xlink:href="#gE2D707CAEDBFAB7A4E3820A5A3F5A9F7" x="189.9" y="0" fill="#1c1b1f" fill-rule="nonzero"/><use xlink:href="#gA0C995C8FD0AF032C4DA53E9E662FB9F" x="195.32" y="0" fill="#1c1b1f" fill-rule="nonzero"/><use xlink:href="#g1D687ACE0CBA9FD49486339A1772C4A5" x="199.81" y="0" fill="#1c1b1f" fill-rule="nonzero"/><use xlink:href="#g479F48A9EAAE032EE79AFA4FE7A49B8C" x="206.49" y="0" fill="#1c1b1f" fill-rule="nonzero"/><use xlink:href="#gA5059AE7B37FE30D820F5234E89DF786" x="208.77" y="0" fill="#1c1b1f" fill-rule="nonzero"/><use xlink:href="#gBDB36A810B8D5B70E991FADD641A123A" x="211.94" y="0" fill="#1c1b1f" fill-rule="nonzero"/></g><g transform="matrix(1 0 0 -1 24 63.01)"><use xlink:href="#g2A87F2FBA68D3387DFBB803D0048E289" x="0" y="0" fill="#1c1b1f" fill-rule="nonzero"/><use xlink:href="#g270B95BB954C9316392BEAE4CBC0B152" x="7.16" y="0" fill="#1c1b1f" fill-rule="nonzero"/><use xlink:href="#gCE353107D060B65EF7D75658D6833684" x="11.35" y="0" fill="#1c1b1f" fill-rule="nonzero"/><use xlink:href="#gCE353107D060B65EF7D75658D6833684" x="16.74" y="0" fill="#1c1b1f" fill-rule="nonzero"/><use xlink:href="#g5CD7493F2595109B32F9298B9112AFB5" x="22.14" y="0" fill="#1c1b1f" fill-rule="nonzero"/><use xlink:href="#g79C11A32749F30EBDDE416333CE0CDB4" x="32.52" y="0" fill="#1c1b1f" fill-rule="nonzero"/><use xlink:href="#g6395D47FE2D18F0F87BE6CCD0FE6046B" x="37.93" y="0" fill="#1c1b1f" fill-rule="nonzero"/><use xlink:href="#gA5059AE7B37FE30D820F5234E89DF786" x="43.15" y="0" fill="#1c1b1f" fill-rule="nonzero"/><use xlink:href="#gA5059AE7B37FE30D820F5234E89DF786" x="46.31" y="0" fill="#1c1b1f" fill-rule="nonzero"/><use xlink:href="#gCE353107D060B65EF7D75658D6833684" x="49.47" y="0" fill="#1c1b1f" fill-rule="nonzero"/><use xlink:href="#g44A84F81F9FF6D223D94C55A75C258A9" x="54.87" y="0" fill="#1c1b1f" fill-rule="nonzero"/><use xlink:href="#g2A87F2FBA68D3387DFBB803D0048E289" x="62.55" y="0" fill="#1c1b1f" fill-rule="nonzero"/><use xlink:href="#gA5059AE7B37FE30D820F5234E89DF786" x="67.24" y="0" fill="#1c1b1f" fill-rule="nonzero"/><use xlink:href="#gA5059AE7B37FE30D820F5234E89DF786" x="72.87" y="0" fill="#1c1b1f" fill-rule="nonzero"/><use xlink:href="#gBDB36A810B8D5B70E991FADD641A123A" x="76.03" y="0" fill="#1c1b1f" fill-rule="nonzero"/><use xlink:href="#g61F65574F238E6A58387FA318FC26C84" x="81.24" y="0" fill="#1c1b1f" fill-rule="nonzero"/><use xlink:href="#gA5059AE7B37FE30D820F5234E89DF786" x="88.53" y="0" fill="#1c1b1f" fill-rule="nonzero"/><use xlink:href="#gCE353107D060B65EF7D75658D6833684" x="91.69" y="0" fill="#1c1b1f" fill-rule="nonzero"/><use xlink:href="#g7FA08378926DA3B6D38F7F71BD81EE0C" x="97.09" y="0" fill="#1c1b1f" fill-rule="nonzero"/><use xlink:href="#g8B67C79FA4388AC5F322928903AD0F4C" x="104.97" y="0" fill="#1c1b1f" fill-rule="nonzero"/><use xlink:href="#g479F48A9EAAE032EE79AFA4FE7A49B8C" x="108.21" y="0" fill="#1c1b1f" fill-rule="nonzero"/><use xlink:href="#gD5D487A58DE002D90D2248A4B23210B5" x="110.49" y="0" fill="#1c1b1f" fill-rule="nonzero"/><use xlink:href="#gBDB36A810B8D5B70E991FADD641A123A" x="115.91" y="0" fill="#1c1b1f" fill-rule="nonzero"/><use xlink:href="#gA5059AE7B37FE30D820F5234E89DF786" x="121.12" y="0" fill="#1c1b1f" fill-rule="nonzero"/></g></g><defs><symbol id="g958778A9A7416D28C00BCB9F30D40337" overflow="visible"><path d="M 0 0m 3.09 2.98v -2.98h -2.05v 9.1h 3.21q 1.72 0 2.58 -0.74q 0.86 -0.74 0.86 -2.23q 0 -1.42 -0.99 -2.28q -0.99 -0.86 -2.64 -0.86h -0.97Z m 0 4.55v -2.99h 0.81q 0.81 0 1.22 0.38q 0.41 0.38 0.41 1.13q 0 0.74 -0.41 1.11q -0.41 0.37 -1.22 0.37h -0.81Z "/></symbol><symbol id="g11BED93FD6E9A21010D3472FC62C3C76" overflow="visible"><path d="M 0 0m 7.08 0h -2v 3.7q 0 0.71 -0.26 1.07q -0.26 0.35 -0.78 0.35q -0.53 0 -0.86 -0.4q -0.33 -0.4 -0.33 -1.01v -3.71h -2.01v 9.62h 2.01v -4.07h 0.03q 0.36 0.55 0.87 0.83q 0.51 0.28 1.13 0.28q 1.1 0 1.65 -0.67q 0.56 -0.67 0.56 -2v -4Z "/></symbol><symbol id="g74D9CAE07DB564DFFA18589A15CE9FEA" overflow="visible"><path d="M 0 0m 3.94 -0.16q -1.62 0 -2.56 0.91q -0.94 0.91 -0.93 2.47q 0.01 1.61 0.97 2.52q 0.96 0.91 2.61 0.91q 1.62 0 2.54 -0.91q 0.92 -0.91 0.92 -2.41q 0 -1.61 -0.95 -2.55q -0.95 -0.95 -2.6 -0.95Z m 0.06 1.54q 0.72 0 1.08 0.49q 0.36 0.49 0.36 1.43q 0 0.9 -0.36 1.36q -0.36 0.46 -1.09 0.46q -0.71 0 -1.11 -0.49q -0.39 -0.49 -0.39 -1.38q 0 -0.93 0.38 -1.4q 0.38 -0.47 1.13 -0.47Z "/></symbol><symbol id="g679A0797A1D914641723DCD213341CA4" overflow="visible"><path d="M 0 0m 4.93 0.14q -0.3 -0.14 -0.69 -0.22q -0.38 -0.08 -0.78 -0.08q -1.07 0 -1.61 0.51q -0.54 0.51 -0.54 1.54v 3.13h -1.05v 1.48h 1.05v 1.58l 2 0.55v -2.13h 1.47v -1.48h -1.47v -3.01q 0 -0.37 0.14 -0.53q 0.14 -0.17 0.46 -0.17q 0.16 0 0.3 0.04q 0.15 0.04 0.28 0.11l 0.43 -1.33Z "/></symbol><symbol id="g8925E053502C3597DBC7318AF79C88A8" overflow="visible"><path d="M 0 0m 0.21 0.59l 0.83 1.32q 0.35 -0.27 0.79 -0.46q 0.45 -0.18 0.99 -0.18q 0.39 0 0.64 0.14q 0.25 0.14 0.25 0.42q 0 0.22 -0.18 0.35q -0.18 0.13 -0.72 0.24q -1.22 0.25 -1.77 0.72q -0.55 0.47 -0.55 1.33q 0 0.98 0.78 1.58q 0.78 0.6 1.92 0.6q 0.61 0 1.15 -0.16q 0.55 -0.16 1 -0.47l -0.78 -1.28q -0.39 0.25 -0.73 0.37q -0.35 0.12 -0.71 0.12q -0.39 0 -0.62 -0.15q -0.23 -0.15 -0.23 -0.38q 0 -0.26 0.23 -0.38q 0.23 -0.12 0.87 -0.24q 1.13 -0.22 1.62 -0.71q 0.49 -0.49 0.49 -1.32q 0 -1 -0.75 -1.61q -0.75 -0.61 -1.99 -0.61q -0.69 0 -1.32 0.18q -0.63 0.18 -1.22 0.57Z "/></symbol><symbol id="g83CF86FA252D06CAAAC5F8929496908D" overflow="visible"><path d="M 0 0m 1.62 2.3v -2.3h -0.78v 6.3h 1.76q 1.02 0 1.58 -0.5q 0.56 -0.5 0.56 -1.42q 0 -0.91 -0.62 -1.5q -0.62 -0.58 -1.68 -0.58h -0.82Z m 0 3.31v -2.62h 0.76q 0.75 0 1.15 0.35q 0.4 0.35 0.4 1q 0 0.63 -0.36 0.95q -0.36 0.32 -1.09 0.32h -0.85Z "/></symbol><symbol id="gBDB36A810B8D5B70E991FADD641A123A" overflow="visible"><path d="M 0 0m 4.56 0h -0.76v 2.63q 0 0.71 -0.26 1.06q -0.26 0.35 -0.79 0.35q -0.53 0 -0.89 -0.41q -0.36 -0.41 -0.36 -1.05v -2.59h -0.76v 6.66h 0.76v -2.85h 0.02q 0.26 0.43 0.64 0.65q 0.37 0.22 0.86 0.22q 0.77 0 1.16 -0.46q 0.39 -0.46 0.39 -1.4v -2.81Z "/></symbol><symbol id="gCE353107D060B65EF7D75658D6833684" overflow="visible"><path d="M 0 0m 2.67 -0.11q -1.02 0 -1.62 0.64q -0.61 0.64 -0.61 1.7q 0 1.14 0.63 1.79q 0.63 0.65 1.71 0.65q 1.03 0 1.6 -0.63q 0.58 -0.63 0.58 -1.74q 0 -1.1 -0.62 -1.76q -0.62 -0.66 -1.66 -0.66Z m 0.05 0.63q 0.7 0 1.08 0.46q 0.38 0.46 0.38 1.29q 0 0.85 -0.38 1.31q -0.38 0.46 -1.08 0.46q -0.7 0 -1.1 -0.48q -0.41 -0.48 -0.41 -1.31q 0 -0.81 0.41 -1.27q 0.41 -0.46 1.1 -0.46Z "/></symbol><symbol id="gA5059AE7B37FE30D820F5234E89DF786" overflow="visible"><path d="M 0 0m 2.96 0.06q -0.19 -0.08 -0.37 -0.11q -0.18 -0.04 -0.41 -0.04q -0.55 0 -0.87 0.32q -0.31 0.32 -0.31 0.95v 2.75h -0.78v 0.64h 0.78v 1.07l 0.76 0.24v -1.31h 1.15v -0.64h -1.15v -2.67q 0 -0.39 0.14 -0.56q 0.14 -0.17 0.42 -0.17q 0.13 0 0.26 0.03q 0.12 0.03 0.21 0.07l 0.18 -0.57Z "/></symbol><symbol id="g9FE6D929D14C7F837007228AED654940" overflow="visible"><path d="M 0 0m 0.34 0.34l 0.35 0.57q 0.29 -0.19 0.58 -0.29q 0.28 -0.1 0.62 -0.1q 0.46 0 0.7 0.17q 0.24 0.17 0.24 0.51q 0 0.28 -0.21 0.47q -0.21 0.19 -0.67 0.3q -0.85 0.22 -1.17 0.55q -0.32 0.33 -0.32 0.82q 0 0.57 0.43 0.95q 0.43 0.38 1.19 0.38q 0.37 0 0.69 -0.09q 0.33 -0.09 0.67 -0.32l -0.33 -0.57q -0.31 0.19 -0.55 0.27q -0.25 0.08 -0.5 0.08q -0.44 0 -0.67 -0.16q -0.23 -0.16 -0.23 -0.47q 0 -0.3 0.23 -0.46q 0.23 -0.15 0.76 -0.29q 0.7 -0.19 1.04 -0.52q 0.35 -0.33 0.35 -0.88q 0 -0.63 -0.45 -1q -0.45 -0.37 -1.24 -0.37q -0.42 0 -0.81 0.11q -0.38 0.11 -0.71 0.33Z "/></symbol><symbol id="g44A84F81F9FF6D223D94C55A75C258A9" overflow="visible"><path d="M 0 0m 4.56 0h -0.76v 2.6q 0 0.72 -0.26 1.08q -0.26 0.36 -0.79 0.36q -0.54 0 -0.9 -0.41q -0.35 -0.41 -0.35 -1.03v -2.61h -0.76v 4.57h 0.76v -0.76h 0.02q 0.26 0.43 0.63 0.65q 0.37 0.22 0.86 0.22q 0.75 0 1.15 -0.48q 0.4 -0.48 0.4 -1.4v -2.79Z "/></symbol><symbol id="g61F65574F238E6A58387FA318FC26C84" overflow="visible"><path d="M 0 0m 4.44 2.11h -3.22q 0.02 -0.76 0.41 -1.17q 0.39 -0.41 1.08 -0.41q 0.3 0 0.62 0.09q 0.31 0.09 0.62 0.3l 0.35 -0.53q -0.39 -0.26 -0.79 -0.38q -0.4 -0.12 -0.87 -0.12q -1.04 0 -1.62 0.62q -0.58 0.62 -0.58 1.72q 0 1.1 0.58 1.77q 0.59 0.67 1.53 0.67q 0.89 0 1.39 -0.58q 0.5 -0.58 0.5 -1.61v -0.37Z m -0.77 0.6q 0 0.63 -0.3 0.98q -0.3 0.35 -0.82 0.35q -0.52 0 -0.88 -0.36q -0.36 -0.36 -0.44 -0.97h 2.44Z "/></symbol><symbol id="g5CD7493F2595109B32F9298B9112AFB5" overflow="visible"><path d="M 0 0m 7.26 0h -0.76v 2.62q 0 0.75 -0.23 1.08q -0.23 0.33 -0.78 0.33q -0.46 0 -0.79 -0.42q -0.32 -0.42 -0.32 -1.02v -2.6h -0.76v 2.71q 0 0.67 -0.26 1q -0.26 0.33 -0.77 0.33q -0.48 0 -0.79 -0.4q -0.31 -0.4 -0.31 -1.04v -2.6h -0.76v 4.57h 0.76v -0.72h 0.02q 0.24 0.41 0.6 0.62q 0.36 0.21 0.82 0.21q 0.47 0 0.82 -0.26q 0.35 -0.26 0.48 -0.68q 0.25 0.47 0.63 0.71q 0.38 0.24 0.88 0.24q 0.75 0 1.13 -0.46q 0.38 -0.46 0.38 -1.39v -2.82Z "/></symbol><symbol id="g2A87F2FBA68D3387DFBB803D0048E289" overflow="visible"><path d="M 0 0m 4.01 0h -0.75v 0.72h -0.02q -0.24 -0.41 -0.58 -0.62q -0.35 -0.21 -0.81 -0.21q -0.64 0 -1.04 0.37q -0.4 0.37 -0.4 0.99q 0 0.59 0.4 0.97q 0.4 0.38 1.15 0.49l 1.3 0.17v 0.1q 0 0.56 -0.26 0.8q -0.26 0.24 -0.71 0.24q -0.35 0 -0.69 -0.13q -0.33 -0.13 -0.63 -0.41l -0.43 0.46q 0.39 0.36 0.82 0.53q 0.44 0.17 0.97 0.17q 0.84 0 1.26 -0.43q 0.42 -0.43 0.42 -1.29v -2.96Z m -0.75 1.86v 0.45l -1.09 -0.15q -0.5 -0.07 -0.75 -0.25q -0.25 -0.18 -0.25 -0.58q 0 -0.4 0.24 -0.61q 0.24 -0.21 0.58 -0.21q 0.58 0 0.93 0.38q 0.35 0.38 0.35 0.97Z "/></symbol><symbol id="g7FA08378926DA3B6D38F7F71BD81EE0C" overflow="visible"><path d="M 0 0m 1.52 0.66h -0.02v -2.73h -0.76v 6.64h 0.76v -0.8h 0.02q 0.27 0.45 0.67 0.68q 0.4 0.23 0.91 0.23q 0.88 0 1.38 -0.61q 0.49 -0.61 0.49 -1.64q 0 -1.15 -0.56 -1.84q -0.56 -0.69 -1.52 -0.69q -0.44 0 -0.79 0.19q -0.34 0.19 -0.58 0.57Z m -0.02 1.84v -0.62q 0 -0.57 0.36 -0.96q 0.36 -0.39 0.93 -0.39q 0.66 0 1.03 0.5q 0.37 0.5 0.37 1.4q 0 0.76 -0.35 1.18q -0.35 0.43 -0.94 0.43q -0.63 0 -1.02 -0.44q -0.38 -0.44 -0.38 -1.1Z "/></symbol><symbol id="g6395D47FE2D18F0F87BE6CCD0FE6046B" overflow="visible"><path d="M 0 0m 4.47 0h -0.76v 0.72h -0.02q -0.23 -0.41 -0.58 -0.62q -0.35 -0.21 -0.83 -0.21q -0.81 0 -1.22 0.49q -0.41 0.49 -0.41 1.46v 2.73h 0.75v -2.61q 0 -0.71 0.27 -1.07q 0.27 -0.36 0.82 -0.36q 0.53 0 0.87 0.39q 0.34 0.39 0.34 1.02v 2.63h 0.76v -4.57Z "/></symbol><symbol id="g2215A5A26844134E1E19B1BAD089E4C1" overflow="visible"><path d="M 0 0m 3.99 0.28q -0.32 -0.2 -0.64 -0.3q -0.32 -0.09 -0.7 -0.09q -0.97 0 -1.59 0.6q -0.62 0.6 -0.62 1.69q 0 1.12 0.63 1.81q 0.63 0.69 1.72 0.69q 0.35 0 0.67 -0.08q 0.32 -0.08 0.64 -0.27l -0.32 -0.55q -0.25 0.14 -0.49 0.21q -0.24 0.07 -0.52 0.07q -0.75 0 -1.15 -0.5q -0.4 -0.5 -0.4 -1.27q 0 -0.84 0.42 -1.29q 0.42 -0.45 1.08 -0.45q 0.22 0 0.46 0.07q 0.24 0.07 0.49 0.22l 0.33 -0.54Z "/></symbol><symbol id="g8B67C79FA4388AC5F322928903AD0F4C" overflow="visible"><path d="M 0 0m 3.03 3.92q -0.09 0.03 -0.16 0.04q -0.07 0.01 -0.17 0.01q -0.56 0 -0.88 -0.47q -0.32 -0.47 -0.32 -1.18v -2.32h -0.76v 4.57h 0.76v -0.91h 0.02q 0.16 0.48 0.48 0.73q 0.32 0.25 0.74 0.25q 0.14 0 0.23 -0.01q 0.1 -0.01 0.18 -0.04l -0.12 -0.67Z "/></symbol><symbol id="gB9B387D9A667850372B67788EB0987CA" overflow="visible"><path d="M 0 0m 4.56 0h -1.05l -1.99 2.2h -0.02v -2.2h -0.76v 6.66h 0.76v -4.19h 0.02l 1.89 2.09h 0.98l -2.09 -2.2l 2.26 -2.37Z "/></symbol><symbol id="g8982858DB563BD4BCC03C20CE68634F6" overflow="visible"><path d="M 0 0m 1.03 3.63q -0.22 0 -0.38 0.15q -0.15 0.15 -0.15 0.36q 0 0.22 0.15 0.37q 0.15 0.15 0.38 0.15q 0.22 0 0.37 -0.15q 0.15 -0.15 0.15 -0.37q 0 -0.21 -0.15 -0.36q -0.15 -0.15 -0.37 -0.15Z m 0.41 -2.62l -0.7 -2.17h -0.55l 0.51 2.17h 0.73Z "/></symbol><symbol id="gEACDCE4EE71302BF7DB295F02F9BC62C" overflow="visible"><path d="M 0 0m 0.75 0v 6.66h 0.76v -6.66h -0.76Z "/></symbol><symbol id="gE2D707CAEDBFAB7A4E3820A5A3F5A9F7" overflow="visible"><path d="M 0 0m 3.9 0.77q -0.25 -0.44 -0.64 -0.66q -0.39 -0.22 -0.92 -0.22q -0.86 0 -1.38 0.61q -0.52 0.61 -0.52 1.67q 0 1.13 0.57 1.82q 0.57 0.68 1.52 0.68q 0.47 0 0.81 -0.18q 0.34 -0.18 0.55 -0.55h 0.02v 2.73h 0.76v -6.66h -0.76v 0.77h -0.02Z m -2.68 1.44q 0 -0.78 0.36 -1.24q 0.36 -0.45 0.98 -0.45q 0.61 0 0.98 0.44q 0.37 0.44 0.37 1.11v 0.66q 0 0.55 -0.36 0.93q -0.36 0.38 -0.92 0.38q -0.66 0 -1.04 -0.49q -0.38 -0.49 -0.38 -1.34Z "/></symbol><symbol id="g479F48A9EAAE032EE79AFA4FE7A49B8C" overflow="visible"><path d="M 0 0m 1.14 5.58q -0.23 0 -0.38 0.15q -0.15 0.15 -0.15 0.37q 0 0.22 0.15 0.37q 0.15 0.15 0.38 0.15q 0.23 0 0.38 -0.15q 0.15 -0.15 0.15 -0.37q 0 -0.22 -0.15 -0.37q -0.15 -0.15 -0.38 -0.15Z m 0.37 -5.58h -0.76v 4.57h 0.76v -4.57Z "/></symbol><symbol id="g2CBFE1659E2A55B7F1E2B985E8A9D854" overflow="visible"><path d="M 0 0m 4.6 5.61h -1.82v -5.61h -0.78v 5.61h -1.81v 0.7h 4.41v -0.7Z "/></symbol><symbol id="g1D687ACE0CBA9FD49486339A1772C4A5" overflow="visible"><path d="M 0 0m 6.54 4.57l -1.37 -4.57h -0.79l -0.93 3.25q -0.03 0.12 -0.05 0.21q -0.01 0.09 -0.02 0.21h -0.02q -0.01 -0.11 -0.03 -0.2q -0.02 -0.09 -0.06 -0.22l -1.01 -3.25h -0.76l -1.38 4.57h 0.79l 0.93 -3.42q 0.02 -0.08 0.04 -0.18q 0.02 -0.1 0.02 -0.23h 0.04q 0.01 0.1 0.03 0.21q 0.02 0.11 0.05 0.22l 1.04 3.41h 0.69l 0.94 -3.42q 0.02 -0.08 0.04 -0.18q 0.02 -0.1 0.03 -0.23h 0.04q 0 0.09 0.02 0.19q 0.02 0.1 0.05 0.22l 0.91 3.42h 0.75Z "/></symbol><symbol id="g7CB221C51D5EF65E8DC61ECD3C806826" overflow="visible"><path d="M 0 0m 2.94 6.05q -0.12 0.04 -0.22 0.06q -0.1 0.02 -0.21 0.02q -0.37 0 -0.54 -0.19q -0.18 -0.19 -0.18 -0.57v -0.8h 1.06v -0.64h -1.06v -3.93h -0.75v 3.93h -0.77v 0.64h 0.77v 0.83q 0 0.64 0.4 1q 0.4 0.36 1.09 0.36q 0.17 0 0.32 -0.02q 0.14 -0.02 0.29 -0.07l -0.18 -0.61Z "/></symbol><symbol id="gA1577E50CDB733A9F5E4D6537CDBE4EF" overflow="visible"><path d="M 0 0m 4.42 4.57l -2.14 -5.41q -0.25 -0.64 -0.64 -0.96q -0.39 -0.32 -0.91 -0.32q -0.14 0 -0.26 0.02q -0.12 0.02 -0.23 0.05l 0.15 0.64q 0.08 -0.03 0.16 -0.04q 0.07 -0.01 0.15 -0.01q 0.29 0 0.49 0.15q 0.2 0.15 0.31 0.43l 0.38 0.9l -1.79 4.56h 0.84l 1.22 -3.48q 0.01 -0.04 0.04 -0.13q 0.02 -0.09 0.06 -0.23h 0.03q 0.01 0.06 0.03 0.15q 0.02 0.09 0.06 0.21l 1.28 3.49h 0.78Z "/></symbol><symbol id="g79C11A32749F30EBDDE416333CE0CDB4" overflow="visible"><path d="M 0 0m 1.52 0.6h -0.02v -0.6h -0.76v 6.66h 0.76v -2.9h 0.02q 0.27 0.45 0.67 0.68q 0.4 0.23 0.91 0.23q 0.88 0 1.37 -0.61q 0.5 -0.61 0.5 -1.64q 0 -1.15 -0.56 -1.84q -0.56 -0.69 -1.52 -0.69q -0.45 0 -0.79 0.18q -0.34 0.18 -0.57 0.53Z m -0.02 1.9v -0.63q 0 -0.56 0.36 -0.96q 0.36 -0.39 0.93 -0.39q 0.66 0 1.03 0.5q 0.37 0.5 0.37 1.4q 0 0.76 -0.35 1.18q -0.35 0.43 -0.94 0.43q -0.63 0 -1.02 -0.44q -0.38 -0.44 -0.38 -1.1Z "/></symbol><symbol id="gA0C995C8FD0AF032C4DA53E9E662FB9F" overflow="visible"><path d="M 0 0m 1.44 1.01l -0.7 -2.17h -0.55l 0.51 2.17h 0.73Z "/></symbol><symbol id="g270B95BB954C9316392BEAE4CBC0B152" overflow="visible"><path d="M 0 0m 3.96 4.33l -2.68 -3.7h 2.66v -0.64h -3.77v 0.24l 2.69 3.68h -2.44v 0.64h 3.54v -0.23Z "/></symbol><symbol id="gD5D487A58DE002D90D2248A4B23210B5" overflow="visible"><path d="M 0 0m 4.67 0.3q 0 -1.2 -0.62 -1.81q -0.62 -0.61 -1.71 -0.61q -0.47 0 -0.88 0.09q -0.4 0.09 -0.82 0.29l 0.27 0.58q 0.36 -0.17 0.69 -0.24q 0.34 -0.08 0.72 -0.08q 0.74 0 1.16 0.42q 0.42 0.42 0.42 1.26v 0.57h -0.02q -0.26 -0.44 -0.65 -0.65q -0.39 -0.22 -0.91 -0.22q -0.85 0 -1.37 0.61q -0.52 0.61 -0.52 1.64q 0 1.13 0.57 1.83q 0.57 0.7 1.52 0.7q 0.46 0 0.8 -0.18q 0.34 -0.18 0.56 -0.55h 0.02v 0.63h 0.76v -4.27Z m -0.76 1.77v 0.66q 0 0.54 -0.36 0.93q -0.36 0.38 -0.91 0.38q -0.67 0 -1.05 -0.46q -0.38 -0.46 -0.38 -1.39q 0 -0.8 0.35 -1.23q 0.35 -0.43 0.97 -0.43q 0.61 0 0.99 0.43q 0.38 0.43 0.38 1.11Z "/></symbol></defs></svg>