<svg viewBox="0 0 252 199.73" width="252pt" height="199.73pt" xmlns="http://www.w3.org/2000/svg" xmlns:xlink="http://www.w3.org/1999/xlink" xmlns:h5="http://www.w3.org/1999/xhtml"><g transform="matrix(1 0 0 -1 0 9.35)"><use xlink:href="#g42606A164BBDE12F2F88999D3A4465BC" x="0" y="0" fill="#5f5b63" fill-rule="nonzero"/><use xlink:href="#gC38A35953CED98AC7A803C7A891A43A1" x="5.5" y="0" fill="#5f5b63" fill-rule="nonzero"/><use xlink:href="#gF749984C29173DFE59167D8D19C90F70" x="11.44" y="0" fill="#5f5b63" fill-rule="nonzero"/><use xlink:href="#g77C10A9EBD994F22B2535449062BCA69" x="19.81" y="0" fill="#5f5b63" fill-rule="nonzero"/><use xlink:href="#g1EF0961E83BF4F998394783553F410DB" x="28.85" y="0" fill="#5f5b63" fill-rule="nonzero"/><use xlink:href="#gC2804DD294125BA68DBFA95B33154ADB" x="34.2" y="0" fill="#5f5b63" fill-rule="nonzero"/><use xlink:href="#gF749984C29173DFE59167D8D19C90F70" x="43.25" y="0" fill="#5f5b63" fill-rule="nonzero"/><use xlink:href="#g64DF020AAF5EE63E71362ECFFBCAB59E" x="48.74" y="0" fill="#5f5b63" fill-rule="nonzero"/><use xlink:href="#gDBBC31EAE27CB31C5A243F73BDBBF6A1" x="54.68" y="0" fill="#5f5b63" fill-rule="nonzero"/><use xlink:href="#g3631438550FEE66F0AF32A2886249379" x="60.86" y="0" fill="#5f5b63" fill-rule="nonzero"/><use xlink:href="#g64DF020AAF5EE63E71362ECFFBCAB59E" x="63.41" y="0" fill="#5f5b63" fill-rule="nonzero"/><use xlink:href="#gF749984C29173DFE59167D8D19C90F70" x="69.35" y="0" fill="#5f5b63" fill-rule="nonzero"/><use xlink:href="#g77C10A9EBD994F22B2535449062BCA69" x="77.71" y="0" fill="#5f5b63" fill-rule="nonzero"/><use xlink:href="#gBA2CE453ACB3A3B123FED4837718DE30" x="86.76" y="0" fill="#5f5b63" fill-rule="nonzero"/><use xlink:href="#gA3A62561D0A211938AD1C94D554FF12" x="92.91" y="0" fill="#5f5b63" fill-rule="nonzero"/><use xlink:href="#gF749984C29173DFE59167D8D19C90F70" x="97.94" y="0" fill="#5f5b63" fill-rule="nonzero"/><use xlink:href="#gBE57D1B3C12EC8743181E363878D0BCF" x="103.43" y="0" fill="#5f5b63" fill-rule="nonzero"/><use xlink:href="#gDF916867704FF132A5A02B3A0DFD7873" x="112.49" y="0" fill="#5f5b63" fill-rule="nonzero"/><use xlink:href="#gDC1977A680C860675CED032FA0F73592" x="115.78" y="0" fill="#5f5b63" fill-rule="nonzero"/><use xlink:href="#gBA2CE453ACB3A3B123FED4837718DE30" x="119.43" y="0" fill="#5f5b63" fill-rule="nonzero"/><use xlink:href="#g77C10A9EBD994F22B2535449062BCA69" x="125.58" y="0" fill="#5f5b63" fill-rule="nonzero"/><use xlink:href="#gC2CD3B0938A8B1CB00BD610D1F1A63BF" x="137.5" y="0" fill="#5f5b63" fill-rule="nonzero"/><use xlink:href="#g5F8B10F212DDA16F3DE7C302CA5727F0" x="142.63" y="0" fill="#5f5b63" fill-rule="nonzero"/><use xlink:href="#gAAE6AEC990AE50FFC710417316A29EDC" x="145.17" y="0" fill="#5f5b63" fill-rule="nonzero"/><use xlink:href="#g92232EE9D27A3486FA8F460E8AB70B94" x="151.11" y="0" fill="#5f5b63" fill-rule="nonzero"/><use xlink:href="#g92232EE9D27A3486FA8F460E8AB70B94" x="154.67" y="0" fill="#5f5b63" fill-rule="nonzero"/><use xlink:href="#gF749984C29173DFE59167D8D19C90F70" x="158.23" y="0" fill="#5f5b63" fill-rule="nonzero"/><use xlink:href="#gDC1977A680C860675CED032FA0F73592" x="163.72" y="0" fill="#5f5b63" fill-rule="nonzero"/><use xlink:href="#gC4B68BD8515DD5C731F47370A2154FAF" x="167.37" y="0" fill="#5f5b63" fill-rule="nonzero"/><use xlink:href="#g1EF0961E83BF4F998394783553F410DB" x="176.8" y="0" fill="#5f5b63" fill-rule="nonzero"/><use xlink:href="#gC2804DD294125BA68DBFA95B33154ADB" x="182.14" y="0" fill="#5f5b63" fill-rule="nonzero"/><use xlink:href="#g92232EE9D27A3486FA8F460E8AB70B94" x="191.19" y="0" fill="#5f5b63" fill-rule="nonzero"/><use xlink:href="#gBA2CE453ACB3A3B123FED4837718DE30" x="194.75" y="0" fill="#5f5b63" fill-rule="nonzero"/><use xlink:href="#gC4B68BD8515DD5C731F47370A2154FAF" x="203.78" y="0" fill="#5f5b63" fill-rule="nonzero"/><use xlink:href="#g1EF0961E83BF4F998394783553F410DB" x="213.2" y="0" fill="#5f5b63" fill-rule="nonzero"/><use xlink:href="#gC2804DD294125BA68DBFA95B33154ADB" x="218.55" y="0" fill="#5f5b63" fill-rule="nonzero"/><use xlink:href="#g4370CCC8FD7315F71D953FBA4C57201B" x="224.72" y="0" fill="#5f5b63" fill-rule="nonzero"/><use xlink:href="#g3631438550FEE66F0AF32A2886249379" x="229.66" y="0" fill="#5f5b63" fill-rule="nonzero"/><use xlink:href="#gF61BD48F5F23DD3B1DD432EE2771C50D" x="232.2" y="0" fill="#5f5b63" fill-rule="nonzero"/><use xlink:href="#gDC1977A680C860675CED032FA0F73592" x="238.38" y="0" fill="#5f5b63" fill-rule="nonzero"/><use xlink:href="#gF749984C29173DFE59167D8D19C90F70" x="242.03" y="0" fill="#5f5b63" fill-rule="nonzero"/><use xlink:href="#gE0FC4C98E838622BB29CF3347C9B126F" x="247.52" y="0" fill="#5f5b63" fill-rule="nonzero"/></g><g transform="matrix(1 0 0 -1 0 23.53)"><use xlink:href="#g64BEBE3E4745A7712FD834F26025DFBA" x="0" y="0" fill="#5f5b63" fill-rule="nonzero"/><use xlink:href="#gBA2CE453ACB3A3B123FED4837718DE30" x="5.49" y="0" fill="#5f5b63" fill-rule="nonzero"/><use xlink:href="#g3631438550FEE66F0AF32A2886249379" x="11.64" y="0" fill="#5f5b63" fill-rule="nonzero"/><use xlink:href="#g64DF020AAF5EE63E71362ECFFBCAB59E" x="14.19" y="0" fill="#5f5b63" fill-rule="nonzero"/><use xlink:href="#g92232EE9D27A3486FA8F460E8AB70B94" x="20.13" y="0" fill="#5f5b63" fill-rule="nonzero"/><use xlink:href="#gF790F2E9E71E9785B32EEAA39B7A0FFB" x="26.56" y="0" fill="#5f5b63" fill-rule="nonzero"/><use xlink:href="#g5F8B10F212DDA16F3DE7C302CA5727F0" x="31.41" y="0" fill="#5f5b63" fill-rule="nonzero"/><use xlink:href="#gAAE6AEC990AE50FFC710417316A29EDC" x="33.96" y="0" fill="#5f5b63" fill-rule="nonzero"/><use xlink:href="#g9E78CDB831372CE2DF11E0CBFABDCE37" x="39.9" y="0" fill="#5f5b63" fill-rule="nonzero"/><use xlink:href="#g92232EE9D27A3486FA8F460E8AB70B94" x="44.35" y="0" fill="#5f5b63" fill-rule="nonzero"/><use xlink:href="#gF749984C29173DFE59167D8D19C90F70" x="47.91" y="0" fill="#5f5b63" fill-rule="nonzero"/><use xlink:href="#gDC1977A680C860675CED032FA0F73592" x="53.4" y="0" fill="#5f5b63" fill-rule="nonzero"/><use xlink:href="#g3631438550FEE66F0AF32A2886249379" x="57.05" y="0" fill="#5f5b63" fill-rule="nonzero"/><use xlink:href="#g64DF020AAF5EE63E71362ECFFBCAB59E" x="59.6" y="0" fill="#5f5b63" fill-rule="nonzero"/><use xlink:href="#gDBBC31EAE27CB31C5A243F73BDBBF6A1" x="65.54" y="0" fill="#5f5b63" fill-rule="nonzero"/><use xlink:href="#g79DC8A36EA5D175ABA674FEA9686329" x="74.6" y="0" fill="#5f5b63" fill-rule="nonzero"/><use xlink:href="#gF749984C29173DFE59167D8D19C90F70" x="79.82" y="0" fill="#5f5b63" fill-rule="nonzero"/><use xlink:href="#gF749984C29173DFE59167D8D19C90F70" x="85.31" y="0" fill="#5f5b63" fill-rule="nonzero"/><use xlink:href="#gC2804DD294125BA68DBFA95B33154ADB" x="90.8" y="0" fill="#5f5b63" fill-rule="nonzero"/><use xlink:href="#g9E78CDB831372CE2DF11E0CBFABDCE37" x="96.97" y="0" fill="#5f5b63" fill-rule="nonzero"/><use xlink:href="#gF749984C29173DFE59167D8D19C90F70" x="104.3" y="0" fill="#5f5b63" fill-rule="nonzero"/><use xlink:href="#gA3A62561D0A211938AD1C94D554FF12" x="109.79" y="0" fill="#5f5b63" fill-rule="nonzero"/><use xlink:href="#gF749984C29173DFE59167D8D19C90F70" x="114.82" y="0" fill="#5f5b63" fill-rule="nonzero"/><use xlink:href="#g64DF020AAF5EE63E71362ECFFBCAB59E" x="120.31" y="0" fill="#5f5b63" fill-rule="nonzero"/><use xlink:href="#g77C10A9EBD994F22B2535449062BCA69" x="129.13" y="0" fill="#5f5b63" fill-rule="nonzero"/><use xlink:href="#g1EF0961E83BF4F998394783553F410DB" x="138.18" y="0" fill="#5f5b63" fill-rule="nonzero"/><use xlink:href="#g9E78CDB831372CE2DF11E0CBFABDCE37" x="143.52" y="0" fill="#5f5b63" fill-rule="nonzero"/><use xlink:href="#g9E78CDB831372CE2DF11E0CBFABDCE37" x="147.97" y="0" fill="#5f5b63" fill-rule="nonzero"/><use xlink:href="#g3631438550FEE66F0AF32A2886249379" x="152.43" y="0" fill="#5f5b63" fill-rule="nonzero"/><use xlink:href="#gA3A62561D0A211938AD1C94D554FF12" x="154.97" y="0" fill="#5f5b63" fill-rule="nonzero"/><use xlink:href="#gF749984C29173DFE59167D8D19C90F70" x="160" y="0" fill="#5f5b63" fill-rule="nonzero"/><use xlink:href="#g77C10A9EBD994F22B2535449062BCA69" x="168.37" y="0" fill="#5f5b63" fill-rule="nonzero"/><use xlink:href="#g1EF0961E83BF4F998394783553F410DB" x="177.41" y="0" fill="#5f5b63" fill-rule="nonzero"/><use xlink:href="#gDC1977A680C860675CED032FA0F73592" x="182.76" y="0" fill="#5f5b63" fill-rule="nonzero"/><use xlink:href="#g79DC8A36EA5D175ABA674FEA9686329" x="186.41" y="0" fill="#5f5b63" fill-rule="nonzero"/><use xlink:href="#gF749984C29173DFE59167D8D19C90F70" x="191.62" y="0" fill="#5f5b63" fill-rule="nonzero"/><use xlink:href="#gDC1977A680C860675CED032FA0F73592" x="197.12" y="0" fill="#5f5b63" fill-rule="nonzero"/><use xlink:href="#gF790F2E9E71E9785B32EEAA39B7A0FFB" x="203.64" y="0" fill="#5f5b63" fill-rule="nonzero"/><use xlink:href="#gBA2CE453ACB3A3B123FED4837718DE30" x="208.49" y="0" fill="#5f5b63" fill-rule="nonzero"/><use xlink:href="#gAAE6AEC990AE50FFC710417316A29EDC" x="214.65" y="0" fill="#5f5b63" fill-rule="nonzero"/><use xlink:href="#g64DF020AAF5EE63E71362ECFFBCAB59E" x="220.59" y="0" fill="#5f5b63" fill-rule="nonzero"/><use xlink:href="#g92232EE9D27A3486FA8F460E8AB70B94" x="226.53" y="0" fill="#5f5b63" fill-rule="nonzero"/><use xlink:href="#g9E78CDB831372CE2DF11E0CBFABDCE37" x="230.09" y="0" fill="#5f5b63" fill-rule="nonzero"/></g><g transform="matrix(1 0 0 -1 0 37.71)"><use xlink:href="#g9E78CDB831372CE2DF11E0CBFABDCE37" x="0" y="0" fill="#5f5b63" fill-rule="nonzero"/><use xlink:href="#g77C10A9EBD994F22B2535449062BCA69" x="4.46" y="0" fill="#5f5b63" fill-rule="nonzero"/><use xlink:href="#gBA2CE453ACB3A3B123FED4837718DE30" x="13.5" y="0" fill="#5f5b63" fill-rule="nonzero"/><use xlink:href="#gBA2CE453ACB3A3B123FED4837718DE30" x="19.65" y="0" fill="#5f5b63" fill-rule="nonzero"/><use xlink:href="#g92232EE9D27A3486FA8F460E8AB70B94" x="25.8" y="0" fill="#5f5b63" fill-rule="nonzero"/><use xlink:href="#gC38A35953CED98AC7A803C7A891A43A1" x="29.36" y="0" fill="#5f5b63" fill-rule="nonzero"/><use xlink:href="#gE0FC4C98E838622BB29CF3347C9B126F" x="35.3" y="0" fill="#5f5b63" fill-rule="nonzero"/></g><g transform="translate(39 64.31)"><path fill="#1c1b1f" fill-rule="nonzero" d="M 0 0m 0 9c 0 -4.97 4.03 -9 9 -9h 48c 4.97 0 9 4.03 9 9v 100c 0 4.97 -4.03 9 -9 9h -48c -4.97 0 -9 -4.03 -9 -9Z "/><g transform="translate(3 7)" clip-path="url(#cEA8DC819EBB5E6D527AE568BC64E4CAE)"><g><g clip-path="url(#cE0003B1D90883F6A55E8FCA1BAA06C30)"><path fill="#eef3e6" fill-rule="nonzero" d="M 0 0v 104h 60v -104Z "/><path fill="#f5d4a2" fill-rule="nonzero" transform="translate(3 8.32)" d="M 0 0m 0 0.7c 0 -0.39 0.31 -0.7 0.7 -0.7h 23.8c 0.39 0 0.7 0.31 0.7 0.7v 36.04c 0 0.39 -0.31 0.7 -0.7 0.7h -23.8c -0.39 0 -0.7 -0.31 -0.7 -0.7Z "/><path fill="none" stroke="#9e835a" stroke-width="0.6" stroke-linecap="butt" stroke-linejoin="miter" stroke-miterlimit="4" transform="translate(3 8.32)" d="M 0 0m 0.7 0h 23.8c 0.39 0 0.7 0.31 0.7 0.7v 36.04c 0 0.39 -0.31 0.7 -0.7 0.7h -23.8c -0.39 0 -0.7 -0.31 -0.7 -0.7v -36.04c 0 -0.39 0.31 -0.7 0.7 -0.7"/><path fill="#f5d4a2" fill-rule="nonzero" transform="translate(31.2 8.32)" d="M 0 0m 0 0.7c 0 -0.39 0.31 -0.7 0.7 -0.7h 23.8c 0.39 0 0.7 0.31 0.7 0.7v 36.04c 0 0.39 -0.31 0.7 -0.7 0.7h -23.8c -0.39 0 -0.7 -0.31 -0.7 -0.7Z "/><path fill="none" stroke="#9e835a" stroke-width="0.6" stroke-linecap="butt" stroke-linejoin="miter" stroke-miterlimit="4" transform="translate(31.2 8.32)" d="M 0 0m 0.7 0h 23.8c 0.39 0 0.7 0.31 0.7 0.7v 36.04c 0 0.39 -0.31 0.7 -0.7 0.7h -23.8c -0.39 0 -0.7 -0.31 -0.7 -0.7v -36.04c 0 -0.39 0.31 -0.7 0.7 -0.7"/><path fill="#f5d4a2" fill-rule="nonzero" transform="translate(3 55.12)" d="M 0 0m 0 0.7c 0 -0.39 0.31 -0.7 0.7 -0.7h 23.8c 0.39 0 0.7 0.31 0.7 0.7v 36.04c 0 0.39 -0.31 0.7 -0.7 0.7h -23.8c -0.39 0 -0.7 -0.31 -0.7 -0.7Z "/><path fill="none" stroke="#9e835a" stroke-width="0.6" stroke-linecap="butt" stroke-linejoin="miter" stroke-miterlimit="4" transform="translate(3 55.12)" d="M 0 0m 0.7 0h 23.8c 0.39 0 0.7 0.31 0.7 0.7v 36.04c 0 0.39 -0.31 0.7 -0.7 0.7h -23.8c -0.39 0 -0.7 -0.31 -0.7 -0.7v -36.04c 0 -0.39 0.31 -0.7 0.7 -0.7"/><path fill="#f5d4a2" fill-rule="nonzero" transform="translate(31.2 55.12)" d="M 0 0m 0 0.7c 0 -0.39 0.31 -0.7 0.7 -0.7h 23.8c 0.39 0 0.7 0.31 0.7 0.7v 36.04c 0 0.39 -0.31 0.7 -0.7 0.7h -23.8c -0.39 0 -0.7 -0.31 -0.7 -0.7Z "/><path fill="none" stroke="#9e835a" stroke-width="0.6" stroke-linecap="butt" stroke-linejoin="miter" stroke-miterlimit="4" transform="translate(31.2 55.12)" d="M 0 0m 0.7 0h 23.8c 0.39 0 0.7 0.31 0.7 0.7v 36.04c 0 0.39 -0.31 0.7 -0.7 0.7h -23.8c -0.39 0 -0.7 -0.31 -0.7 -0.7v -36.04c 0 -0.39 0.31 -0.7 0.7 -0.7"/><path fill="none" stroke="#8d6e63" stroke-width="2" stroke-linecap="round" stroke-linejoin="miter" stroke-miterlimit="4" d="M 0 0m -2 81.12c 20 -60.32 38 22.88 64 -49.92"/></g><path fill="#d32f2f" fill-rule="nonzero" stroke="#ffffff" stroke-width="0.8" stroke-linecap="butt" stroke-linejoin="miter" stroke-miterlimit="4" transform="translate(9 17.8)" d="M 0 0m 0 3c 0 -1.66 1.34 -3 3 -3c 1.66 0 3 1.34 3 3c 0 1.66 -1.34 3 -3 3c -1.66 0 -3 -1.34 -3 -3"/><path fill="#d32f2f" fill-rule="nonzero" stroke="#ffffff" stroke-width="0.8" stroke-linecap="butt" stroke-linejoin="miter" stroke-miterlimit="4" transform="translate(12 23)" d="M 0 0m 0 3c 0 -1.66 1.34 -3 3 -3c 1.66 0 3 1.34 3 3c 0 1.66 -1.34 3 -3 3c -1.66 0 -3 -1.34 -3 -3"/><path fill="#d32f2f" fill-rule="nonzero" stroke="#ffffff" stroke-width="0.8" stroke-linecap="butt" stroke-linejoin="miter" stroke-miterlimit="4" transform="translate(15 15.72)" d="M 0 0m 0 3c 0 -1.66 1.34 -3 3 -3c 1.66 0 3 1.34 3 3c 0 1.66 -1.34 3 -3 3c -1.66 0 -3 -1.34 -3 -3"/><path fill="#d32f2f" fill-rule="nonzero" stroke="#ffffff" stroke-width="0.8" stroke-linecap="butt" stroke-linejoin="miter" stroke-miterlimit="4" transform="translate(10.2 28.2)" d="M 0 0m 0 3c 0 -1.66 1.34 -3 3 -3c 1.66 0 3 1.34 3 3c 0 1.66 -1.34 3 -3 3c -1.66 0 -3 -1.34 -3 -3"/><path fill="#d32f2f" fill-rule="nonzero" stroke="#ffffff" stroke-width="0.8" stroke-linecap="butt" stroke-linejoin="miter" stroke-miterlimit="4" transform="translate(13.8 30.28)" d="M 0 0m 0 3c 0 -1.66 1.34 -3 3 -3c 1.66 0 3 1.34 3 3c 0 1.66 -1.34 3 -3 3c -1.66 0 -3 -1.34 -3 -3"/><path fill="#d32f2f" fill-rule="nonzero" stroke="#ffffff" stroke-width="0.8" stroke-linecap="butt" stroke-linejoin="miter" stroke-miterlimit="4" transform="translate(39 28.2)" d="M 0 0m 0 3c 0 -1.66 1.34 -3 3 -3c 1.66 0 3 1.34 3 3c 0 1.66 -1.34 3 -3 3c -1.66 0 -3 -1.34 -3 -3"/><path fill="#d32f2f" fill-rule="nonzero" stroke="#ffffff" stroke-width="0.8" stroke-linecap="butt" stroke-linejoin="miter" stroke-miterlimit="4" transform="translate(41.4 33.4)" d="M 0 0m 0 3c 0 -1.66 1.34 -3 3 -3c 1.66 0 3 1.34 3 3c 0 1.66 -1.34 3 -3 3c -1.66 0 -3 -1.34 -3 -3"/><path fill="#d32f2f" fill-rule="nonzero" stroke="#ffffff" stroke-width="0.8" stroke-linecap="butt" stroke-linejoin="miter" stroke-miterlimit="4" transform="translate(37.8 36.52)" d="M 0 0m 0 3c 0 -1.66 1.34 -3 3 -3c 1.66 0 3 1.34 3 3c 0 1.66 -1.34 3 -3 3c -1.66 0 -3 -1.34 -3 -3"/><path fill="#d32f2f" fill-rule="nonzero" stroke="#ffffff" stroke-width="0.8" stroke-linecap="butt" stroke-linejoin="miter" stroke-miterlimit="4" transform="translate(40.2 24.04)" d="M 0 0m 0 3c 0 -1.66 1.34 -3 3 -3c 1.66 0 3 1.34 3 3c 0 1.66 -1.34 3 -3 3c -1.66 0 -3 -1.34 -3 -3"/><path fill="#d32f2f" fill-rule="nonzero" stroke="#ffffff" stroke-width="0.8" stroke-linecap="butt" stroke-linejoin="miter" stroke-miterlimit="4" transform="translate(36.6 31.32)" d="M 0 0m 0 3c 0 -1.66 1.34 -3 3 -3c 1.66 0 3 1.34 3 3c 0 1.66 -1.34 3 -3 3c -1.66 0 -3 -1.34 -3 -3"/><path fill="#d32f2f" fill-rule="nonzero" stroke="#ffffff" stroke-width="0.8" stroke-linecap="butt" stroke-linejoin="miter" stroke-miterlimit="4" transform="translate(43.8 29.24)" d="M 0 0m 0 3c 0 -1.66 1.34 -3 3 -3c 1.66 0 3 1.34 3 3c 0 1.66 -1.34 3 -3 3c -1.66 0 -3 -1.34 -3 -3"/><path fill="#d32f2f" fill-rule="nonzero" stroke="#ffffff" stroke-width="0.8" stroke-linecap="butt" stroke-linejoin="miter" stroke-miterlimit="4" transform="translate(21 69.8)" d="M 0 0m 0 3c 0 -1.66 1.34 -3 3 -3c 1.66 0 3 1.34 3 3c 0 1.66 -1.34 3 -3 3c -1.66 0 -3 -1.34 -3 -3"/><path fill="#d32f2f" fill-rule="nonzero" stroke="#ffffff" stroke-width="0.8" stroke-linecap="butt" stroke-linejoin="miter" stroke-miterlimit="4" transform="translate(24 73.96)" d="M 0 0m 0 3c 0 -1.66 1.34 -3 3 -3c 1.66 0 3 1.34 3 3c 0 1.66 -1.34 3 -3 3c -1.66 0 -3 -1.34 -3 -3"/><path fill="#d32f2f" fill-rule="nonzero" stroke="#ffffff" stroke-width="0.8" stroke-linecap="butt" stroke-linejoin="miter" stroke-miterlimit="4" transform="translate(27 67.72)" d="M 0 0m 0 3c 0 -1.66 1.34 -3 3 -3c 1.66 0 3 1.34 3 3c 0 1.66 -1.34 3 -3 3c -1.66 0 -3 -1.34 -3 -3"/><path fill="#d32f2f" fill-rule="nonzero" stroke="#ffffff" stroke-width="0.8" stroke-linecap="butt" stroke-linejoin="miter" stroke-miterlimit="4" transform="translate(22.2 78.12)" d="M 0 0m 0 3c 0 -1.66 1.34 -3 3 -3c 1.66 0 3 1.34 3 3c 0 1.66 -1.34 3 -3 3c -1.66 0 -3 -1.34 -3 -3"/><path fill="#d32f2f" fill-rule="nonzero" stroke="#ffffff" stroke-width="0.8" stroke-linecap="butt" stroke-linejoin="miter" stroke-miterlimit="4" transform="translate(25.8 80.2)" d="M 0 0m 0 3c 0 -1.66 1.34 -3 3 -3c 1.66 0 3 1.34 3 3c 0 1.66 -1.34 3 -3 3c -1.66 0 -3 -1.34 -3 -3"/><path fill="#d32f2f" fill-rule="nonzero" stroke="#ffffff" stroke-width="0.8" stroke-linecap="butt" stroke-linejoin="miter" stroke-miterlimit="4" transform="translate(18.6 72.92)" d="M 0 0m 0 3c 0 -1.66 1.34 -3 3 -3c 1.66 0 3 1.34 3 3c 0 1.66 -1.34 3 -3 3c -1.66 0 -3 -1.34 -3 -3"/><path fill="#d32f2f" fill-rule="nonzero" stroke="#ffffff" stroke-width="0.8" stroke-linecap="butt" stroke-linejoin="miter" stroke-miterlimit="4" transform="translate(28.2 76.04)" d="M 0 0m 0 3c 0 -1.66 1.34 -3 3 -3c 1.66 0 3 1.34 3 3c 0 1.66 -1.34 3 -3 3c -1.66 0 -3 -1.34 -3 -3"/><path fill="#d32f2f" fill-rule="nonzero" stroke="#ffffff" stroke-width="0.8" stroke-linecap="butt" stroke-linejoin="miter" stroke-miterlimit="4" transform="translate(23.4 65.64)" d="M 0 0m 0 3c 0 -1.66 1.34 -3 3 -3c 1.66 0 3 1.34 3 3c 0 1.66 -1.34 3 -3 3c -1.66 0 -3 -1.34 -3 -3"/></g></g><path fill="#444444" fill-rule="nonzero" transform="translate(27 2.5)" d="M 0 0m 0 1c 0 -0.55 0.45 -1 1 -1h 10c 0.55 0 1 0.45 1 1c 0 0.55 -0.45 1 -1 1h -10c -0.55 0 -1 -0.45 -1 -1Z "/></g><g transform="matrix(1 0 0 -1 42.9 194.73)"><use xlink:href="#gE2A25F50A267C694CDF111B71BF5E3FF" x="0" y="0" fill="#5f5b63" fill-rule="nonzero"/><use xlink:href="#g2350E07ACADAE7E7DB89E1F3AC2DA2FB" x="5.06" y="0" fill="#5f5b63" fill-rule="nonzero"/><use xlink:href="#g48994B74641F76E59797784A3670D6EA" x="8" y="0" fill="#5f5b63" fill-rule="nonzero"/><use xlink:href="#g868705A70AA91C5D436F3C9A1AC2C51E" x="12.87" y="0" fill="#5f5b63" fill-rule="nonzero"/><use xlink:href="#g89FB66E200BAC8CAB9CBA5E01F735BDE" x="18.9" y="0" fill="#5f5b63" fill-rule="nonzero"/><use xlink:href="#gB4446AE9370EE08D6B2EB9E8B3587DCF" x="23.79" y="0" fill="#5f5b63" fill-rule="nonzero"/><use xlink:href="#g89FB66E200BAC8CAB9CBA5E01F735BDE" x="28.14" y="0" fill="#5f5b63" fill-rule="nonzero"/><use xlink:href="#g7B058164403577C393BA30DB58030D90" x="35.22" y="0" fill="#5f5b63" fill-rule="nonzero"/><use xlink:href="#g48994B74641F76E59797784A3670D6EA" x="40.11" y="0" fill="#5f5b63" fill-rule="nonzero"/><use xlink:href="#g8FB6963F20401640CC401405E3F870DB" x="44.98" y="0" fill="#5f5b63" fill-rule="nonzero"/><use xlink:href="#gF1CA52E856953CE49C00C660029E7121" x="47.07" y="0" fill="#5f5b63" fill-rule="nonzero"/><use xlink:href="#g3595138916104965837A680ABA077DA9" x="51.77" y="0" fill="#5f5b63" fill-rule="nonzero"/><use xlink:href="#g742F1667A3DB2829ACF52C5C15D76283" x="54.65" y="0" fill="#5f5b63" fill-rule="nonzero"/></g><g transform="translate(113 125.52)"><path fill="none" stroke="#1565c0" stroke-width="1.6" stroke-linecap="butt" stroke-linejoin="miter" stroke-miterlimit="4" transform="translate(0 4)" d="M 0 0h 22"/><path fill="#1565c0" fill-rule="nonzero" transform="translate(20)" d="M 0 0l 6 4l -6 4Z "/></g><g transform="translate(147 64.31)"><path fill="#1c1b1f" fill-rule="nonzero" d="M 0 0m 0 9c 0 -4.97 4.03 -9 9 -9h 48c 4.97 0 9 4.03 9 9v 100c 0 4.97 -4.03 9 -9 9h -48c -4.97 0 -9 -4.03 -9 -9Z "/><g transform="translate(3 7)" clip-path="url(#cEA8DC819EBB5E6D527AE568BC64E4CAE)"><g><g clip-path="url(#cE0003B1D90883F6A55E8FCA1BAA06C30)"><path fill="#eef3e6" fill-rule="nonzero" d="M 0 0v 104h 60v -104Z "/><path fill="#f5d4a2" fill-rule="nonzero" transform="translate(3 8.32)" d="M 0 0m 0 0.7c 0 -0.39 0.31 -0.7 0.7 -0.7h 23.8c 0.39 0 0.7 0.31 0.7 0.7v 36.04c 0 0.39 -0.31 0.7 -0.7 0.7h -23.8c -0.39 0 -0.7 -0.31 -0.7 -0.7Z "/><path fill="none" stroke="#9e835a" stroke-width="0.6" stroke-linecap="butt" stroke-linejoin="miter" stroke-miterlimit="4" transform="translate(3 8.32)" d="M 0 0m 0.7 0h 23.8c 0.39 0 0.7 0.31 0.7 0.7v 36.04c 0 0.39 -0.31 0.7 -0.7 0.7h -23.8c -0.39 0 -0.7 -0.31 -0.7 -0.7v -36.04c 0 -0.39 0.31 -0.7 0.7 -0.7"/><path fill="#f5d4a2" fill-rule="nonzero" transform="translate(31.2 8.32)" d="M 0 0m 0 0.7c 0 -0.39 0.31 -0.7 0.7 -0.7h 23.8c 0.39 0 0.7 0.31 0.7 0.7v 36.04c 0 0.39 -0.31 0.7 -0.7 0.7h -23.8c -0.39 0 -0.7 -0.31 -0.7 -0.7Z "/><path fill="none" stroke="#9e835a" stroke-width="0.6" stroke-linecap="butt" stroke-linejoin="miter" stroke-miterlimit="4" transform="translate(31.2 8.32)" d="M 0 0m 0.7 0h 23.8c 0.39 0 0.7 0.31 0.7 0.7v 36.04c 0 0.39 -0.31 0.7 -0.7 0.7h -23.8c -0.39 0 -0.7 -0.31 -0.7 -0.7v -36.04c 0 -0.39 0.31 -0.7 0.7 -0.7"/><path fill="#f5d4a2" fill-rule="nonzero" transform="translate(3 55.12)" d="M 0 0m 0 0.7c 0 -0.39 0.31 -0.7 0.7 -0.7h 23.8c 0.39 0 0.7 0.31 0.7 0.7v 36.04c 0 0.39 -0.31 0.7 -0.7 0.7h -23.8c -0.39 0 -0.7 -0.31 -0.7 -0.7Z "/><path fill="none" stroke="#9e835a" stroke-width="0.6" stroke-linecap="butt" stroke-linejoin="miter" stroke-miterlimit="4" transform="translate(3 55.12)" d="M 0 0m 0.7 0h 23.8c 0.39 0 0.7 0.31 0.7 0.7v 36.04c 0 0.39 -0.31 0.7 -0.7 0.7h -23.8c -0.39 0 -0.7 -0.31 -0.7 -0.7v -36.04c 0 -0.39 0.31 -0.7 0.7 -0.7"/><path fill="#f5d4a2" fill-rule="nonzero" transform="translate(31.2 55.12)" d="M 0 0m 0 0.7c 0 -0.39 0.31 -0.7 0.7 -0.7h 23.8c 0.39 0 0.7 0.31 0.7 0.7v 36.04c 0 0.39 -0.31 0.7 -0.7 0.7h -23.8c -0.39 0 -0.7 -0.31 -0.7 -0.7Z "/><path fill="none" stroke="#9e835a" stroke-width="0.6" stroke-linecap="butt" stroke-linejoin="miter" stroke-miterlimit="4" transform="translate(31.2 55.12)" d="M 0 0m 0.7 0h 23.8c 0.39 0 0.7 0.31 0.7 0.7v 36.04c 0 0.39 -0.31 0.7 -0.7 0.7h -23.8c -0.39 0 -0.7 -0.31 -0.7 -0.7v -36.04c 0 -0.39 0.31 -0.7 0.7 -0.7"/><path fill="none" stroke="#8d6e63" stroke-width="2" stroke-linecap="round" stroke-linejoin="miter" stroke-miterlimit="4" d="M 0 0m -2 81.12c 20 -60.32 38 22.88 64 -49.92"/></g><path fill="#1565c0" fill-rule="nonzero" stroke="#ffffff" stroke-width="1.2" stroke-linecap="butt" stroke-linejoin="miter" stroke-miterlimit="4" transform="translate(9 20)" d="M 0 0m 0 6c 0 -3.31 2.69 -6 6 -6c 3.31 0 6 2.69 6 6c 0 3.31 -2.69 6 -6 6c -3.31 0 -6 -2.69 -6 -6"/><g transform="matrix(1 0 0 -1 13.23 28.1)"><use xlink:href="#gCFB30384ECE30BC59AB4158E057E3046" x="0" y="0" fill="#ffffff" fill-rule="nonzero"/></g><path fill="#1565c0" fill-rule="nonzero" stroke="#ffffff" stroke-width="1.2" stroke-linecap="butt" stroke-linejoin="miter" stroke-miterlimit="4" transform="translate(36.7 26.78)" d="M 0 0m 0 6.5c 0 -3.59 2.91 -6.5 6.5 -6.5c 3.59 0 6.5 2.91 6.5 6.5c 0 3.59 -2.91 6.5 -6.5 6.5c -3.59 0 -6.5 -2.91 -6.5 -6.5"/><g transform="matrix(1 0 0 -1 41.43 35.38)"><use xlink:href="#gE3D54ADB98C54443D93EAB9E81440DB0" x="0" y="0" fill="#ffffff" fill-rule="nonzero"/></g><path fill="#1565c0" fill-rule="nonzero" stroke="#ffffff" stroke-width="1.2" stroke-linecap="butt" stroke-linejoin="miter" stroke-miterlimit="4" transform="translate(19.5 68.42)" d="M 0 0m 0 7.5c 0 -4.14 3.36 -7.5 7.5 -7.5c 4.14 0 7.5 3.36 7.5 7.5c 0 4.14 -3.36 7.5 -7.5 7.5c -4.14 0 -7.5 -3.36 -7.5 -7.5"/><g transform="matrix(1 0 0 -1 25.23 78.02)"><use xlink:href="#gB4053BBE3656A21A98B0459C49D40796" x="0" y="0" fill="#ffffff" fill-rule="nonzero"/></g></g></g><path fill="#444444" fill-rule="nonzero" transform="translate(27 2.5)" d="M 0 0m 0 1c 0 -0.55 0.45 -1 1 -1h 10c 0.55 0 1 0.45 1 1c 0 0.55 -0.45 1 -1 1h -10c -0.55 0 -1 -0.45 -1 -1Z "/></g><g transform="matrix(1 0 0 -1 162.62 194.73)"><use xlink:href="#gE2A25F50A267C694CDF111B71BF5E3FF" x="0" y="0" fill="#5f5b63" fill-rule="nonzero"/><use xlink:href="#g87BDB0B3755CA05DA07912C63561A158" x="5.06" y="0" fill="#5f5b63" fill-rule="nonzero"/><use xlink:href="#g95B5F0B7B0F7BB988F2069B04172065" x="7.11" y="0" fill="#5f5b63" fill-rule="nonzero"/><use xlink:href="#g742F1667A3DB2829ACF52C5C15D76283" x="11.81" y="0" fill="#5f5b63" fill-rule="nonzero"/><use xlink:href="#g3595138916104965837A680ABA077DA9" x="15.36" y="0" fill="#5f5b63" fill-rule="nonzero"/><use xlink:href="#gB4446AE9370EE08D6B2EB9E8B3587DCF" x="18.23" y="0" fill="#5f5b63" fill-rule="nonzero"/><use xlink:href="#g2350E07ACADAE7E7DB89E1F3AC2DA2FB" x="22.59" y="0" fill="#5f5b63" fill-rule="nonzero"/><use xlink:href="#gB4446AE9370EE08D6B2EB9E8B3587DCF" x="25.53" y="0" fill="#5f5b63" fill-rule="nonzero"/><use xlink:href="#g89FB66E200BAC8CAB9CBA5E01F735BDE" x="29.88" y="0" fill="#5f5b63" fill-rule="nonzero"/></g><defs><symbol id="g42606A164BBDE12F2F88999D3A4465BC" overflow="visible"><path d="M 0 0m 5.3 6.57h -2.12v -6.57h -0.86v 6.57h -2.12v 0.78h 5.1v -0.78Z "/></symbol><symbol id="gC38A35953CED98AC7A803C7A891A43A1" overflow="visible"><path d="M 0 0m 5.21 0h -0.84v 3.02q 0 0.82 -0.31 1.23q -0.31 0.41 -0.92 0.41q -0.62 0 -1.04 -0.47q -0.42 -0.47 -0.42 -1.22v -2.97h -0.84v 7.77h 0.84v -3.39h 0.02q 0.3 0.5 0.73 0.75q 0.43 0.25 0.99 0.25q 0.89 0 1.33 -0.53q 0.44 -0.53 0.44 -1.6v -3.24Z "/></symbol><symbol id="gF749984C29173DFE59167D8D19C90F70" overflow="visible"><path d="M 0 0m 5.07 2.44h -3.71q 0.02 -0.89 0.47 -1.37q 0.45 -0.48 1.26 -0.48q 0.35 0 0.71 0.11q 0.36 0.11 0.7 0.34l 0.39 -0.6q -0.45 -0.29 -0.89 -0.42q -0.45 -0.13 -0.98 -0.13q -1.19 0 -1.86 0.71q -0.67 0.71 -0.67 1.97q -0.01 1.27 0.67 2.04q 0.67 0.77 1.75 0.77q 1.03 0 1.59 -0.67q 0.57 -0.67 0.57 -1.85v -0.42Z m -0.86 0.69q -0.01 0.73 -0.35 1.14q -0.35 0.41 -0.96 0.41q -0.6 0 -1.02 -0.42q -0.42 -0.42 -0.51 -1.13h 2.84Z "/></symbol><symbol id="g77C10A9EBD994F22B2535449062BCA69" overflow="visible"><path d="M 0 0m 8.31 0h -0.84v 3.01q 0 0.87 -0.27 1.26q -0.27 0.39 -0.9 0.39q -0.54 0 -0.92 -0.49q -0.38 -0.49 -0.38 -1.18v -2.99h -0.84v 3.12q 0 0.77 -0.3 1.16q -0.3 0.39 -0.9 0.39q -0.55 0 -0.91 -0.46q -0.36 -0.46 -0.36 -1.21v -2.99h -0.84v 5.25h 0.84v -0.83h 0.02q 0.28 0.48 0.69 0.72q 0.41 0.24 0.94 0.24q 0.54 0 0.94 -0.3q 0.4 -0.3 0.55 -0.79q 0.29 0.54 0.73 0.82q 0.44 0.27 1.02 0.27q 0.87 0 1.3 -0.53q 0.43 -0.53 0.43 -1.6v -3.24Z "/></symbol><symbol id="g1EF0961E83BF4F998394783553F410DB" overflow="visible"><path d="M 0 0m 4.57 0h -0.84v 0.82h -0.02q -0.27 -0.47 -0.67 -0.71q -0.4 -0.24 -0.93 -0.24q -0.74 0 -1.19 0.43q -0.46 0.43 -0.46 1.14q 0 0.67 0.46 1.11q 0.46 0.44 1.31 0.56l 1.5 0.2v 0.12q 0 0.66 -0.31 0.94q -0.31 0.28 -0.82 0.28q -0.41 0 -0.79 -0.15q -0.38 -0.15 -0.71 -0.47l -0.49 0.51q 0.44 0.43 0.94 0.63q 0.5 0.2 1.11 0.2q 0.95 0 1.44 -0.49q 0.48 -0.49 0.48 -1.47v -3.41Z m -0.84 2.13v 0.52l -1.27 -0.17q -0.58 -0.08 -0.87 -0.29q -0.29 -0.21 -0.29 -0.66q 0 -0.47 0.27 -0.72q 0.27 -0.25 0.67 -0.25q 0.68 0 1.08 0.45q 0.4 0.45 0.4 1.13Z "/></symbol><symbol id="gC2804DD294125BA68DBFA95B33154ADB" overflow="visible"><path d="M 0 0m 1.71 0.76h -0.02v -3.17h -0.84v 7.66h 0.84v -0.92h 0.02q 0.31 0.52 0.77 0.78q 0.45 0.26 1.05 0.26q 1.02 0 1.58 -0.7q 0.57 -0.7 0.57 -1.89q 0 -1.32 -0.64 -2.11q -0.64 -0.79 -1.75 -0.79q -0.51 0 -0.9 0.22q -0.39 0.22 -0.67 0.66Z m -0.02 2.12v -0.73q 0 -0.65 0.42 -1.1q 0.42 -0.45 1.07 -0.45q 0.76 0 1.2 0.58q 0.43 0.58 0.43 1.63q 0 0.88 -0.41 1.37q -0.41 0.5 -1.1 0.5q -0.73 0 -1.18 -0.51q -0.45 -0.51 -0.45 -1.28Z "/></symbol><symbol id="g64DF020AAF5EE63E71362ECFFBCAB59E" overflow="visible"><path d="M 0 0m 5.21 0h -0.84v 2.99q 0 0.84 -0.31 1.25q -0.31 0.42 -0.92 0.42q -0.63 0 -1.04 -0.47q -0.41 -0.47 -0.41 -1.2v -2.99h -0.84v 5.25h 0.84v -0.87h 0.02q 0.3 0.5 0.73 0.75q 0.43 0.25 0.99 0.25q 0.86 0 1.32 -0.56q 0.46 -0.56 0.46 -1.61v -3.21Z "/></symbol><symbol id="gDBBC31EAE27CB31C5A243F73BDBBF6A1" overflow="visible"><path d="M 0 0m 5.33 0.28q 0 -1.38 -0.7 -2.07q -0.7 -0.69 -1.93 -0.69q -0.54 0 -1 0.1q -0.46 0.1 -0.96 0.33l 0.31 0.65q 0.41 -0.19 0.8 -0.28q 0.39 -0.09 0.84 -0.09q 0.84 0 1.32 0.48q 0.48 0.48 0.48 1.45v 0.71h -0.02q -0.3 -0.5 -0.75 -0.75q -0.45 -0.25 -1.06 -0.25q -0.98 0 -1.58 0.7q -0.6 0.7 -0.6 1.88q 0 1.29 0.66 2.1q 0.66 0.81 1.75 0.81q 0.53 0 0.93 -0.21q 0.39 -0.21 0.65 -0.64h 0.02v 0.73h 0.84v -4.97Z m -0.84 2.09v 0.77q 0 0.63 -0.42 1.07q -0.42 0.45 -1.05 0.45q -0.77 0 -1.22 -0.53q -0.44 -0.53 -0.44 -1.62q 0 -0.93 0.41 -1.43q 0.41 -0.5 1.13 -0.5q 0.71 0 1.15 0.5q 0.44 0.5 0.44 1.29Z "/></symbol><symbol id="g3631438550FEE66F0AF32A2886249379" overflow="visible"><path d="M 0 0m 1.28 6.51q -0.26 0 -0.43 0.17q -0.17 0.17 -0.17 0.42q 0 0.25 0.17 0.42q 0.17 0.17 0.43 0.17q 0.26 0 0.43 -0.17q 0.17 -0.17 0.17 -0.42q 0 -0.25 -0.17 -0.42q -0.17 -0.17 -0.43 -0.17Z m 0.41 -6.51h -0.84v 5.25h 0.84v -5.25Z "/></symbol><symbol id="gBA2CE453ACB3A3B123FED4837718DE30" overflow="visible"><path d="M 0 0m 3.05 -0.12q -1.16 0 -1.86 0.74q -0.69 0.74 -0.69 1.95q 0 1.32 0.72 2.06q 0.72 0.74 1.96 0.75q 1.17 0.01 1.83 -0.72q 0.66 -0.73 0.66 -2q 0 -1.26 -0.71 -2.01q -0.71 -0.75 -1.9 -0.75Z m 0.06 0.71q 0.82 0 1.25 0.53q 0.44 0.53 0.44 1.5q 0 0.99 -0.44 1.52q -0.44 0.53 -1.25 0.53q -0.81 0 -1.28 -0.55q -0.47 -0.55 -0.47 -1.52q 0 -0.93 0.48 -1.47q 0.48 -0.54 1.28 -0.54Z "/></symbol><symbol id="gA3A62561D0A211938AD1C94D554FF12" overflow="visible"><path d="M 0 0m 4.98 5.25l -2.09 -5.25h -0.83l -1.99 5.25h 0.92l 1.33 -3.81q 0.07 -0.21 0.12 -0.39q 0.05 -0.18 0.07 -0.34h 0.02q 0.03 0.2 0.07 0.38q 0.04 0.18 0.1 0.34l 1.39 3.83h 0.89Z "/></symbol><symbol id="gBE57D1B3C12EC8743181E363878D0BCF" overflow="visible"><path d="M 0 0m 4.47 0.89q -0.29 -0.51 -0.74 -0.76q -0.45 -0.25 -1.06 -0.25q -0.99 0 -1.58 0.7q -0.59 0.7 -0.59 1.92q 0 1.3 0.66 2.09q 0.66 0.78 1.75 0.78q 0.54 0 0.94 -0.21q 0.39 -0.21 0.64 -0.64h 0.02v 3.25h 0.84v -7.77h -0.84v 0.89h -0.02Z m -3.12 1.65q 0 -0.91 0.42 -1.43q 0.42 -0.53 1.14 -0.53q 0.71 0 1.14 0.51q 0.44 0.51 0.44 1.28v 0.77q 0 0.64 -0.42 1.08q -0.42 0.44 -1.06 0.44q -0.77 0 -1.21 -0.56q -0.44 -0.56 -0.44 -1.56Z "/></symbol><symbol id="gDF916867704FF132A5A02B3A0DFD7873" overflow="visible"><path d="M 0 0m 3.36 7.09q -0.14 0.05 -0.26 0.07q -0.12 0.02 -0.24 0.02q -0.43 0 -0.64 -0.23q -0.21 -0.23 -0.21 -0.68v -1.02h 1.23v -0.72h -1.23v -4.53h -0.84v 4.53h -0.9v 0.72h 0.9v 1.06q 0 0.74 0.46 1.16q 0.46 0.42 1.25 0.42q 0.19 0 0.35 -0.03q 0.16 -0.03 0.33 -0.08l -0.2 -0.69Z "/></symbol><symbol id="gDC1977A680C860675CED032FA0F73592" overflow="visible"><path d="M 0 0m 3.44 4.53q -0.1 0.03 -0.17 0.04q -0.08 0.01 -0.19 0.01q -0.64 0 -1.01 -0.55q -0.37 -0.55 -0.37 -1.37v -2.68h -0.84v 5.25h 0.84v -1.04h 0.02q 0.18 0.55 0.55 0.84q 0.37 0.29 0.85 0.29q 0.16 0 0.27 -0.02q 0.11 -0.02 0.2 -0.05l -0.14 -0.75Z "/></symbol><symbol id="gC2CD3B0938A8B1CB00BD610D1F1A63BF" overflow="visible"><path d="M 0 0m 4.7 6.57h -2.87v -2.54h 2.66v -0.77h -2.66v -3.26h -0.86v 7.35h 3.73v -0.78Z "/></symbol><symbol id="g5F8B10F212DDA16F3DE7C302CA5727F0" overflow="visible"><path d="M 0 0m 0.85 0v 7.77h 0.84v -7.77h -0.84Z "/></symbol><symbol id="gAAE6AEC990AE50FFC710417316A29EDC" overflow="visible"><path d="M 0 0m 5.1 0h -0.84v 0.83h -0.02q -0.26 -0.48 -0.67 -0.72q -0.41 -0.24 -0.95 -0.24q -0.94 0 -1.41 0.56q -0.47 0.56 -0.47 1.68v 3.14h 0.84v -3q 0 -0.83 0.32 -1.25q 0.32 -0.42 0.95 -0.42q 0.62 0 1.01 0.45q 0.4 0.45 0.4 1.19v 3.02h 0.84v -5.25Z "/></symbol><symbol id="g92232EE9D27A3486FA8F460E8AB70B94" overflow="visible"><path d="M 0 0m 3.35 0.06q -0.22 -0.09 -0.42 -0.13q -0.21 -0.04 -0.47 -0.04q -0.63 0 -0.98 0.37q -0.36 0.37 -0.36 1.08v 3.19h -0.9v 0.72h 0.9v 1.28l 0.84 0.27v -1.55h 1.32v -0.72h -1.32v -3.1q 0 -0.45 0.16 -0.65q 0.16 -0.2 0.48 -0.2q 0.15 0 0.3 0.04q 0.14 0.04 0.24 0.08l 0.21 -0.64Z "/></symbol><symbol id="gC4B68BD8515DD5C731F47370A2154FAF" overflow="visible"><path d="M 0 0m 8.46 0h -0.86v 4.93q 0 0.29 0.02 0.65q 0.02 0.36 0.05 0.78h -0.02q -0.06 -0.25 -0.12 -0.43q -0.05 -0.18 -0.11 -0.29l -2.51 -5.65h -0.42l -2.51 5.61q -0.05 0.12 -0.11 0.31q -0.06 0.19 -0.11 0.44h -0.02q 0.02 -0.22 0.03 -0.58q 0.01 -0.36 0.01 -0.86v -4.92h -0.83v 7.35h 1.14l 2.26 -5.13q 0.13 -0.29 0.22 -0.51q 0.08 -0.22 0.12 -0.37h 0.03q 0.11 0.3 0.2 0.53q 0.09 0.23 0.15 0.37l 2.3 5.11h 1.08v -7.35Z "/></symbol><symbol id="g4370CCC8FD7315F71D953FBA4C57201B" overflow="visible"><path d="M 0 0m 4.78 0h -3.81v 7.35h 0.86v -6.57h 2.95v -0.78Z "/></symbol><symbol id="gF61BD48F5F23DD3B1DD432EE2771C50D" overflow="visible"><path d="M 0 0m 1.71 0.68h -0.02v -0.68h -0.84v 7.77h 0.84v -3.45h 0.02q 0.31 0.52 0.77 0.78q 0.45 0.26 1.05 0.26q 1.01 0 1.58 -0.7q 0.57 -0.7 0.57 -1.89q 0 -1.32 -0.64 -2.11q -0.64 -0.79 -1.75 -0.79q -0.52 0 -0.91 0.2q -0.39 0.2 -0.66 0.6Z m -0.02 2.2v -0.73q 0 -0.65 0.42 -1.1q 0.42 -0.45 1.07 -0.45q 0.76 0 1.2 0.58q 0.43 0.58 0.43 1.63q 0 0.88 -0.41 1.37q -0.41 0.5 -1.1 0.5q -0.73 0 -1.18 -0.51q -0.45 -0.51 -0.45 -1.28Z "/></symbol><symbol id="gE0FC4C98E838622BB29CF3347C9B126F" overflow="visible"><path d="M 0 0m 1.14 -0.11q -0.25 0 -0.42 0.17q -0.17 0.17 -0.17 0.41q 0 0.24 0.17 0.41q 0.17 0.17 0.42 0.17q 0.25 0 0.42 -0.17q 0.17 -0.17 0.17 -0.41q 0 -0.24 -0.17 -0.41q -0.17 -0.17 -0.42 -0.17Z "/></symbol><symbol id="g64BEBE3E4745A7712FD834F26025DFBA" overflow="visible"><path d="M 0 0m 1.83 2.7v -2.7h -0.86v 7.35h 2.02q 1.18 0 1.83 -0.58q 0.65 -0.58 0.65 -1.65q 0 -1.06 -0.72 -1.74q -0.72 -0.68 -1.95 -0.68h -0.97Z m 0 3.88v -3.1h 0.9q 0.89 0 1.36 0.42q 0.47 0.42 0.47 1.18q 0 0.75 -0.43 1.12q -0.43 0.37 -1.29 0.37h -1.01Z "/></symbol><symbol id="gF790F2E9E71E9785B32EEAA39B7A0FFB" overflow="visible"><path d="M 0 0m 4.54 0.31q -0.36 -0.23 -0.73 -0.33q -0.36 -0.11 -0.79 -0.11q -1.11 0 -1.82 0.69q -0.71 0.69 -0.71 1.95q 0 1.28 0.72 2.07q 0.72 0.79 1.97 0.79q 0.41 0 0.77 -0.1q 0.37 -0.1 0.74 -0.32l -0.35 -0.62q -0.29 0.16 -0.57 0.24q -0.28 0.08 -0.62 0.08q -0.87 0 -1.33 -0.58q -0.46 -0.58 -0.46 -1.47q 0 -0.98 0.48 -1.5q 0.48 -0.52 1.25 -0.52q 0.25 0 0.53 0.08q 0.27 0.08 0.55 0.25l 0.37 -0.6Z "/></symbol><symbol id="g9E78CDB831372CE2DF11E0CBFABDCE37" overflow="visible"><path d="M 0 0m 0.36 0.39l 0.4 0.65q 0.34 -0.23 0.67 -0.34q 0.33 -0.12 0.71 -0.12q 0.54 0 0.82 0.2q 0.28 0.2 0.28 0.6q 0 0.32 -0.25 0.55q -0.25 0.22 -0.78 0.36q -0.98 0.25 -1.35 0.63q -0.36 0.38 -0.36 0.94q 0 0.65 0.49 1.08q 0.49 0.43 1.36 0.43q 0.42 0 0.8 -0.11q 0.38 -0.11 0.77 -0.37l -0.37 -0.64q -0.36 0.23 -0.64 0.32q -0.28 0.09 -0.58 0.09q -0.51 0 -0.77 -0.19q -0.27 -0.19 -0.27 -0.54q 0 -0.35 0.27 -0.53q 0.27 -0.18 0.88 -0.34q 0.8 -0.22 1.2 -0.6q 0.4 -0.39 0.4 -1.01q 0 -0.73 -0.52 -1.15q -0.52 -0.42 -1.41 -0.42q -0.48 0 -0.93 0.13q -0.44 0.13 -0.82 0.38Z "/></symbol><symbol id="g79DC8A36EA5D175ABA674FEA9686329" overflow="visible"><path d="M 0 0m 5.21 0h -1.18l -2.32 2.52h -0.02v -2.52h -0.84v 7.77h 0.84v -4.93h 0.02l 2.2 2.4h 1.1l -2.44 -2.53l 2.62 -2.72Z "/></symbol><symbol id="gE2A25F50A267C694CDF111B71BF5E3FF" overflow="visible"><path d="M 0 0m 4.73 0.29q -0.41 -0.2 -0.8 -0.29q -0.39 -0.09 -0.85 -0.09q -1.27 0 -1.98 0.77q -0.71 0.77 -0.71 2.03q 0 1.36 0.79 2.18q 0.79 0.82 2.06 0.82q 0.41 0 0.76 -0.08q 0.35 -0.08 0.72 -0.24l -0.26 -0.59q -0.3 0.14 -0.59 0.2q -0.29 0.06 -0.62 0.06q -0.96 0 -1.53 -0.62q -0.57 -0.62 -0.57 -1.69q 0 -1.01 0.54 -1.61q 0.54 -0.59 1.45 -0.59q 0.33 0 0.65 0.08q 0.32 0.08 0.65 0.24l 0.28 -0.58Z "/></symbol><symbol id="g2350E07ACADAE7E7DB89E1F3AC2DA2FB" overflow="visible"><path d="M 0 0m 2.74 3.5q -0.08 0.03 -0.15 0.04q -0.07 0.01 -0.16 0.01q -0.5 0 -0.78 -0.42q -0.28 -0.42 -0.28 -1.06v -2.07h -0.7v 4.1h 0.7v -0.81h 0.02q 0.14 0.43 0.43 0.66q 0.29 0.23 0.66 0.23q 0.12 0 0.21 -0.01q 0.09 -0.01 0.16 -0.04l -0.11 -0.62Z "/></symbol><symbol id="g48994B74641F76E59797784A3670D6EA" overflow="visible"><path d="M 0 0m 2.41 -0.1q -0.92 0 -1.46 0.58q -0.55 0.58 -0.55 1.53q 0 1.03 0.56 1.61q 0.56 0.58 1.53 0.58q 0.92 0 1.44 -0.57q 0.52 -0.57 0.52 -1.56q 0 -0.99 -0.56 -1.58q -0.56 -0.59 -1.5 -0.59Z m 0.05 0.58q 0.62 0 0.96 0.41q 0.34 0.41 0.34 1.16q 0 0.76 -0.34 1.17q -0.34 0.41 -0.96 0.41q -0.62 0 -0.98 -0.42q -0.36 -0.42 -0.36 -1.17q 0 -0.72 0.36 -1.13q 0.36 -0.41 0.98 -0.41Z "/></symbol><symbol id="g868705A70AA91C5D436F3C9A1AC2C51E" overflow="visible"><path d="M 0 0m 5.9 4.1l -1.23 -4.1h -0.72l -0.83 2.9q -0.03 0.11 -0.04 0.19q -0.01 0.08 -0.02 0.19h -0.02q -0.01 -0.1 -0.03 -0.18q -0.02 -0.08 -0.06 -0.2l -0.9 -2.9h -0.7l -1.23 4.1h 0.73l 0.83 -3.06q 0.02 -0.07 0.03 -0.16q 0.01 -0.09 0.02 -0.21h 0.03q 0.01 0.09 0.02 0.19q 0.02 0.1 0.05 0.2l 0.93 3.05h 0.64l 0.83 -3.06q 0.02 -0.07 0.03 -0.16q 0.01 -0.09 0.03 -0.21h 0.03q 0 0.08 0.02 0.18q 0.02 0.09 0.05 0.2l 0.81 3.06h 0.68Z "/></symbol><symbol id="g89FB66E200BAC8CAB9CBA5E01F735BDE" overflow="visible"><path d="M 0 0m 3.5 0.69q -0.23 -0.39 -0.58 -0.59q -0.35 -0.2 -0.82 -0.2q -0.77 0 -1.24 0.55q -0.46 0.55 -0.46 1.5q 0 1.02 0.51 1.63q 0.51 0.61 1.36 0.61q 0.42 0 0.73 -0.17q 0.3 -0.17 0.5 -0.5h 0.02v 2.39h 0.7v -5.92h -0.7v 0.69h -0.02Z m -2.39 1.3q 0 -0.7 0.32 -1.1q 0.32 -0.4 0.87 -0.4q 0.54 0 0.88 0.39q 0.33 0.39 0.33 0.99v 0.59q 0 0.49 -0.32 0.83q -0.32 0.34 -0.82 0.34q -0.59 0 -0.93 -0.43q -0.34 -0.43 -0.34 -1.2Z "/></symbol><symbol id="gB4446AE9370EE08D6B2EB9E8B3587DCF" overflow="visible"><path d="M 0 0m 4 1.89h -2.88q 0.02 -0.68 0.36 -1.04q 0.34 -0.37 0.97 -0.37q 0.27 0 0.55 0.08q 0.28 0.08 0.57 0.27l 0.32 -0.48q -0.35 -0.23 -0.71 -0.34q -0.36 -0.11 -0.79 -0.11q -0.93 0 -1.45 0.55q -0.52 0.55 -0.52 1.54q 0 0.99 0.53 1.59q 0.53 0.6 1.37 0.6q 0.8 0 1.25 -0.52q 0.45 -0.52 0.45 -1.45v -0.33Z m -0.7 0.55q 0 0.57 -0.27 0.88q -0.27 0.31 -0.73 0.31q -0.46 0 -0.78 -0.32q -0.32 -0.32 -0.39 -0.87h 2.17Z "/></symbol><symbol id="g7B058164403577C393BA30DB58030D90" overflow="visible"><path d="M 0 0m 1.39 0.59h -0.02v -2.43h -0.7v 5.94h 0.7v -0.72h 0.02q 0.24 0.41 0.6 0.61q 0.36 0.2 0.82 0.2q 0.79 0 1.23 -0.55q 0.44 -0.55 0.44 -1.48q 0 -1.03 -0.5 -1.65q -0.5 -0.62 -1.36 -0.62q -0.4 0 -0.71 0.17q -0.31 0.17 -0.52 0.51Z m -0.02 1.65v -0.55q 0 -0.51 0.32 -0.86q 0.32 -0.35 0.83 -0.35q 0.58 0 0.92 0.45q 0.33 0.45 0.33 1.25q 0 0.68 -0.31 1.06q -0.31 0.38 -0.84 0.38q -0.56 0 -0.9 -0.39q -0.34 -0.39 -0.34 -0.98Z "/></symbol><symbol id="g8FB6963F20401640CC401405E3F870DB" overflow="visible"><path d="M 0 0m 1.03 4.97q -0.21 0 -0.34 0.14q -0.14 0.14 -0.14 0.33q 0 0.2 0.14 0.34q 0.14 0.14 0.34 0.14q 0.21 0 0.34 -0.14q 0.14 -0.14 0.14 -0.34q 0 -0.2 -0.14 -0.33q -0.14 -0.14 -0.34 -0.14Z m 0.34 -4.97h -0.7v 4.1h 0.7v -4.1Z "/></symbol><symbol id="gF1CA52E856953CE49C00C660029E7121" overflow="visible"><path d="M 0 0m 4.11 0h -0.7v 2.34q 0 0.64 -0.23 0.96q -0.23 0.32 -0.7 0.32q -0.48 0 -0.8 -0.36q -0.32 -0.36 -0.32 -0.91v -2.34h -0.7v 4.1h 0.7v -0.68h 0.02q 0.23 0.39 0.57 0.58q 0.34 0.19 0.78 0.19q 0.67 0 1.03 -0.43q 0.36 -0.43 0.36 -1.25v -2.51Z "/></symbol><symbol id="g3595138916104965837A680ABA077DA9" overflow="visible"><path d="M 0 0m 2.68 0.05q -0.17 -0.07 -0.34 -0.1q -0.17 -0.03 -0.37 -0.03q -0.5 0 -0.79 0.29q -0.28 0.29 -0.28 0.86v 2.46h -0.7v 0.58h 0.7v 0.94l 0.7 0.22v -1.16h 1.03v -0.58h -1.03v -2.38q 0 -0.35 0.13 -0.5q 0.13 -0.15 0.38 -0.15q 0.12 0 0.23 0.03q 0.11 0.03 0.19 0.07l 0.17 -0.52Z "/></symbol><symbol id="g742F1667A3DB2829ACF52C5C15D76283" overflow="visible"><path d="M 0 0m 0.31 0.31l 0.32 0.52q 0.26 -0.17 0.51 -0.26q 0.26 -0.09 0.56 -0.09q 0.41 0 0.62 0.15q 0.21 0.15 0.21 0.45q 0 0.25 -0.19 0.42q -0.19 0.17 -0.6 0.27q -0.76 0.19 -1.05 0.49q -0.29 0.3 -0.29 0.74q 0 0.52 0.39 0.86q 0.39 0.34 1.07 0.34q 0.33 0 0.62 -0.08q 0.29 -0.08 0.59 -0.28l -0.3 -0.51q -0.27 0.17 -0.49 0.24q -0.22 0.07 -0.44 0.07q -0.39 0 -0.6 -0.15q -0.21 -0.15 -0.21 -0.42q 0 -0.27 0.2 -0.41q 0.2 -0.14 0.68 -0.26q 0.63 -0.17 0.94 -0.47q 0.31 -0.3 0.31 -0.8q 0 -0.57 -0.41 -0.9q -0.41 -0.33 -1.11 -0.33q -0.38 0 -0.73 0.1q -0.34 0.1 -0.64 0.3Z "/></symbol><symbol id="gCFB30384ECE30BC59AB4158E057E3046" overflow="visible"><path d="M 0 0m 0.35 0.37l 0.41 0.54q 0.2 -0.16 0.41 -0.24q 0.21 -0.07 0.43 -0.07q 0.33 0 0.52 0.18q 0.19 0.18 0.19 0.47q 0 0.35 -0.23 0.51q -0.23 0.16 -0.68 0.16q -0.16 0 -0.35 -0.01q -0.19 -0.01 -0.39 -0.04l 0.16 2.31h 2.19v -0.72h -1.52l -0.06 -0.89q 0.11 0.01 0.21 0.01q 0.1 0 0.18 0q 0.65 0 1.02 -0.34q 0.37 -0.34 0.37 -0.94q 0 -0.61 -0.41 -1.01q -0.41 -0.4 -1.14 -0.4q -0.38 0 -0.69 0.11q -0.32 0.11 -0.6 0.33Z "/></symbol><symbol id="gE3D54ADB98C54443D93EAB9E81440DB0" overflow="visible"><path d="M 0 0m 3.18 1.37q 0 -0.62 -0.39 -1.03q -0.39 -0.41 -1 -0.41q -0.68 0 -1.06 0.51q -0.38 0.51 -0.38 1.44q 0 0.53 0.12 0.98q 0.12 0.45 0.36 0.77q 0.23 0.32 0.55 0.48q 0.32 0.17 0.79 0.17q 0.21 0 0.45 -0.07q 0.24 -0.07 0.5 -0.27l -0.45 -0.52q -0.12 0.1 -0.24 0.15q -0.12 0.05 -0.29 0.05q -0.22 0 -0.38 -0.09q -0.17 -0.09 -0.3 -0.27q -0.13 -0.17 -0.2 -0.4q -0.07 -0.24 -0.08 -0.53h 0.02q 0.16 0.19 0.38 0.28q 0.22 0.09 0.49 0.09q 0.51 0 0.82 -0.36q 0.31 -0.36 0.31 -0.96Z m -0.82 -0.03q 0 0.35 -0.15 0.53q -0.15 0.18 -0.4 0.18q -0.29 0 -0.46 -0.2q -0.16 -0.2 -0.16 -0.49q 0 -0.32 0.16 -0.53q 0.16 -0.22 0.43 -0.22q 0.26 0 0.42 0.19q 0.16 0.19 0.16 0.54Z "/></symbol><symbol id="gB4053BBE3656A21A98B0459C49D40796" overflow="visible"><path d="M 0 0m 0.3 1.14q 0 0.35 0.19 0.64q 0.19 0.29 0.56 0.44q -0.28 0.16 -0.44 0.41q -0.16 0.24 -0.16 0.54q 0 0.48 0.37 0.79q 0.37 0.32 0.95 0.32q 0.58 0 0.95 -0.31q 0.37 -0.31 0.37 -0.79q 0 -0.3 -0.17 -0.54q -0.17 -0.24 -0.46 -0.4q 0.37 -0.15 0.56 -0.44q 0.19 -0.29 0.19 -0.64q 0 -0.54 -0.4 -0.88q -0.4 -0.34 -1.06 -0.34q -0.65 0 -1.05 0.34q -0.41 0.34 -0.41 0.87Z m 0.81 0.07q 0 -0.3 0.18 -0.47q 0.18 -0.17 0.47 -0.17q 0.28 0 0.46 0.18q 0.18 0.18 0.18 0.47q 0 0.27 -0.18 0.46q -0.18 0.19 -0.47 0.19q -0.28 0 -0.47 -0.18q -0.19 -0.18 -0.19 -0.47Z m 0.13 1.88q 0 -0.25 0.16 -0.41q 0.16 -0.16 0.38 -0.16q 0.21 0 0.37 0.15q 0.16 0.15 0.16 0.41q 0 0.25 -0.16 0.4q -0.16 0.15 -0.38 0.15q -0.23 0 -0.38 -0.15q -0.15 -0.15 -0.15 -0.4Z "/></symbol><symbol id="g87BDB0B3755CA05DA07912C63561A158" overflow="visible"><path d="M 0 0m 0.68 0v 5.92h 0.7v -5.92h -0.7Z "/></symbol><symbol id="g95B5F0B7B0F7BB988F2069B04172065" overflow="visible"><path d="M 0 0m 4.03 0h -0.7v 0.65h -0.02q -0.21 -0.37 -0.52 -0.56q -0.32 -0.19 -0.74 -0.19q -0.73 0 -1.1 0.44q -0.37 0.44 -0.37 1.31v 2.45h 0.69v -2.34q 0 -0.64 0.24 -0.96q 0.24 -0.32 0.73 -0.32q 0.47 0 0.77 0.35q 0.3 0.35 0.3 0.91v 2.36h 0.7v -4.1Z "/></symbol></defs><defs><clipPath id="cEA8DC819EBB5E6D527AE568BC64E4CAE"><path d="M 0 0m 0 3c 0 -1.66 1.34 -3 3 -3h 54c 1.66 0 3 1.34 3 3v 98c 0 1.66 -1.34 3 -3 3h -54c -1.66 0 -3 -1.34 -3 -3Z "/></clipPath><clipPath id="cE0003B1D90883F6A55E8FCA1BAA06C30"><path d="M 0 0h 60v 104h -60Z "/></clipPath></defs></svg>