<svg class="typst-doc" viewBox="0 0 252 167.78" width="252pt" height="167.78pt" xmlns="http://www.w3.org/2000/svg" xmlns:xlink="http://www.w3.org/1999/xlink" xmlns:h5="http://www.w3.org/1999/xhtml">
    <g>
        <g class="typst-text" transform="matrix(1 0 0 -1 0 16.89)">
            <use xlink:href="#g484EFA899B7A2BDE2F1065F576F7EC73" x="0" y="0" fill="#1565c0" fill-rule="nonzero"/>
            <use xlink:href="#gF02A025E6BAEEDA6E3F8E51C52349D2" x="5.9" y="0" fill="#1565c0" fill-rule="nonzero"/>
            <use xlink:href="#g56A86AE329B00A45976B0FB0667FD771" x="13.24" y="0" fill="#1565c0" fill-rule="nonzero"/>
            <use xlink:href="#gE503966D490D5E763163E491C212EB7A" x="16.71" y="0" fill="#1565c0" fill-rule="nonzero"/>
            <use xlink:href="#g56A86AE329B00A45976B0FB0667FD771" x="24.05" y="0" fill="#1565c0" fill-rule="nonzero"/>
            <use xlink:href="#g84847E87F5B4085ECDD039934BE6A39B" x="27.52" y="0" fill="#1565c0" fill-rule="nonzero"/>
            <use xlink:href="#gDF35FB5B8C2F5CAE436EEE9E38688E37" x="37.19" y="0" fill="#1565c0" fill-rule="nonzero"/>
            <use xlink:href="#gD0535AA60425C8528858A5C09EF51D43" x="50.19" y="0" fill="#1565c0" fill-rule="nonzero"/>
            <use xlink:href="#gF02A025E6BAEEDA6E3F8E51C52349D2" x="57.53" y="0" fill="#1565c0" fill-rule="nonzero"/>
            <use xlink:href="#gD0535AA60425C8528858A5C09EF51D43" x="64.87" y="0" fill="#1565c0" fill-rule="nonzero"/>
            <use xlink:href="#g9D11BC742281E667FD22925B78B81F76" x="72.2" y="0" fill="#1565c0" fill-rule="nonzero"/>
            <use xlink:href="#g6A2C81F40EB60BC7F38BE127D109B669" x="79.54" y="0" fill="#1565c0" fill-rule="nonzero"/>
            <use xlink:href="#gF02A025E6BAEEDA6E3F8E51C52349D2" x="84.54" y="0" fill="#1565c0" fill-rule="nonzero"/>
            <use xlink:href="#gE503966D490D5E763163E491C212EB7A" x="91.88" y="0" fill="#1565c0" fill-rule="nonzero"/>
            <use xlink:href="#g6A2C81F40EB60BC7F38BE127D109B669" x="99.22" y="0" fill="#1565c0" fill-rule="nonzero"/>
            <use xlink:href="#gF02A025E6BAEEDA6E3F8E51C52349D2" x="104.22" y="0" fill="#1565c0" fill-rule="nonzero"/>
            <use xlink:href="#g71236379B7F7E6C3B508FA9EC948C153" x="111.56" y="0" fill="#1565c0" fill-rule="nonzero"/>
        </g>
        <g class="typst-text" transform="matrix(1 0 0 -1 0 58.22)">
            <use xlink:href="#g802D7A1930F432CA2F89E95722233689" x="0" y="0" fill="#1c1b1f" fill-rule="nonzero"/>
            <use xlink:href="#g61B86BF71E7B8E684D3F4B9D2914C873" x="16.91" y="0" fill="#1c1b1f" fill-rule="nonzero"/>
            <use xlink:href="#g7986CC32CEEED41689678026B692E9CD" x="32.3" y="0" fill="#1c1b1f" fill-rule="nonzero"/>
            <use xlink:href="#g994DAD1826CDBEB449FE25BE446B5DF8" x="50.36" y="0" fill="#1c1b1f" fill-rule="nonzero"/>
            <use xlink:href="#gECCCF051E19DAE14AAD3BC95971F2642" x="69.17" y="0" fill="#1c1b1f" fill-rule="nonzero"/>
            <use xlink:href="#gCBAA863BE1327566BCC6647F74061FB3" x="87.03" y="0" fill="#1c1b1f" fill-rule="nonzero"/>
        </g>
        <g class="typst-text" transform="matrix(1 0 0 -1 106.03 58.22)">
            <use xlink:href="#g9F064949353FCFFD2C8FD2C4BC924FD2" x="0" y="0" fill="#1c1b1f" fill-rule="nonzero"/>
        </g>
        <g class="typst-text" transform="matrix(1 0 0 -1 125.03 58.22)">
            <use xlink:href="#g5EA91EDFA81B78C33DFA844A3A3BD610" x="0" y="0" fill="#1c1b1f" fill-rule="nonzero"/>
            <use xlink:href="#g2693E4B9423945092A52FB946080A382" x="19" y="0" fill="#1c1b1f" fill-rule="nonzero"/>
            <use xlink:href="#gABCA53C1817A2EFEFF7B7EFC113F0B7" x="38" y="0" fill="#1c1b1f" fill-rule="nonzero"/>
        </g>
        <g class="typst-group">
            <g>
                <g class="typst-text" transform="matrix(1 0 0 -1 0 95.06)">
                    <use xlink:href="#g3844555CE81CF127C66C4175EA09D32E" x="0" y="0" fill="#5f5b63" fill-rule="nonzero"/>
                    <use xlink:href="#g74ED63031C5938E54C01E3ED348CAC47" x="10.5" y="0" fill="#5f5b63" fill-rule="nonzero"/>
                </g>
                <g class="typst-text" transform="matrix(1 0 0 -1 21 95.06)">
                    <use xlink:href="#g7C8A6DD75A50D182526130D42D4D3F23" x="0" y="0" fill="#5f5b63" fill-rule="nonzero"/>
                    <use xlink:href="#gC6678A87D76F022C0EDF7857E92DA66A" x="10.19" y="0" fill="#5f5b63" fill-rule="nonzero"/>
                    <use xlink:href="#g41AA581EFA0FF50B77245FB28C423657" x="20.48" y="0" fill="#5f5b63" fill-rule="nonzero"/>
                    <use xlink:href="#gEE7B64115294F3432370D860A1DF07B6" x="29.93" y="0" fill="#5f5b63" fill-rule="nonzero"/>
                    <use xlink:href="#gBFA1240F1B2413AB61FEE792387F7577" x="40.11" y="0" fill="#5f5b63" fill-rule="nonzero"/>
                    <use xlink:href="#g3BA3AC8B354BCEFFB19AB465BB025F16" x="50.61" y="0" fill="#5f5b63" fill-rule="nonzero"/>
                </g>
                <g class="typst-text" transform="matrix(1 0 0 -1 81.9 95.06)">
                    <use xlink:href="#gE615485782AFF4761ED48B668ACBB860" x="0" y="0" fill="#5f5b63" fill-rule="nonzero"/>
                    <use xlink:href="#g7D7C9C7C94B915BA41744AEA6710EFD5" x="9.14" y="0" fill="#5f5b63" fill-rule="nonzero"/>
                    <use xlink:href="#g63D59E62824DDD1F7F64AC37E4017F70" x="17.43" y="0" fill="#5f5b63" fill-rule="nonzero"/>
                    <use xlink:href="#gA90553DB0D23CBF7CE48FE2F2C9B80D3" x="27.2" y="0" fill="#5f5b63" fill-rule="nonzero"/>
                    <use xlink:href="#gA7BB0800EEC67A0FCEFA0B4A375E46EF" x="37.6" y="0" fill="#5f5b63" fill-rule="nonzero"/>
                    <use xlink:href="#gEFDCA6F0AE348E9F3E35908307E9853F" x="47.26" y="0" fill="#5f5b63" fill-rule="nonzero"/>
                </g>
                <g class="typst-text" transform="matrix(1 0 0 -1 139.45 95.06)">
                    <use xlink:href="#g307BDB8DE2DA26D8907AF4F817B8BEDF" x="0" y="0" fill="#5f5b63" fill-rule="nonzero"/>
                </g>
                <g class="typst-text" transform="matrix(1 0 0 -1 149.95 95.06)">
                    <use xlink:href="#g23015FCB14550E285C9A96C7E27E91CF" x="0" y="0" fill="#5f5b63" fill-rule="nonzero"/>
                    <use xlink:href="#gA58F4F7F49F3A9F792C57784684747CB" x="9.14" y="0" fill="#5f5b63" fill-rule="nonzero"/>
                    <use xlink:href="#g9C0047D3C8DA79516CA8C7FA7995D139" x="18.9" y="0" fill="#5f5b63" fill-rule="nonzero"/>
                </g>
                <g class="typst-text" transform="matrix(1 0 0 -1 178.62 95.06)">
                    <use xlink:href="#g3489399D93CA17F1232EEDE90E433DF1" x="0" y="0" fill="#5f5b63" fill-rule="nonzero"/>
                </g>
                <g class="typst-text" transform="matrix(1 0 0 -1 188.91 95.06)">
                    <use xlink:href="#g88F8774C46BBC17DAFAECA858912D50B" x="0" y="0" fill="#5f5b63" fill-rule="nonzero"/>
                    <use xlink:href="#g1509993E4B41B5EB7236CC3EC71F9E42" x="10.5" y="0" fill="#5f5b63" fill-rule="nonzero"/>
                </g>
                <g class="typst-text" transform="matrix(1 0 0 -1 209.91 95.06)">
                    <use xlink:href="#g7C60F5EBCB42658F5C81CAB92A0B5C87" x="0" y="0" fill="#5f5b63" fill-rule="nonzero"/>
                    <use xlink:href="#g406DD130EE2B3482AEB6227490A3E20A" x="8.93" y="0" fill="#5f5b63" fill-rule="nonzero"/>
                    <use xlink:href="#g7C60F5EBCB42658F5C81CAB92A0B5C87" x="18.8" y="0" fill="#5f5b63" fill-rule="nonzero"/>
                    <use xlink:href="#g3BA3AC8B354BCEFFB19AB465BB025F16" x="27.72" y="0" fill="#5f5b63" fill-rule="nonzero"/>
                </g>
            </g>
        </g>
        <g class="typst-group">
            <g>
                <g class="typst-text" transform="matrix(1 0 0 -1 0 109.92)">
                    <use xlink:href="#gD5F4798B5435AD13EBBDB071298304E7" x="-2.62" y="0" fill="#5f5b63" fill-rule="nonzero"/>
                </g>
                <g class="typst-text" transform="matrix(1 0 0 -1 2.62 109.92)">
                    <use xlink:href="#gC2B73238C9B06EF8630F948F2B921B9B" x="0" y="0" fill="#5f5b63" fill-rule="nonzero"/>
                    <use xlink:href="#gD72778884F21F6CA165F844F170BD213" x="6.3" y="0" fill="#5f5b63" fill-rule="nonzero"/>
                    <use xlink:href="#g136556B102E06BCE0E2FA36B68E94068" x="13.12" y="0" fill="#5f5b63" fill-rule="nonzero"/>
                    <use xlink:href="#gAA965D80283F3847A3DE67FAF001E382" x="19.53" y="0" fill="#5f5b63" fill-rule="nonzero"/>
                    <use xlink:href="#gE3430E4637C99782FFE9D68E54406C7E" x="26.77" y="0" fill="#5f5b63" fill-rule="nonzero"/>
                    <use xlink:href="#gD1F7E8ADB44C896396E5613B002301F7" x="31.5" y="0" fill="#5f5b63" fill-rule="nonzero"/>
                    <use xlink:href="#gE3430E4637C99782FFE9D68E54406C7E" x="40.32" y="0" fill="#5f5b63" fill-rule="nonzero"/>
                    <use xlink:href="#gD72778884F21F6CA165F844F170BD213" x="45.05" y="0" fill="#5f5b63" fill-rule="nonzero"/>
                    <use xlink:href="#gFF7F8422A71F5BC7206C968452CB1571" x="51.87" y="0" fill="#5f5b63" fill-rule="nonzero"/>
                    <use xlink:href="#gAA965D80283F3847A3DE67FAF001E382" x="61.11" y="0" fill="#5f5b63" fill-rule="nonzero"/>
                    <use xlink:href="#gE3430E4637C99782FFE9D68E54406C7E" x="68.35" y="0" fill="#5f5b63" fill-rule="nonzero"/>
                    <use xlink:href="#g29D908790C15C21092CEBE82A5B8AD5C" x="73.08" y="0" fill="#5f5b63" fill-rule="nonzero"/>
                    <use xlink:href="#gAA965D80283F3847A3DE67FAF001E382" x="80.53" y="0" fill="#5f5b63" fill-rule="nonzero"/>
                    <use xlink:href="#gE3430E4637C99782FFE9D68E54406C7E" x="87.78" y="0" fill="#5f5b63" fill-rule="nonzero"/>
                    <use xlink:href="#g3264DCB6D067AC41214BE6680A353ECD" x="92.51" y="0" fill="#5f5b63" fill-rule="nonzero"/>
                    <use xlink:href="#g78DB2DEA8C9DC7CB19F4605FF4922BF5" x="98.6" y="0" fill="#5f5b63" fill-rule="nonzero"/>
                    <use xlink:href="#g19E0A72623EB478E5963A6FE9206F8BB" x="101.95" y="0" fill="#5f5b63" fill-rule="nonzero"/>
                    <use xlink:href="#gAA965D80283F3847A3DE67FAF001E382" x="108.68" y="0" fill="#5f5b63" fill-rule="nonzero"/>
                </g>
                <g class="typst-text" transform="matrix(1 0 0 -1 122.05 109.92)">
                    <use xlink:href="#g307BDB8DE2DA26D8907AF4F817B8BEDF" x="0" y="0" fill="#5f5b63" fill-rule="nonzero"/>
                </g>
                <g class="typst-text" transform="matrix(1 0 0 -1 132.55 109.92)">
                    <use xlink:href="#g881C8CFA882D26DE98D5699B6886BC57" x="0" y="0" fill="#5f5b63" fill-rule="nonzero"/>
                </g>
                <g class="typst-text" transform="matrix(1 0 0 -1 143.05 109.92)">
                    <use xlink:href="#g57185371A1D407CD13ECBEC98EC5237B" x="0" y="0" fill="#5f5b63" fill-rule="nonzero"/>
                </g>
                <g class="typst-text" transform="matrix(1 0 0 -1 152.29 109.92)">
                    <use xlink:href="#gEC8FA9F2A208B04B6CE43BD58DCB442C" x="0" y="0" fill="#5f5b63" fill-rule="nonzero"/>
                </g>
                <g class="typst-text" transform="matrix(1 0 0 -1 162.79 109.92)">
                    <use xlink:href="#g7C60F5EBCB42658F5C81CAB92A0B5C87" x="0" y="0" fill="#5f5b63" fill-rule="nonzero"/>
                    <use xlink:href="#gC4CC6AC66B82B4A13C6D385035CB2BCE" x="8.93" y="0" fill="#5f5b63" fill-rule="nonzero"/>
                </g>
            </g>
        </g>
        <g class="typst-text" transform="matrix(1 0 0 -1 0 124.78)">
            <use xlink:href="#g534343EB8F198294A1D4FA58C6A59A45" x="0" y="0" fill="#5f5b63" fill-rule="nonzero"/>
            <use xlink:href="#g5D524EBC2AB09C14F176767D187428F1" x="8.4" y="0" fill="#5f5b63" fill-rule="nonzero"/>
            <use xlink:href="#gF870750992B4CA58B495EBCA4482FCB9" x="15.54" y="0" fill="#5f5b63" fill-rule="nonzero"/>
            <use xlink:href="#g365E5E036BB8C99567A5698F308B39BA" x="22.89" y="0" fill="#5f5b63" fill-rule="nonzero"/>
            <use xlink:href="#g4422D14EC12F521DBC9A8DBACA97D33" x="29.09" y="0" fill="#5f5b63" fill-rule="nonzero"/>
            <use xlink:href="#gFD69CF45CAB4B63DAAC792D59AADBA2" x="36.44" y="0" fill="#5f5b63" fill-rule="nonzero"/>
            <use xlink:href="#gAA965D80283F3847A3DE67FAF001E382" x="46.31" y="0" fill="#5f5b63" fill-rule="nonzero"/>
            <use xlink:href="#gE3430E4637C99782FFE9D68E54406C7E" x="53.55" y="0" fill="#5f5b63" fill-rule="nonzero"/>
            <use xlink:href="#gAC51554E209CAF8451FD06FD2F54E063" x="58.28" y="0" fill="#5f5b63" fill-rule="nonzero"/>
            <use xlink:href="#g78DB2DEA8C9DC7CB19F4605FF4922BF5" x="68.57" y="0" fill="#5f5b63" fill-rule="nonzero"/>
            <use xlink:href="#g5DAE5CE9BDD11656EC875284C6338934" x="71.93" y="0" fill="#5f5b63" fill-rule="nonzero"/>
            <use xlink:href="#g2C7B12B31B336C0E550130E1B9DB66F5" x="79.38" y="0" fill="#5f5b63" fill-rule="nonzero"/>
            <use xlink:href="#gAA965D80283F3847A3DE67FAF001E382" x="86.41" y="0" fill="#5f5b63" fill-rule="nonzero"/>
            <use xlink:href="#g7137566E4772243D73C871F4A86AFF62" x="93.66" y="0" fill="#5f5b63" fill-rule="nonzero"/>
        </g>
        <g class="typst-text" transform="matrix(1 0 0 -1 102.1 124.78)">
            <use xlink:href="#g8254F2BEB5E55B6A6F94366F388AA453" x="0" y="0" fill="#5f5b63" fill-rule="nonzero"/>
            <use xlink:href="#gD8232988D1095D0BE3B477109BC83AA6" x="10.5" y="0" fill="#5f5b63" fill-rule="nonzero"/>
            <use xlink:href="#gF3348DB9FDD553A0AB5023DC69177A7B" x="13.12" y="0" fill="#5f5b63" fill-rule="nonzero"/>
            <use xlink:href="#g8667E06F49CC7EC1BE81EAFD008A3EC6" x="19.43" y="0" fill="#5f5b63" fill-rule="nonzero"/>
        </g>
        <g class="typst-text" transform="matrix(1 0 0 -1 132.02 124.78)">
            <use xlink:href="#g7C60F5EBCB42658F5C81CAB92A0B5C87" x="0" y="0" fill="#5f5b63" fill-rule="nonzero"/>
            <use xlink:href="#g431F080745F59729BA265E361474C17E" x="8.93" y="0" fill="#5f5b63" fill-rule="nonzero"/>
            <use xlink:href="#g733718C6C749A12B272F4567C00A4DF8" x="19.11" y="0" fill="#5f5b63" fill-rule="nonzero"/>
            <use xlink:href="#gE4360436F9025BCAC7F0969F9A83A6CD" x="29.09" y="0" fill="#5f5b63" fill-rule="nonzero"/>
            <use xlink:href="#gC6678A87D76F022C0EDF7857E92DA66A" x="38.02" y="0" fill="#5f5b63" fill-rule="nonzero"/>
            <use xlink:href="#g57185371A1D407CD13ECBEC98EC5237B" x="48.31" y="0" fill="#5f5b63" fill-rule="nonzero"/>
            <use xlink:href="#g406DD130EE2B3482AEB6227490A3E20A" x="57.54" y="0" fill="#5f5b63" fill-rule="nonzero"/>
            <use xlink:href="#g7C60F5EBCB42658F5C81CAB92A0B5C87" x="67.41" y="0" fill="#5f5b63" fill-rule="nonzero"/>
            <use xlink:href="#g3BA3AC8B354BCEFFB19AB465BB025F16" x="76.34" y="0" fill="#5f5b63" fill-rule="nonzero"/>
            <use xlink:href="#gF3348DB9FDD553A0AB5023DC69177A7B" x="86.63" y="0" fill="#5f5b63" fill-rule="nonzero"/>
        </g>
    </g>
    <defs id="glyph">
        <symbol id="g484EFA899B7A2BDE2F1065F576F7EC73" overflow="visible">
            <path d="M 0 0m 0.03 5.08 h 1.29 l 1.04 -2.88 q 0.18 -0.5 0.33 -1.09 h 0.04 q 0.13 0.55 0.33 1.09 l 1.05 2.88 h 1.29 l -2.21 -5.4 h -0.92 l -2.21 5.4 Z "/>
        </symbol>
        <symbol id="gF02A025E6BAEEDA6E3F8E51C52349D2" overflow="visible">
            <path d="M 0 0m 3.43 7.25 q 1.38 0 2.14 -1.2 q 0.64 -1 0.64 -2.64 q 0 -1.5 -0.54 -2.47 q -0.75 -1.36 -2.25 -1.36 q -1.35 0 -2.1 1.12 q -0.68 1.01 -0.68 2.7 q 0 1.76 0.73 2.78 q 0.76 1.06 2.07 1.06 Z m -0.01 -0.94 q -0.71 0 -1.12 -0.78 q -0.4 -0.76 -0.4 -2.11 q 0 -1.26 0.36 -2.01 q 0.42 -0.85 1.17 -0.85 q 0.66 0 1.07 0.69 q 0.46 0.77 0.46 2.18 q 0 1.34 -0.4 2.1 q -0.41 0.79 -1.14 0.79 Z "/>
        </symbol>
        <symbol id="g56A86AE329B00A45976B0FB0667FD771" overflow="visible">
            <path d="M 0 0m 0.63 1.25 h 1.48 v -1.48 h -1.48 v 1.48 Z "/>
        </symbol>
        <symbol id="gE503966D490D5E763163E491C212EB7A" overflow="visible">
            <path d="M 0 0m 2.11 4.07 h 0.61 q 0.77 0 1.24 0.28 q 0.58 0.34 0.58 0.93 q 0 0.49 -0.42 0.77 q -0.37 0.25 -0.93 0.25 q -1.01 0 -1.94 -0.77 l -0.64 0.79 q 1.13 0.91 2.66 0.91 q 1.02 0 1.68 -0.42 q 0.8 -0.51 0.8 -1.45 q 0 -0.72 -0.55 -1.23 q -0.43 -0.4 -1.12 -0.5 v -0.04 q 0.91 -0.15 1.38 -0.6 q 0.5 -0.47 0.5 -1.24 q 0 -1.13 -0.92 -1.7 q -0.69 -0.42 -1.81 -0.42 q -1.77 0 -2.87 1.08 l 0.66 0.79 q 0.35 -0.37 0.91 -0.62 q 0.67 -0.29 1.31 -0.29 q 0.71 0 1.11 0.3 q 0.39 0.29 0.39 0.87 q 0 0.81 -0.78 1.15 q -0.52 0.23 -1.26 0.23 h -0.58 v 0.94 Z "/>
        </symbol>
        <symbol id="g84847E87F5B4085ECDD039934BE6A39B" overflow="visible">
            <path d="M 0 0m 2.62 -0.22 v 6.21 q -0.93 -0.31 -1.76 -0.46 l -0.22 0.89 q 1.39 0.34 2.29 0.78 h 0.84 v -7.42 h -1.16 Z "/>
        </symbol>
        <symbol id="gDF35FB5B8C2F5CAE436EEE9E38688E37" overflow="visible">
            <path d="M 0 0m 0 3.69 h 9 v -0.54 h -9 v 0.54 Z "/>
        </symbol>
        <symbol id="gD0535AA60425C8528858A5C09EF51D43" overflow="visible">
            <path d="M 0 0m 0.78 -0.22 v 0.99 q 0.42 1.3 2.28 2.54 l 0.24 0.16 q 0.8 0.53 1.1 0.87 q 0.33 0.38 0.33 0.82 q 0 0.4 -0.24 0.69 q -0.36 0.44 -1.08 0.44 q -1.07 0 -1.92 -0.89 l -0.76 0.69 q 0.3 0.36 0.71 0.62 q 0.88 0.54 1.97 0.54 q 0.84 0 1.46 -0.32 q 0.54 -0.28 0.83 -0.76 q 0.27 -0.46 0.27 -0.99 q 0 -0.7 -0.53 -1.29 q -0.36 -0.4 -1.33 -1.06 l -0.28 -0.19 q -1.03 -0.7 -1.36 -1.04 q -0.4 -0.41 -0.54 -0.74 h 4.11 v -1.05 h -5.26 Z "/>
        </symbol>
        <symbol id="g9D11BC742281E667FD22925B78B81F76" overflow="visible">
            <path d="M 0 0m 1.93 3.56 q 0.61 0.92 1.81 0.92 q 0.97 0 1.66 -0.61 q 0.76 -0.67 0.76 -1.71 q 0 -1.07 -0.68 -1.78 q -0.72 -0.76 -1.9 -0.76 q -1.39 0 -2.2 1.03 q -0.65 0.83 -0.65 2.33 q 0 1.05 0.6 2.08 q 1 1.74 3.36 2.3 l 0.41 -0.86 q -1.53 -0.44 -2.2 -1.11 q -0.85 -0.84 -1 -1.83 h 0.04 Z m 1.6 0.07 q -0.67 0 -1.14 -0.53 q -0.37 -0.42 -0.37 -0.9 q 0 -0.52 0.29 -0.95 q 0.47 -0.69 1.24 -0.69 q 0.67 0 1.1 0.51 q 0.35 0.42 0.35 1.05 q 0 0.72 -0.43 1.12 q -0.42 0.39 -1.04 0.39 Z "/>
        </symbol>
        <symbol id="g6A2C81F40EB60BC7F38BE127D109B669" overflow="visible">
            <path d="M 0 0m 3.64 7.67 l 0.54 -0.24 l -3.31 -8.25 l -0.54 0.24 l 3.31 8.25 Z "/>
        </symbol>
        <symbol id="g71236379B7F7E6C3B508FA9EC948C153" overflow="visible">
            <path d="M 0 0m 4.8 3.13 q -0.24 -0.38 -0.63 -0.61 q -0.53 -0.3 -1.2 -0.3 q -0.98 0 -1.66 0.62 q -0.74 0.67 -0.74 1.79 q 0 1.01 0.58 1.69 q 0.78 0.91 2.05 0.91 q 1.35 0 2.1 -0.94 q 0.68 -0.85 0.68 -2.48 q 0 -1.58 -0.73 -2.62 q -0.54 -0.78 -1.58 -1.21 q -0.73 -0.3 -1.81 -0.48 l -0.49 0.97 q 1.55 0.14 2.37 0.73 q 0.89 0.65 1.1 1.94 h -0.04 Z m -1.6 3.16 q -0.67 0 -1.09 -0.51 q -0.36 -0.43 -0.36 -1.12 q 0 -0.65 0.35 -1.05 q 0.43 -0.49 1.07 -0.49 q 0.75 0 1.18 0.55 q 0.34 0.44 0.34 0.96 q 0 0.65 -0.33 1.08 q -0.43 0.57 -1.17 0.57 Z "/>
        </symbol>
        <symbol id="g802D7A1930F432CA2F89E95722233689" overflow="visible">
            <path d="M 0 0m 1.96 15.37 h 2.16 v -13.91 q 1.73 0.56 3.09 1.29 q 3.8 2.05 6.32 5.22 q 0.74 0.94 1.42 2.15 l 1.37 -1.94 q -1.93 -3 -4.87 -5.23 q -3.58 -2.72 -8.16 -4.03 l -1.33 1.3 v 15.14 Z "/>
        </symbol>
        <symbol id="g61B86BF71E7B8E684D3F4B9D2914C873" overflow="visible">
            <path d="M 0 0m 7.8 -0.98 v 9.52 q -2.82 -1.89 -6.44 -3.19 l -1.12 1.88 q 4.11 1.38 7.21 3.56 q 3.04 2.14 5.42 4.91 l 1.79 -1.12 q -2.11 -2.42 -4.69 -4.44 v -11.11 h -2.16 Z "/>
        </symbol>
        <symbol id="g7986CC32CEEED41689678026B692E9CD" overflow="visible">
            <path d="M 0 0m 6.59 15.72 l 0.72 -4.01 l 8.65 1.36 l 1.35 -0.85 q -1.3 -5.29 -4.41 -8.15 l -1.65 1.34 q 1.82 1.6 2.85 3.72 q 0.47 0.96 0.67 1.92 l -7.12 -1.18 l 1.88 -10.59 l -2.09 -0.38 l -1.88 10.6 l -4.71 -0.78 l -0.34 1.92 l 4.71 0.74 l -0.71 3.95 l 2.09 0.38 Z "/>
        </symbol>
        <symbol id="g994DAD1826CDBEB449FE25BE446B5DF8" overflow="visible">
            <path d="M 0 0m 0.69 1.03 q 1.61 2.38 2.77 5.82 q 1.26 3.77 1.6 7.65 l 2.12 -0.44 q -0.83 -5.7 -2.22 -9.57 q -1 -2.82 -2.47 -4.94 l -1.81 1.48 Z m 14.78 -1.58 q -1.65 2.77 -3.02 6.69 q -1.31 3.74 -2.16 7.94 l 2.01 0.62 q 1.6 -8.01 5.02 -13.85 l -1.85 -1.4 Z m 0.68 16.99 q 0.62 0 1.19 -0.34 q 0.56 -0.33 0.86 -0.91 q 0.28 -0.52 0.28 -1.09 q 0 -0.91 -0.65 -1.6 q -0.69 -0.73 -1.7 -0.73 q -0.5 0 -0.96 0.21 q -0.58 0.27 -0.94 0.79 q -0.43 0.61 -0.43 1.35 q 0 0.57 0.29 1.09 q 0.29 0.53 0.78 0.85 q 0.58 0.38 1.28 0.38 Z m -0.01 -1.14 q -0.34 0 -0.65 -0.19 q -0.55 -0.34 -0.55 -1.01 q 0 -0.47 0.32 -0.82 q 0.35 -0.37 0.87 -0.37 q 0.3 0 0.55 0.13 q 0.65 0.33 0.65 1.06 q 0 0.51 -0.36 0.86 q -0.33 0.34 -0.83 0.34 Z "/>
        </symbol>
        <symbol id="gECCCF051E19DAE14AAD3BC95971F2642" overflow="visible">
            <path d="M 0 0m 7.63 15.88 h 2.09 v -2.9 h 4.19 l 1.09 -1.09 q -2.01 -2.66 -5.15 -4.93 v -8.41 h -2.09 v 7.05 q -3.02 -1.79 -6.47 -3.01 l -1.04 1.79 q 4.63 1.36 8.42 4.02 q 1.82 1.27 3.09 2.71 h -9.84 v 1.86 h 5.71 v 2.9 Z m 8.64 -13.72 q -2.73 2.33 -5.79 4.04 l 1.31 1.31 q 3.09 -1.57 5.74 -3.66 l -1.26 -1.68 Z "/>
        </symbol>
        <symbol id="gCBAA863BE1327566BCC6647F74061FB3" overflow="visible">
            <path d="M 0 0m 4.59 14.8 h 2.09 v -3.38 q 0 -4.85 -0.72 -7.09 q -0.96 -2.96 -4.01 -4.94 l -1.42 1.65 q 2.12 1.48 2.98 3.08 q 0.72 1.35 0.96 3.61 q 0.13 1.28 0.13 3.65 v 3.41 Z m 4.75 0.54 h 2.09 v -13.18 q 1.85 0.96 3.24 2.72 q 1.52 1.93 2.27 4.57 l 1.63 -1.58 q -0.93 -2.76 -2.54 -4.7 q -2.03 -2.46 -5.33 -3.87 l -1.36 1.18 v 14.86 Z "/>
        </symbol>
        <symbol id="g9F064949353FCFFD2C8FD2C4BC924FD2" overflow="visible">
            <path d="M 0 0m 2.09 13.64 h 5 q 0.83 1.32 1.25 2.12 l 2.07 -0.3 q -0.28 -0.5 -0.98 -1.63 l -0.12 -0.19 h 6.54 v -1.83 h -7.77 q -1.22 -1.67 -2.32 -2.89 q 1.75 1.05 3.2 1.05 q 2.25 0 2.94 -2.25 q 2.38 0.79 4.84 1.56 l 0.8 -1.8 l -0.32 -0.09 l -0.92 -0.24 q -2.6 -0.71 -4.16 -1.21 q 0.11 -1.21 0.16 -3.12 l -2.03 -0.11 q -0.01 1.1 -0.04 2.39 v 0.19 q -4.27 -1.46 -4.27 -2.93 q 0 -0.76 1.09 -1.04 q 1.06 -0.27 3.79 -0.27 q 2.51 0 5.28 0.29 l 0.22 -1.98 q -2.68 -0.2 -5.56 -0.2 q -3.54 0 -5.04 0.54 q -1.85 0.67 -1.85 2.4 q 0 1.47 1.31 2.59 q 1.35 1.16 4.77 2.39 q -0.19 0.71 -0.49 1 q -0.34 0.32 -0.91 0.32 q -0.92 0 -2.31 -0.7 q -1.72 -0.85 -3.68 -2.57 l -1.23 1.41 q 2.89 2.68 4.52 5.27 h -3.78 v 1.83 Z "/>
        </symbol>
        <symbol id="g5EA91EDFA81B78C33DFA844A3A3BD610" overflow="visible">
            <path d="M 0 0m 10.79 9.57 q 0.64 -2.17 2.43 -4.62 q 2.18 -2.99 5.36 -4.73 l -1.33 -1.91 q -3.37 1.99 -5.62 5.26 q -1.22 1.78 -1.95 3.63 q -0.73 -2.49 -2.27 -4.52 q -2.26 -3.01 -5.59 -4.43 l -1.31 1.7 q 3.49 1.46 5.63 4.49 q 1.8 2.56 2.13 5.14 h -7.4 v 2.01 h 7.49 v 4.47 h 2.14 v -4.47 h 7.64 v -2.01 h -7.36 Z "/>
        </symbol>
        <symbol id="g2693E4B9423945092A52FB946080A382" overflow="visible">
            <path d="M 0 0m 12.96 4.01 v -5.8 h -1.94 v 5.8 h -2.16 v -4.43 h -1.86 v 5.33 h -1.14 v 2.54 q -0.5 -0.27 -0.96 -0.52 l -0.3 -0.16 v -7 q 0 -0.87 -0.45 -1.23 q -0.39 -0.32 -1.31 -0.32 q -1.01 0 -1.86 0.18 l -0.31 1.94 q 1.01 -0.18 1.55 -0.18 q 0.31 0 0.37 0.15 q 0.04 0.09 0.04 0.3 v 5.23 q -0.95 -0.42 -1.83 -0.71 l -0.58 1.83 q 1.17 0.37 2.41 0.88 v 3.14 h -2.14 v 1.85 h 2.14 v 3.42 h 1.96 v -3.42 h 1.71 v -1.85 h -1.71 v -2.26 q 0.79 0.39 1.63 0.84 l 0.09 -1.04 h 12.24 v -3.55 h -1.22 v -3.86 q 0 -0.73 -0.32 -1.08 q -0.33 -0.35 -1.16 -0.35 q -0.69 0 -1.75 0.07 l -0.35 1.83 q 0.77 -0.15 1.4 -0.15 q 0.25 0 0.3 0.14 q 0.05 0.11 0.05 0.32 v 2.12 h -2.54 Z m 0 1.52 h 3.7 v 1.45 h -3.7 v -1.45 Z m -1.94 0 v 1.45 h -3.28 v -1.45 h 3.28 Z m 5.62 10.22 v -6.13 h -9.54 v 1.36 h 7.52 v 0.96 h -6.94 v 1.41 h 6.94 v 0.95 h -7.39 v 1.45 h 9.41 Z "/>
        </symbol>
        <symbol id="gABCA53C1817A2EFEFF7B7EFC113F0B7" overflow="visible">
            <path d="M 0 0m 8.82 10.08 q -0.9 -0.78 -1.87 -1.43 l -1.12 1.61 q 3.43 1.9 5.32 5.89 h 2.12 q 1.09 -1.92 2.47 -3.18 q 1.18 -1.08 3.12 -2.2 l -0.97 -1.78 q -1.12 0.67 -2.01 1.38 v -1.23 h -2.5 v -2.07 h 5.09 v -1.71 h -5.09 v -5.51 q 0 -0.77 -0.28 -1.12 q -0.33 -0.44 -1.42 -0.44 q -1.09 0 -2.24 0.13 l -0.31 1.88 q 1.16 -0.18 1.86 -0.18 q 0.34 0 0.41 0.15 q 0.05 0.11 0.05 0.37 v 4.71 h -4.88 v 1.71 h 4.88 v 2.07 h -2.61 v 0.94 Z m 0.81 0.75 h 5.67 q -1.98 1.79 -3.03 3.52 q -1.09 -1.99 -2.63 -3.52 Z m -4.69 -1.31 q 1.41 -1.91 1.41 -4.62 q 0 -1.71 -0.49 -2.29 q -0.46 -0.56 -1.63 -0.56 q -0.53 0 -0.95 0.07 l -0.42 1.86 q 0.57 -0.09 1.01 -0.09 q 0.48 0 0.58 0.27 q 0.1 0.25 0.1 1.14 q 0 2.39 -1.32 4.04 q 1.01 2.43 1.48 4.44 h -1.94 v -15.6 h -1.86 v 17.33 h 4.85 l 0.98 -0.82 q -0.96 -3.41 -1.82 -5.19 Z m 0.58 -8.99 q 1.54 1.69 2.41 4.11 l 1.63 -0.76 q -1.07 -3.05 -2.55 -4.66 l -1.49 1.31 Z m 11.48 -0.95 q -1.16 2.73 -2.32 4.31 l 1.56 0.89 q 1.39 -1.81 2.39 -4.01 l -1.63 -1.2 Z "/>
        </symbol>
        <symbol id="g3844555CE81CF127C66C4175EA09D32E" overflow="visible">
            <path d="M 0 0m 2.1 7.72 v -1.81 h 6.64 v -3.42 h -6.64 v -2.08 h 7.62 v -0.72 h -7.62 v -0.68 h -0.87 v 9.44 h 8.17 v -0.72 h -7.3 Z m 5.77 -2.51 h -5.77 v -2 h 5.77 v 2 Z "/>
        </symbol>
        <symbol id="g74ED63031C5938E54C01E3ED348CAC47" overflow="visible">
            <path d="M 0 0m 5.78 5.46 q 0.47 -1.72 1.75 -3.28 q 1.17 -1.42 2.7 -2.27 l -0.53 -0.78 q -1.78 1.07 -2.96 2.67 q -0.85 1.14 -1.39 2.65 q -0.87 -3.8 -4.38 -5.36 l -0.54 0.69 q 2.07 0.85 3.25 2.66 q 0.92 1.43 1.09 3.02 h -4.25 v 0.8 h 4.28 v 2.61 h 0.85 v -2.61 h 4.35 v -0.8 h -4.21 Z "/>
        </symbol>
        <symbol id="g7C8A6DD75A50D182526130D42D4D3F23" overflow="visible">
            <path d="M 0 0m 1.23 -0.41 q -0.17 1.53 -0.17 3.27 q 0 2.97 0.43 5.52 l 0.82 -0.08 q -0.41 -2.29 -0.41 -5.27 q 0 -1.77 0.18 -3.32 l -0.84 -0.12 Z m 2.99 7.8 h 4.74 v -0.79 h -4.74 v 0.79 Z m 5.05 -7.16 q -0.92 -0.15 -2.17 -0.15 q -1.55 0 -2.47 0.37 q -0.32 0.13 -0.57 0.36 q -0.5 0.47 -0.5 1.18 q 0 0.7 0.35 1.25 l 0.69 -0.33 q -0.23 -0.35 -0.23 -0.84 q 0 -0.63 0.64 -0.89 q 0.68 -0.28 1.93 -0.28 q 1.22 0 2.23 0.17 l 0.09 -0.84 Z "/>
        </symbol>
        <symbol id="gC6678A87D76F022C0EDF7857E92DA66A" overflow="visible">
            <path d="M 0 0m 6.38 5.29 h 0.83 v -2.89 q 1.16 -0.51 2.47 -1.4 l -0.44 -0.71 q -1.04 0.75 -2.03 1.26 q -0.03 -2.03 -2.07 -2.03 q -0.93 0 -1.52 0.39 q -0.66 0.44 -0.66 1.23 q 0 0.56 0.38 0.99 q 0.62 0.69 1.95 0.69 q 0.5 0 1.08 -0.14 v 2.6 Z m 0 -3.38 q -0.63 0.22 -1.2 0.22 q -0.56 0 -0.92 -0.18 q -0.52 -0.27 -0.52 -0.78 q 0 -0.43 0.39 -0.69 q 0.37 -0.25 1.01 -0.25 q 0.72 0 1.05 0.56 q 0.19 0.33 0.19 0.79 v 0.34 Z m -5.45 5.15 h 1.89 q 0.23 0.76 0.45 1.63 l 0.82 -0.11 q -0.21 -0.76 -0.44 -1.51 h 1.95 v -0.73 h -2.19 q -0.91 -2.64 -2.09 -4.41 l -0.7 0.41 q 1.11 1.62 1.96 4 h -1.65 v 0.73 Z m 8.39 -2.15 q -1.09 1.19 -2.48 2.16 l 0.49 0.56 q 1.33 -0.86 2.56 -2.09 l -0.56 -0.63 Z "/>
        </symbol>
        <symbol id="g41AA581EFA0FF50B77245FB28C423657" overflow="visible">
            <path d="M 0 0m 0.86 5.28 l 0.33 0.06 q 3.18 0.5 4.24 0.5 q 1.37 0 2.08 -0.69 q 0.73 -0.72 0.73 -1.94 q 0 -1.23 -0.95 -2.09 q -1.11 -0.99 -4.13 -1.28 l -0.26 0.75 q 2.17 0.18 3.18 0.67 q 0.44 0.21 0.76 0.54 q 0.57 0.61 0.57 1.47 q 0 0.93 -0.51 1.4 q -0.29 0.27 -0.65 0.36 q -0.31 0.08 -0.82 0.08 q -1.22 0 -4.42 -0.59 l -0.17 0.75 Z "/>
        </symbol>
        <symbol id="gEE7B64115294F3432370D860A1DF07B6" overflow="visible">
            <path d="M 0 0m 0.65 7.54 q 4.4 0.06 8.59 0.25 l 0.07 -0.75 q -1.78 -0.06 -2.85 -0.58 q -1.29 -0.63 -1.88 -1.8 q -0.38 -0.75 -0.38 -1.61 q 0 -1.29 1.07 -1.89 q 0.88 -0.49 2.47 -0.71 l -0.17 -0.82 q -2.19 0.31 -3.14 1.07 q -1.08 0.87 -1.08 2.39 q 0 1.39 1.04 2.58 q 0.71 0.81 1.91 1.31 l -0.49 -0.02 q -2.83 -0.11 -5.1 -0.21 l -0.05 0.79 Z "/>
        </symbol>
        <symbol id="gBFA1240F1B2413AB61FEE792387F7577" overflow="visible">
            <path d="M 0 0m 5.12 2.28 q -0.42 -1.2 -0.98 -1.97 q -0.44 -0.6 -0.95 -0.6 q -0.76 0 -1.31 1.14 q -0.46 0.93 -0.61 2.08 q -0.18 1.35 -0.18 3.09 q 0 0.88 0.07 1.82 l 0.85 -0.06 q -0.06 -0.84 -0.06 -1.61 q 0 -2.37 0.27 -3.62 q 0.21 -0.99 0.54 -1.48 q 0.25 -0.37 0.43 -0.37 q 0.18 0 0.45 0.4 q 0.41 0.6 0.82 1.7 l 0.66 -0.52 Z m 3.53 -1.01 q -0.27 2.06 -0.64 3.42 q -0.38 1.39 -1.03 2.72 l 0.77 0.19 q 0.74 -1.45 1.15 -2.9 q 0.35 -1.26 0.6 -3.22 l -0.86 -0.21 Z "/>
        </symbol>
        <symbol id="g3BA3AC8B354BCEFFB19AB465BB025F16" overflow="visible">
            <path d="M 0 0m 0.68 7 h 2.37 q 0.2 0.89 0.33 1.65 l 0.84 -0.11 l -0.02 -0.07 q -0.21 -0.99 -0.32 -1.47 h 3.52 v -0.73 h -3.7 q -1 -4.02 -2.26 -6.78 l -0.8 0.3 q 1.33 3 2.21 6.48 h -2.19 v 0.73 Z m 4.2 -2.36 q 1.86 0.24 3.73 0.24 q 0.12 0 0.47 -0.01 l 0.06 -0.76 q -0.36 0.01 -0.58 0.01 q -1.79 0 -3.57 -0.21 l -0.11 0.73 Z m 4.6 -4.86 q -0.76 -0.11 -1.75 -0.11 q -1.6 0 -2.43 0.27 q -0.92 0.31 -0.92 1.24 q 0 0.62 0.36 1.03 l 0.66 -0.41 q -0.17 -0.21 -0.17 -0.51 q 0 -0.5 0.47 -0.63 q 0.68 -0.18 1.73 -0.18 q 1 0 1.96 0.15 l 0.09 -0.84 Z "/>
        </symbol>
        <symbol id="gE615485782AFF4761ED48B668ACBB860" overflow="visible">
            <path d="M 0 0m 1.14 8.4 h 0.86 v -7.83 q 2.26 0.65 4.21 2.36 q 1.26 1.1 1.98 2.44 l 0.55 -0.81 q -1.07 -1.64 -2.73 -2.88 q -1.92 -1.42 -4.29 -2.12 l -0.58 0.58 v 8.26 Z "/>
        </symbol>
        <symbol id="g7D7C9C7C94B915BA41744AEA6710EFD5" overflow="visible">
            <path d="M 0 0m 4.37 -0.41 v 5.42 q -1.65 -1.12 -3.73 -1.89 l -0.46 0.74 q 2.24 0.76 3.93 1.96 q 1.72 1.23 2.96 2.69 l 0.72 -0.45 q -1.14 -1.28 -2.57 -2.43 v -6.04 h -0.84 Z "/>
        </symbol>
        <symbol id="g63D59E62824DDD1F7F64AC37E4017F70" overflow="visible">
            <path d="M 0 0m 3.39 8.52 l 0.39 -2.21 l 4.88 0.75 l 0.58 -0.42 q -0.67 -2.7 -2.39 -4.25 l -0.66 0.54 q 0.54 0.44 0.99 1.04 q 0.81 1.1 1.06 2.27 l -4.32 -0.69 l 1.03 -5.87 l -0.83 -0.16 l -1.04 5.89 l -2.64 -0.42 l -0.13 0.76 l 2.62 0.41 l -0.39 2.18 l 0.84 0.16 Z "/>
        </symbol>
        <symbol id="gA90553DB0D23CBF7CE48FE2F2C9B80D3" overflow="visible">
            <path d="M 0 0m 0.67 0.59 q 0.89 1.27 1.51 3.25 q 0.63 1.97 0.8 3.96 l 0.84 -0.18 q -0.69 -5.13 -2.46 -7.66 l -0.69 0.63 Z m 7.92 -0.63 q -0.7 1.16 -1.34 2.88 q -0.85 2.27 -1.36 4.81 l 0.8 0.25 q 0.48 -2.48 1.4 -4.81 q 0.57 -1.44 1.24 -2.55 l -0.74 -0.57 Z m 0.23 8.86 q 0.35 0 0.67 -0.21 q 0.55 -0.36 0.55 -1.02 q 0 -0.49 -0.36 -0.86 q -0.36 -0.36 -0.87 -0.36 q -0.28 0 -0.54 0.13 q -0.28 0.15 -0.46 0.42 q -0.21 0.31 -0.21 0.68 q 0 0.3 0.15 0.58 q 0.15 0.28 0.42 0.44 q 0.3 0.19 0.65 0.19 Z m -0.01 -0.53 q -0.18 0 -0.35 -0.1 q -0.33 -0.19 -0.33 -0.58 q 0 -0.26 0.17 -0.46 q 0.21 -0.23 0.51 -0.23 q 0.17 0 0.32 0.08 q 0.36 0.19 0.36 0.6 q 0 0.29 -0.21 0.5 q -0.2 0.19 -0.48 0.19 Z "/>
        </symbol>
        <symbol id="gA7BB0800EEC67A0FCEFA0B4A375E46EF" overflow="visible">
            <path d="M 0 0m 4.28 8.69 h 0.83 v -1.65 h 2.4 l 0.44 -0.46 q -1.04 -1.41 -2.78 -2.66 v -4.62 h -0.82 v 4.09 q -1.79 -1.09 -3.73 -1.73 l -0.43 0.71 q 2.51 0.74 4.52 2.14 q 1.15 0.8 1.99 1.79 h -5.6 v 0.73 h 3.17 v 1.65 Z m 4.55 -7.29 q -1.62 1.28 -3.26 2.13 l 0.5 0.54 q 1.87 -0.91 3.25 -1.98 l -0.49 -0.69 Z "/>
        </symbol>
        <symbol id="gEFDCA6F0AE348E9F3E35908307E9853F" overflow="visible">
            <path d="M 0 0m 2.64 8.03 h 0.83 v -1.79 q 0 -1.65 -0.12 -2.52 q -0.15 -1.11 -0.51 -1.83 q -0.62 -1.25 -1.87 -2.06 l -0.56 0.65 q 1.39 0.96 1.85 2.26 q 0.39 1.11 0.39 3.47 v 1.83 Z m 2.55 0.29 h 0.83 v -7.46 q 1.09 0.51 1.9 1.43 q 0.96 1.1 1.41 2.67 l 0.64 -0.65 q -0.56 -1.67 -1.59 -2.78 q -1 -1.07 -2.56 -1.75 l -0.62 0.53 v 8.01 Z "/>
        </symbol>
        <symbol id="g307BDB8DE2DA26D8907AF4F817B8BEDF" overflow="visible">
            <path d="M 0 0m 5.85 0.46 q 1.23 0.31 1.99 0.97 q 1.03 0.88 1.03 2.57 q 0 1.11 -0.53 1.96 q -0.73 1.17 -2.4 1.42 q -0.35 -3.38 -1.43 -5.47 q -0.46 -0.89 -0.89 -1.28 q -0.47 -0.42 -0.97 -0.42 q -0.68 0 -1.23 0.67 q -0.3 0.35 -0.49 0.89 q -0.27 0.74 -0.27 1.59 q 0 1.47 0.83 2.68 q 0.82 1.2 2.1 1.71 q 0.87 0.34 1.88 0.34 q 1.56 0 2.68 -0.78 q 0.97 -0.68 1.38 -1.81 q 0.25 -0.69 0.25 -1.48 q 0 -3.35 -3.48 -4.29 l -0.44 0.72 Z m -0.68 6.93 q -1.19 -0.07 -2.04 -0.71 q -1.28 -0.97 -1.55 -2.51 q -0.07 -0.39 -0.07 -0.78 q 0 -1.21 0.53 -1.89 q 0.31 -0.39 0.64 -0.39 q 0.37 0 0.75 0.56 q 0.61 0.92 1.1 2.48 q 0.41 1.31 0.65 3.25 Z "/>
        </symbol>
        <symbol id="g23015FCB14550E285C9A96C7E27E91CF" overflow="visible">
            <path d="M 0 0m 7.7 7.22 l 0.63 -0.53 q -0.56 -3.13 -2.1 -4.8 q -1.4 -1.53 -4.07 -2.34 l -0.48 0.74 q 2.59 0.72 3.96 2.27 q 1.3 1.47 1.76 3.92 h -3.75 q -1 -1.57 -2.45 -2.56 l -0.6 0.6 q 1.03 0.68 1.72 1.5 q 0.88 1.05 1.38 2.5 l 0.81 -0.23 q -0.21 -0.58 -0.44 -1.06 h 3.62 Z "/>
        </symbol>
        <symbol id="gA58F4F7F49F3A9F792C57784684747CB" overflow="visible">
            <path d="M 0 0m 1.44 8.07 h 6.49 v -0.74 h -6.49 v 0.74 Z m -0.73 -2.49 h 8.2 q -0.23 -2.25 -1.02 -3.5 q -0.71 -1.11 -1.97 -1.71 q -1.14 -0.54 -2.85 -0.81 l -0.38 0.75 q 2.5 0.32 3.69 1.34 q 1.27 1.1 1.52 3.19 h -7.18 v 0.74 Z "/>
        </symbol>
        <symbol id="g9C0047D3C8DA79516CA8C7FA7995D139" overflow="visible">
            <path d="M 0 0m 1.27 7.73 h 6 l 0.51 -0.47 q -0.77 -1.98 -2.04 -3.71 q 1.73 -1.35 3.22 -3.01 l -0.63 -0.69 q -1.4 1.62 -3.08 3.1 q -1.71 -2.06 -4.19 -3.14 l -0.48 0.74 q 2.47 1 4.12 3 q 1.42 1.72 2.04 3.44 h -5.48 v 0.74 Z "/>
        </symbol>
        <symbol id="g3489399D93CA17F1232EEDE90E433DF1" overflow="visible">
            <path d="M 0 0m 1.19 7.39 h 2.71 q 0.41 0.65 0.7 1.18 l 0.81 -0.13 q -0.21 -0.37 -0.57 -0.95 l -0.06 -0.1 h 3.76 v -0.72 h -4.24 q -0.75 -1.1 -1.43 -1.83 q 1.04 0.65 1.85 0.65 q 1.28 0 1.6 -1.37 q 1.41 0.47 2.78 0.86 l 0.32 -0.73 q -2 -0.53 -3 -0.86 q 0.08 -0.75 0.09 -1.78 l -0.81 -0.05 v 0.16 q -0.01 0.94 -0.04 1.4 q -1.38 -0.51 -1.97 -0.97 q -0.53 -0.42 -0.53 -0.85 q 0 -0.49 0.66 -0.68 q 0.56 -0.17 2.01 -0.17 q 1.33 0 2.84 0.16 l 0.1 -0.81 q -1.47 -0.11 -2.95 -0.11 q -1.77 0 -2.54 0.28 q -0.96 0.36 -0.96 1.25 q 0 1.03 1.41 1.84 q 0.66 0.37 1.84 0.81 q -0.13 0.49 -0.33 0.71 q -0.25 0.26 -0.64 0.26 q -0.54 0 -1.45 -0.49 q -0.89 -0.47 -1.82 -1.33 l -0.5 0.56 q 1.12 1.08 1.86 2.05 q 0.2 0.26 0.69 0.97 l 0.05 0.07 h -2.23 v 0.72 Z "/>
        </symbol>
        <symbol id="g88F8774C46BBC17DAFAECA858912D50B" overflow="visible">
            <path d="M 0 0m 5.08 4.14 q -0.17 -2.05 -0.96 -3.15 q -0.89 -1.24 -2.73 -1.95 l -0.54 0.69 q 1.73 0.55 2.57 1.73 q 0.64 0.89 0.82 2.68 h -2.07 v 0.74 h 6.25 q -0.07 -3.44 -0.37 -4.8 q -0.12 -0.56 -0.51 -0.77 q -0.31 -0.17 -0.98 -0.17 q -0.84 0 -1.49 0.05 l -0.19 0.82 q 0.89 -0.1 1.54 -0.1 q 0.56 0 0.72 0.27 q 0.32 0.57 0.41 3.78 l 0.01 0.17 h -2.46 Z m -4.83 0.34 q 2.34 1.58 3.32 4.39 l 0.78 -0.3 q -0.57 -1.57 -1.4 -2.67 q -0.84 -1.11 -2.13 -2.06 l -0.57 0.63 Z m 9.55 -0.37 q -1.29 0.91 -2.17 1.88 q -1 1.1 -1.76 2.62 l 0.72 0.34 q 1.34 -2.68 3.73 -4.13 l -0.51 -0.71 Z "/>
        </symbol>
        <symbol id="g1509993E4B41B5EB7236CC3EC71F9E42" overflow="visible">
            <path d="M 0 0m 3.78 7.91 h 2.6 v -1.65 h -0.66 v -0.49 h -1.95 v -0.74 h 2.13 v -0.61 h -2.13 v -0.74 h 2.8 v -0.64 h -6.32 v 0.64 h 2.75 v 0.74 h -2.11 v 0.61 h 2.11 v 0.74 h -1.87 v 0.49 h -0.69 v 1.65 h 2.55 v 1.07 h 0.79 v -1.07 Z m -2.57 -0.64 v -0.88 h 1.79 v 0.88 h -1.79 Z m 4.42 -0.88 v 0.88 h -1.86 v -0.88 h 1.86 Z m -0.01 -4.12 v -3.16 h -0.78 v 0.41 h -2.92 v -0.51 h -0.79 v 3.26 h 4.49 Z m -3.7 -0.63 v -1.47 h 2.92 v 1.47 h -2.92 Z m 5.23 6.5 h 0.77 v -6.55 h -0.77 v 6.55 Z m 1.88 0.51 h 0.78 v -8.64 q 0 -0.51 -0.28 -0.72 q -0.23 -0.16 -0.74 -0.16 q -0.52 0 -1.22 0.06 l -0.15 0.81 q 0.72 -0.09 1.26 -0.09 q 0.23 0 0.28 0.06 q 0.06 0.06 0.06 0.29 v 8.39 Z "/>
        </symbol>
        <symbol id="g7C60F5EBCB42658F5C81CAB92A0B5C87" overflow="visible">
            <path d="M 0 0m 1.31 8.32 h 0.85 v -5.92 q 0 -2.08 2.19 -2.08 q 0.94 0 1.7 0.59 q 1.01 0.78 1.65 3.09 l 0.75 -0.47 q -0.53 -1.8 -1.25 -2.69 q -1.08 -1.34 -2.92 -1.34 q -1.8 0 -2.53 1.13 q -0.45 0.69 -0.45 1.78 v 5.91 Z "/>
        </symbol>
        <symbol id="g406DD130EE2B3482AEB6227490A3E20A" overflow="visible">
            <path d="M 0 0m 4.83 8.63 h 0.82 v -1.4 h 3.25 v -0.72 h -3.25 v -1.41 h 3.07 v -0.71 h -3.07 v -1.72 q 1.89 -0.64 3.54 -1.84 l -0.45 -0.72 q -1.32 1.03 -3.09 1.81 v -0.15 q 0 -1.27 -0.74 -1.78 q -0.53 -0.37 -1.52 -0.37 q -0.84 0 -1.48 0.32 q -0.94 0.46 -0.94 1.34 q 0 0.97 0.98 1.4 q 0.68 0.3 1.76 0.3 q 0.51 0 1.11 -0.1 v 1.51 h -3.67 v 0.71 h 3.67 v 1.41 h -3.86 v 0.72 h 3.86 v 1.4 Z m 0 -6.48 q -0.65 0.14 -1.26 0.14 q -0.73 0 -1.18 -0.22 q -0.56 -0.27 -0.56 -0.79 q 0 -0.45 0.45 -0.71 q 0.43 -0.25 1.12 -0.25 q 0.86 0 1.19 0.49 q 0.25 0.35 0.25 0.99 v 0.35 Z "/>
        </symbol>
        <symbol id="gD5F4798B5435AD13EBBDB071298304E7" overflow="visible">
            <path d="M 0 0m 3.75 -1 q -0.94 0.85 -1.54 2.07 q -0.74 1.5 -0.74 2.93 q 0 1.61 0.93 3.29 q 0.56 1 1.35 1.7 h 0.77 q -0.69 -0.79 -1.11 -1.46 q -1.07 -1.7 -1.07 -3.54 q 0 -1.73 0.95 -3.34 q 0.45 -0.76 1.22 -1.64 h -0.77 Z "/>
        </symbol>
        <symbol id="gC2B73238C9B06EF8630F948F2B921B9B" overflow="visible">
            <path d="M 0 0m 1.11 8.24 h 0.99 v -7.63 h 4.1 v -0.87 h -5.09 v 8.51 Z "/>
        </symbol>
        <symbol id="gD72778884F21F6CA165F844F170BD213" overflow="visible">
            <path d="M 0 0m 4.92 3.66 v 0.2 q 0 0.74 -0.41 1.1 q -0.37 0.33 -1.14 0.33 q -1.13 0 -2.07 -0.72 l -0.42 0.68 q 1.1 0.83 2.51 0.83 q 1.28 0 1.93 -0.69 q 0.54 -0.57 0.54 -1.58 v -2.23 q 0 -1.18 0.37 -1.85 h -0.92 q -0.2 0.43 -0.3 1.09 h -0.03 q -0.29 -0.52 -0.86 -0.89 q -0.58 -0.38 -1.43 -0.38 q -0.89 0 -1.47 0.52 q -0.62 0.55 -0.62 1.41 q 0 1.03 0.9 1.6 q 0.89 0.56 2.7 0.56 h 0.72 Z m 0 -0.73 h -0.66 q -2.67 0 -2.67 -1.43 q 0 -0.46 0.29 -0.77 q 0.35 -0.36 0.96 -0.36 q 0.79 0 1.38 0.5 q 0.7 0.58 0.7 1.38 v 0.67 Z "/>
        </symbol>
        <symbol id="g136556B102E06BCE0E2FA36B68E94068" overflow="visible">
            <path d="M 0 0m 0.36 5.93 h 1.09 l 1.31 -2.9 q 0.29 -0.64 0.49 -1.29 h 0.03 l 0.05 0.1 q 0.36 0.87 0.5 1.17 l 1.36 2.92 h 1.08 l -2.96 -5.99 q -0.37 -0.75 -0.92 -1 q -0.4 -0.18 -1.02 -0.18 h -0.39 l -0.26 0.83 h 0.52 q 0.51 0 0.78 0.15 q 0.28 0.15 0.48 0.56 l 0.28 0.59 l -2.44 5.05 Z "/>
        </symbol>
        <symbol id="gAA965D80283F3847A3DE67FAF001E382" overflow="visible">
            <path d="M 0 0m 6.44 2.73 h -4.77 q 0.02 -0.97 0.46 -1.55 q 0.59 -0.78 1.71 -0.78 q 1.18 0 1.99 1.03 l 0.59 -0.63 q -1.02 -1.23 -2.63 -1.23 q -1.6 0 -2.47 1.09 q -0.67 0.85 -0.67 2.12 q 0 1.1 0.48 1.91 q 0.47 0.79 1.28 1.15 q 0.56 0.26 1.2 0.26 q 1.48 0 2.27 -1.18 q 0.55 -0.82 0.55 -1.92 v -0.27 Z m -1 0.73 q -0.06 0.76 -0.48 1.24 q -0.52 0.6 -1.35 0.6 q -0.6 0 -1.1 -0.38 q -0.66 -0.5 -0.79 -1.46 h 3.73 Z "/>
        </symbol>
        <symbol id="gE3430E4637C99782FFE9D68E54406C7E" overflow="visible">
            <path d="M 0 0m 1.86 4.22 h 0.04 q 0.65 1.86 2.01 1.86 q 0.43 0 0.79 -0.17 l -0.3 -0.88 q -0.27 0.12 -0.63 0.12 q -1.3 0 -1.83 -2.17 v -3.24 h -0.96 v 6.19 h 0.92 l -0.05 -1.71 Z "/>
        </symbol>
        <symbol id="gD1F7E8ADB44C896396E5613B002301F7" overflow="visible">
            <path d="M 0 0m 1.03 8.24 h 2.55 q 1.79 0 2.92 -0.75 q 0.75 -0.49 1.18 -1.28 q 0.53 -0.96 0.53 -2.21 q 0 -1.56 -0.77 -2.64 q -1.17 -1.63 -3.94 -1.63 h -2.47 v 8.51 Z m 0.96 -0.84 v -6.81 h 1.44 q 1.44 0 2.36 0.57 q 0.73 0.45 1.09 1.29 q 0.29 0.68 0.29 1.55 q 0 2.04 -1.37 2.87 q -0.9 0.54 -2.3 0.54 h -1.5 Z "/>
        </symbol>
        <symbol id="gFF7F8422A71F5BC7206C968452CB1571" overflow="visible">
            <path d="M 0 0m 0.17 5.93 h 1.01 l 1.05 -3.64 q 0.23 -0.79 0.38 -1.44 h 0.03 q 0.26 0.97 0.42 1.44 l 1.13 3.19 h 0.86 l 1.14 -3.19 q 0.14 -0.39 0.38 -1.32 l 0.03 -0.12 h 0.04 q 0.13 0.6 0.37 1.44 l 1.05 3.64 h 1.01 l -2 -6.29 h -0.81 l -1.26 3.44 q -0.2 0.54 -0.36 1.33 h -0.04 q -0.18 -0.86 -0.35 -1.33 l -1.26 -3.44 h -0.81 l -2 6.29 Z "/>
        </symbol>
        <symbol id="g29D908790C15C21092CEBE82A5B8AD5C" overflow="visible">
            <path d="M 0 0m 1.02 1.67 q 1.09 -1.23 2.76 -1.23 q 0.87 0 1.34 0.36 q 0.54 0.41 0.54 1.1 q 0 0.7 -0.53 1.12 q -0.44 0.34 -1.5 0.71 l -0.56 0.19 q -1.04 0.35 -1.5 0.71 q -0.71 0.55 -0.71 1.48 q 0 1.04 0.73 1.64 q 0.77 0.65 2.04 0.65 q 1.56 0 2.75 -0.94 l -0.51 -0.73 q -0.95 0.86 -2.25 0.86 q -0.86 0 -1.32 -0.4 q -0.41 -0.36 -0.41 -0.97 q 0 -0.51 0.36 -0.85 q 0.4 -0.37 1.45 -0.72 l 0.61 -0.2 q 1.24 -0.41 1.79 -0.96 q 0.61 -0.62 0.61 -1.52 q 0 -1.15 -0.88 -1.8 q -0.76 -0.57 -2.09 -0.57 q -2.1 0 -3.33 1.41 l 0.59 0.68 Z "/>
        </symbol>
        <symbol id="g3264DCB6D067AC41214BE6680A353ECD" overflow="visible">
            <path d="M 0 0m 0.12 5.93 h 1.08 l 1.37 -3.74 l 0.05 -0.13 q 0.28 -0.76 0.4 -1.22 h 0.04 q 0.11 0.43 0.42 1.26 l 0.04 0.1 l 1.37 3.74 h 1.08 l -2.54 -6.3 h -0.77 l -2.54 6.3 Z "/>
        </symbol>
        <symbol id="g78DB2DEA8C9DC7CB19F4605FF4922BF5" overflow="visible">
            <path d="M 0 0m 1.1 8.4 h 1.15 v -1.14 h -1.15 v 1.14 Z m 0.09 -2.47 h 0.96 v -6.19 h -0.96 v 6.19 Z "/>
        </symbol>
        <symbol id="g19E0A72623EB478E5963A6FE9206F8BB" overflow="visible">
            <path d="M 0 0m 6.31 0.73 q -0.96 -1.17 -2.65 -1.17 q -1.33 0 -2.17 0.82 q -0.92 0.9 -0.92 2.45 q 0 1.15 0.57 2 q 0.53 0.78 1.41 1.1 q 0.49 0.17 1.04 0.17 q 1.4 0 2.45 -0.89 l -0.5 -0.7 q -0.83 0.78 -1.89 0.78 q -1.03 0 -1.6 -0.8 q -0.48 -0.65 -0.48 -1.66 q 0 -0.81 0.33 -1.39 q 0.35 -0.63 0.99 -0.89 q 0.38 -0.16 0.82 -0.16 q 1.2 0 1.99 0.98 l 0.61 -0.63 Z "/>
        </symbol>
        <symbol id="g881C8CFA882D26DE98D5699B6886BC57" overflow="visible">
            <path d="M 0 0m 7.03 7.43 q -0.01 -0.07 -0.01 -0.18 q -0.07 -3.1 -0.75 -5.1 q -0.6 -1.76 -2.23 -3.01 l -0.59 0.59 q 1.63 1.19 2.17 3.11 q 0.28 0.96 0.43 2.24 q 0.14 1.23 0.16 2.27 q 0 0.04 0 0.08 h -1.96 v 0.75 h 5.49 q -0.04 -6.2 -0.33 -7.85 q -0.1 -0.53 -0.37 -0.8 q -0.31 -0.3 -0.95 -0.3 q -0.66 0 -1.47 0.1 l -0.18 0.84 q 0.94 -0.15 1.5 -0.15 q 0.46 0 0.58 0.39 q 0.3 0.97 0.37 6.65 l 0.01 0.37 h -1.88 Z m -4.7 -1.8 v -3.11 q 0 -0.27 0.16 -0.33 q 0.1 -0.04 0.53 -0.04 q 0.61 0 0.8 0.06 q 0.16 0.05 0.22 0.33 q 0.04 0.21 0.08 0.99 l 0.01 0.2 l 0.78 -0.26 q -0.06 -0.99 -0.14 -1.31 q -0.15 -0.54 -0.7 -0.68 q -0.36 -0.09 -1.05 -0.09 q -0.86 0 -1.17 0.15 q -0.33 0.17 -0.33 0.69 v 3.26 l -1.26 -0.22 l -0.1 0.76 l 1.36 0.23 v 2.62 h 0.81 v -2.48 l 2.47 0.41 l 0.09 -0.73 l -2.55 -0.44 Z "/>
        </symbol>
        <symbol id="g57185371A1D407CD13ECBEC98EC5237B" overflow="visible">
            <path d="M 0 0m 3.96 4.25 q -0.48 -0.85 -0.97 -1.3 q -0.43 -0.39 -0.75 -0.39 q -0.95 0 -0.95 2.83 q 0 1.41 0.33 3.05 l 0.82 -0.12 q -0.31 -1.74 -0.31 -2.95 q 0 -1.8 0.28 -1.8 q 0.09 0 0.31 0.23 q 0.44 0.46 0.75 1.11 l 0.49 -0.65 Z m -0.43 -4.11 q 1.55 0.43 2.36 1.37 q 0.94 1.1 0.94 3.28 q 0 1.57 -0.32 3.67 l 0.85 0.08 q 0.34 -2.06 0.34 -3.79 q 0 -2.66 -1.25 -3.9 q -0.88 -0.88 -2.48 -1.42 l -0.45 0.71 Z "/>
        </symbol>
        <symbol id="gEC8FA9F2A208B04B6CE43BD58DCB442C" overflow="visible">
            <path d="M 0 0m 5.62 5.32 h 2.85 v 2.7 h 0.83 v -3.44 h -3.68 v -4.14 h 3.19 v 2.6 h 0.83 v -4.04 h -0.83 v 0.68 h -7.13 v -0.68 h -0.84 v 4.04 h 0.84 v -2.6 h 3.12 v 4.14 h -3.62 v 3.44 h 0.83 v -2.7 h 2.79 v 3.66 h 0.82 v -3.66 Z "/>
        </symbol>
        <symbol id="gC4CC6AC66B82B4A13C6D385035CB2BCE" overflow="visible">
            <path d="M 0 0m 2.7 -0.84 q -0.86 1.22 -1.96 2.35 l 0.63 0.57 q 1.1 -1.07 2 -2.32 l -0.67 -0.6 Z "/>
        </symbol>
        <symbol id="g534343EB8F198294A1D4FA58C6A59A45" overflow="visible">
            <path d="M 0 0m 7.86 0.71 q -1.32 -1.14 -3.14 -1.14 q -1.88 0 -3.09 1.36 q -1.02 1.15 -1.02 3.04 q 0 1.55 0.77 2.7 q 0.26 0.38 0.58 0.69 q 1.13 1.05 2.69 1.05 q 0.96 0 1.75 -0.34 q 0.62 -0.27 1.27 -0.85 l -0.59 -0.7 q -0.61 0.63 -1.25 0.85 q -0.5 0.18 -1.12 0.18 q -1.36 0 -2.18 -0.99 q -0.86 -1.04 -0.86 -2.6 q 0 -1.34 0.67 -2.27 q 0.4 -0.55 1.01 -0.89 q 0.65 -0.35 1.36 -0.35 q 1.54 0 2.62 1.07 l 0.53 -0.8 Z "/>
        </symbol>
        <symbol id="g5D524EBC2AB09C14F176767D187428F1" overflow="visible">
            <path d="M 0 0m 3.58 6.09 q 1.27 0 2.14 -0.86 q 0.93 -0.91 0.93 -2.39 q 0 -0.87 -0.32 -1.56 q -0.41 -0.89 -1.25 -1.34 q -0.69 -0.38 -1.53 -0.38 q -1.51 0 -2.39 1.11 q -0.69 0.87 -0.69 2.17 q 0 1.69 1.18 2.61 q 0.83 0.64 1.92 0.64 Z m -0.03 -0.79 q -0.94 0 -1.55 -0.78 q -0.53 -0.67 -0.53 -1.7 q 0 -0.73 0.27 -1.29 q 0.26 -0.54 0.72 -0.85 q 0.49 -0.32 1.1 -0.32 q 0.73 0 1.29 0.48 q 0.79 0.68 0.79 1.98 q 0 1.1 -0.61 1.79 q -0.6 0.68 -1.49 0.68 Z "/>
        </symbol>
        <symbol id="gF870750992B4CA58B495EBCA4482FCB9" overflow="visible">
            <path d="M 0 0m 1.94 5.93 v -1.11 q 0.47 0.62 1.09 0.93 q 0.57 0.3 1.15 0.3 q 0.77 0 1.32 -0.38 q 0.83 -0.58 0.83 -2.01 v -3.92 h -0.95 v 3.8 q 0 1.68 -1.32 1.68 q -0.51 0 -0.98 -0.29 q -0.72 -0.42 -1.1 -1.26 v -3.94 h -0.96 v 6.19 h 0.93 Z "/>
        </symbol>
        <symbol id="g365E5E036BB8C99567A5698F308B39BA" overflow="visible">
            <path d="M 0 0m 1.04 1.21 q 0.95 -0.79 2.15 -0.79 q 1.38 0 1.38 0.91 q 0 0.42 -0.47 0.72 q -0.3 0.19 -0.94 0.42 l -0.53 0.19 q -0.89 0.31 -1.29 0.64 q -0.49 0.41 -0.49 1.09 q 0 0.82 0.7 1.3 q 0.58 0.4 1.45 0.4 q 1.27 0 2.34 -0.74 l -0.49 -0.73 q -0.86 0.65 -1.8 0.65 q -0.42 0 -0.71 -0.15 q -0.47 -0.24 -0.47 -0.7 q 0 -0.37 0.33 -0.58 q 0.21 -0.13 0.93 -0.4 l 0.65 -0.24 q 0.89 -0.33 1.32 -0.71 q 0.53 -0.46 0.53 -1.13 q 0 -0.88 -0.77 -1.39 q -0.59 -0.39 -1.73 -0.39 q -1.46 0 -2.59 0.91 l 0.51 0.73 Z "/>
        </symbol>
        <symbol id="g4422D14EC12F521DBC9A8DBACA97D33" overflow="visible">
            <path d="M 0 0m 1.01 5.93 h 0.95 v -3.79 q 0 -1.71 1.33 -1.71 q 0.53 0 1.04 0.33 q 0.67 0.44 1.03 1.25 v 3.92 h 0.97 v -6.19 h -0.92 v 1.13 q -0.47 -0.63 -1.1 -0.96 q -0.57 -0.29 -1.16 -0.29 q -1.17 0 -1.73 0.79 q -0.4 0.56 -0.4 1.6 v 3.92 Z "/>
        </symbol>
        <symbol id="gFD69CF45CAB4B63DAAC792D59AADBA2" overflow="visible">
            <path d="M 0 0m 1.74 5.93 v -1.07 q 0.27 0.61 0.86 0.94 q 0.43 0.25 0.87 0.25 q 1.31 0 1.71 -1.29 q 0.23 0.51 0.58 0.82 q 0.55 0.48 1.26 0.48 q 0.99 0 1.55 -0.8 q 0.37 -0.53 0.37 -1.59 v -3.92 h -0.93 v 3.9 q 0 0.77 -0.3 1.18 q -0.32 0.43 -0.87 0.43 q -0.51 0 -0.95 -0.47 q -0.39 -0.41 -0.53 -1 v -4.03 h -0.92 v 3.95 q 0 0.69 -0.28 1.08 q -0.33 0.47 -0.88 0.47 q -0.55 0 -1 -0.55 q -0.34 -0.42 -0.5 -1.04 v -3.91 h -0.94 v 6.19 h 0.9 Z "/>
        </symbol>
        <symbol id="gAC51554E209CAF8451FD06FD2F54E063" overflow="visible">
            <path d="M 0 0m 10.26 8.24 l -2.27 -8.62 h -0.84 l -1.53 4.7 q -0.3 0.91 -0.46 1.88 h -0.04 q -0.16 -0.99 -0.45 -1.88 l -1.53 -4.7 h -0.84 l -2.27 8.62 h 1.02 l 1.22 -4.89 q 0.23 -0.9 0.49 -2.18 h 0.05 q 0.2 0.96 0.55 2.1 l 1.34 4.3 h 0.88 l 1.35 -4.3 q 0.34 -1.09 0.55 -2.1 h 0.04 q 0.22 1.07 0.5 2.18 l 1.22 4.89 h 1.02 Z "/>
        </symbol>
        <symbol id="g5DAE5CE9BDD11656EC875284C6338934" overflow="visible">
            <path d="M 0 0m 5.49 8.72 h 0.95 v -9.01 h -0.91 v 0.9 q -0.23 -0.34 -0.53 -0.56 q -0.67 -0.48 -1.57 -0.48 q -0.94 0 -1.67 0.53 q -1.22 0.89 -1.22 2.73 q 0 1.07 0.46 1.86 q 0.5 0.86 1.4 1.21 q 0.49 0.18 1 0.18 q 0.87 0 1.55 -0.52 q 0.32 -0.25 0.54 -0.6 v 3.76 Z m 0 -4.81 q -0.78 1.37 -1.91 1.37 q -0.7 0 -1.24 -0.47 q -0.79 -0.68 -0.79 -2 q 0 -0.9 0.38 -1.52 q 0.56 -0.92 1.66 -0.92 q 0.7 0 1.28 0.48 q 0.36 0.3 0.63 0.81 v 2.25 Z "/>
        </symbol>
        <symbol id="g2C7B12B31B336C0E550130E1B9DB66F5" overflow="visible">
            <path d="M 0 0m 6.1 5.93 v -4.53 q 0 -1.31 -0.66 -1.96 q -0.7 -0.69 -2.03 -0.69 q -1.51 0 -2.55 0.8 l 0.47 0.69 q 0.83 -0.69 2.09 -0.69 q 1.07 0 1.5 0.72 q 0.24 0.39 0.24 0.94 v 0.7 q -0.27 -0.36 -0.72 -0.57 q -0.54 -0.26 -1.09 -0.26 q -0.87 0 -1.56 0.45 q -1.11 0.71 -1.11 2.05 q 0 1.18 0.95 1.92 q 0.75 0.58 1.73 0.58 q 1.07 0 1.83 -0.69 l 0.16 0.54 h 0.74 Z m -0.94 -1.58 q -0.57 0.93 -1.72 0.93 q -0.55 0 -0.97 -0.26 q -0.78 -0.47 -0.78 -1.44 q 0 -0.64 0.4 -1.11 q 0.5 -0.59 1.33 -0.59 q 0.87 0 1.45 0.61 q 0.16 0.16 0.29 0.39 v 1.46 Z "/>
        </symbol>
        <symbol id="g7137566E4772243D73C871F4A86AFF62" overflow="visible">
            <path d="M 0 0m 2.53 7.83 v -1.9 h 1.92 v -0.73 h -1.92 v -3.86 q 0 -0.44 0.08 -0.63 q 0.13 -0.33 0.54 -0.33 q 0.53 0 1.07 0.37 l 0.27 -0.68 q -0.68 -0.46 -1.49 -0.46 q -1.39 0 -1.39 1.61 v 3.98 h -1.46 v 0.73 h 1.46 v 1.41 l 0.93 0.49 Z "/>
        </symbol>
        <symbol id="g8254F2BEB5E55B6A6F94366F388AA453" overflow="visible">
            <path d="M 0 0m 2.95 6.33 v -7.23 h -0.84 v 5.81 q -0.72 -1.05 -1.45 -1.8 l -0.42 0.79 q 1.89 2 2.94 5.02 l 0.82 -0.23 q -0.44 -1.18 -1.05 -2.36 Z m 2.93 -1.08 q 1.87 0.78 3.21 1.75 l 0.64 -0.62 q -1.93 -1.27 -3.85 -1.92 v -3.78 q 0 -0.35 0.34 -0.42 q 0.31 -0.06 1.04 -0.06 q 1.17 0 1.52 0.09 q 0.29 0.07 0.35 0.43 q 0.11 0.6 0.13 1.66 l 0.86 -0.3 q -0.04 -1.22 -0.16 -1.79 q -0.13 -0.62 -0.67 -0.78 q -0.48 -0.15 -1.8 -0.15 q -1.54 0 -1.95 0.15 q -0.49 0.18 -0.49 0.9 v 8.31 h 0.83 v -3.46 Z "/>
        </symbol>
        <symbol id="gD8232988D1095D0BE3B477109BC83AA6" overflow="visible">
            <path d="M 0 0m 0.73 -1 q 0.69 0.79 1.11 1.46 q 1.07 1.7 1.07 3.52 q 0 1.74 -0.95 3.35 q -0.45 0.75 -1.22 1.64 h 0.77 q 0.94 -0.85 1.54 -2.07 q 0.74 -1.5 0.74 -2.92 q 0 -1.61 -0.93 -3.29 q -0.56 -1.01 -1.34 -1.7 h -0.77 Z "/>
        </symbol>
        <symbol id="gF3348DB9FDD553A0AB5023DC69177A7B" overflow="visible">
            <path d="M 0 0m 2.31 2.38 q 0.29 0 0.58 -0.12 q 0.37 -0.16 0.63 -0.47 q 0.36 -0.45 0.36 -1 q 0 -0.39 -0.19 -0.75 q -0.19 -0.34 -0.52 -0.56 q -0.41 -0.27 -0.88 -0.27 q -0.46 0 -0.86 0.27 q -0.71 0.48 -0.71 1.32 q 0 0.38 0.19 0.72 q 0.34 0.64 1.03 0.81 q 0.18 0.05 0.37 0.05 Z m -0.02 -0.65 q -0.25 0 -0.48 -0.14 q -0.44 -0.28 -0.44 -0.8 q 0 -0.36 0.25 -0.63 q 0.28 -0.3 0.69 -0.3 q 0.23 0 0.44 0.11 q 0.49 0.27 0.49 0.83 q 0 0.43 -0.33 0.71 q -0.26 0.22 -0.61 0.22 Z "/>
        </symbol>
        <symbol id="g8667E06F49CC7EC1BE81EAFD008A3EC6" overflow="visible">
            <path d="M 0 0m 5.63 6.37 h 3.15 v -5.28 h -5.75 v 5.28 h 1.78 q 0.09 0.35 0.16 0.7 l 0.04 0.17 h -4.2 v 0.66 h 4.32 q 0.01 0.05 0.02 0.1 q 0.07 0.38 0.13 0.98 l 0.85 -0.06 q -0.08 -0.54 -0.16 -1.02 h 3.94 v -0.66 h -4.08 q -0.13 -0.56 -0.21 -0.87 Z m 2.33 -0.63 h -4.11 v -0.91 h 4.11 v 0.91 Z m -4.11 -1.53 v -0.89 h 4.11 v 0.89 h -4.11 Z m 0 -1.51 v -0.97 h 4.11 v 0.97 h -4.11 Z m -2.05 -2.47 h 8.44 v -0.68 h -8.44 v -0.55 h -0.82 v 6.34 h 0.82 v -5.11 Z "/>
        </symbol>
        <symbol id="g431F080745F59729BA265E361474C17E" overflow="visible">
            <path d="M 0 0m 2.19 8.02 q 0.48 -0.94 0.93 -1.98 q 0.9 0.31 2.23 0.73 q -0.44 0.96 -0.75 1.52 l 0.67 0.27 q 0.38 -0.65 0.82 -1.6 q 0.68 0.14 1.2 0.14 q 1 0 1.57 -0.49 q 0.75 -0.65 0.75 -1.75 q 0 -1.44 -1.06 -2.07 q -0.75 -0.45 -2.31 -0.63 l -0.33 0.72 q 1.42 0.1 2.17 0.56 q 0.67 0.41 0.67 1.44 q 0 0.7 -0.39 1.11 q -0.38 0.41 -1.09 0.41 q -0.35 0 -0.89 -0.11 q 0.36 -0.97 0.52 -1.56 l -0.71 -0.34 q -0.26 0.92 -0.56 1.71 l -0.29 -0.09 q -1.26 -0.39 -1.92 -0.64 l 0.04 -0.1 l 0.36 -0.85 q 1.12 -2.7 1.71 -4.72 l -0.79 -0.26 q -0.64 2.22 -1.52 4.32 l -0.37 0.92 l -0.12 0.28 l -0.05 0.11 q -1.08 -0.39 -1.93 -0.73 l -0.27 0.73 l 0.1 0.04 q 0.74 0.27 1.66 0.6 l 0.15 0.05 l -0.07 0.14 q -0.54 1.17 -0.87 1.83 l 0.75 0.27 Z "/>
        </symbol>
        <symbol id="g733718C6C749A12B272F4567C00A4DF8" overflow="visible">
            <path d="M 0 0m 5.67 8.65 h 0.83 v -1.48 h 3.01 v -0.72 h -3.01 v -2.34 q 0.15 -0.47 0.15 -0.99 q 0 -1.75 -0.72 -2.59 q -0.8 -0.94 -2.54 -1.32 l -0.43 0.65 q 1.39 0.27 2.09 0.87 q 0.58 0.5 0.76 1.37 q -0.55 -0.69 -1.36 -0.69 q -0.84 0 -1.36 0.52 q -0.54 0.53 -0.54 1.53 q 0 0.63 0.33 1.18 q 0.13 0.22 0.32 0.38 q 0.57 0.53 1.36 0.53 q 0.62 0 1.11 -0.35 v 1.25 h -5.12 v 0.72 h 5.12 v 1.48 Z m 0.02 -5.14 v 0.17 q 0 0.38 -0.2 0.68 q -0.33 0.49 -0.92 0.49 q -0.35 0 -0.65 -0.22 q -0.55 -0.41 -0.55 -1.17 q 0 -0.58 0.26 -0.94 q 0.31 -0.43 0.91 -0.43 q 0.63 0 0.95 0.59 q 0.19 0.35 0.19 0.83 Z "/>
        </symbol>
        <symbol id="gE4360436F9025BCAC7F0969F9A83A6CD" overflow="visible">
            <path d="M 0 0m 7.4 -0.53 q -2.19 1.72 -5.85 3.89 q -0.66 0.39 -0.66 0.77 q 0 0.33 0.36 0.59 q 0.1 0.07 0.58 0.33 q 1.39 0.75 3.69 2.29 q 0.88 0.59 1.63 1.14 l 0.47 -0.64 q -0.83 -0.6 -2 -1.36 q -1.99 -1.29 -3.29 -2 q -0.4 -0.22 -0.4 -0.32 q 0 -0.1 0.18 -0.22 q 0.06 -0.04 0.5 -0.29 q 1.85 -1.03 4.12 -2.58 q 0.56 -0.39 1.17 -0.84 l -0.5 -0.76 Z "/>
        </symbol>
    </defs>
</svg>
