<svg class="typst-doc" viewBox="0 0 252 143.9" width="252pt" height="143.9pt" xmlns="http://www.w3.org/2000/svg" xmlns:xlink="http://www.w3.org/1999/xlink" xmlns:h5="http://www.w3.org/1999/xhtml">
    <g>
        <g class="typst-text" transform="matrix(1 0 0 -1 0 39.1)">
            <use xlink:href="#g80CC69A693CB558A114EF9FC19AD4922" x="0" y="0" fill="#1c1b1f" fill-rule="nonzero"/>
            <use xlink:href="#g9F952ECA1EB35FF6C1A531701BC04687" x="9.4" y="0" fill="#1c1b1f" fill-rule="nonzero"/>
            <use xlink:href="#g7A049C40684B532C410142BEE2DC5FD3" x="15.12" y="0" fill="#1c1b1f" fill-rule="nonzero"/>
            <use xlink:href="#g832FDB32169045A646F9C7A1971C85BF" x="22.12" y="0" fill="#1c1b1f" fill-rule="nonzero"/>
            <use xlink:href="#g6DDED66878B6269783BACEA6F879FCE6" x="30.18" y="0" fill="#1c1b1f" fill-rule="nonzero"/>
            <use xlink:href="#g3AA4DAA39B036FEE8444CE47337A1A8D" x="33.87" y="0" fill="#1c1b1f" fill-rule="nonzero"/>
            <use xlink:href="#g6DDED66878B6269783BACEA6F879FCE6" x="37.57" y="0" fill="#1c1b1f" fill-rule="nonzero"/>
            <use xlink:href="#g417ED91CFC111620AC431A590036F104" x="41.26" y="0" fill="#1c1b1f" fill-rule="nonzero"/>
            <use xlink:href="#g688A6887CEBD27A97A85542FEF4CDC59" x="46.32" y="0" fill="#1c1b1f" fill-rule="nonzero"/>
        </g>
        <g class="typst-group" transform="matrix(1 0 0 1 0 62.7)">
            <g>
                <path class="typst-shape" fill="#ffffff" fill-rule="nonzero" d="M 0 0m 0 5.7 c 0 -3.15 2.55 -5.7 5.7 -5.7 h 240.6 c 3.15 0 5.7 2.55 5.7 5.7 v 64.8 c 0 3.15 -2.55 5.7 -5.7 5.7 h -240.6 c -3.15 0 -5.7 -2.55 -5.7 -5.7 Z "/>
                <path class="typst-shape" fill="none" stroke="#d6d3da" stroke-width="0.6" stroke-linecap="butt" stroke-linejoin="miter" stroke-miterlimit="4" d="M 0 0m 5.7 0 h 240.6 c 3.15 0 5.7 2.55 5.7 5.7 v 64.8 c 0 3.15 -2.55 5.7 -5.7 5.7 h -240.6 c -3.15 0 -5.7 -2.55 -5.7 -5.7 v -64.8 c 0 -3.15 2.55 -5.7 5.7 -5.7 "/>
                <g class="typst-group">
                    <g>
                        <g class="typst-group" transform="matrix(1 0 0 1 9 8)">
                            <g>
                                <path class="typst-shape" fill="#1e6b3a" fill-rule="nonzero" d="M 0 0m 0 1.1 c 0 -0.61 0.49 -1.1 1.1 -1.1 h 5.8 c 0.61 0 1.1 0.49 1.1 1.1 v 5.8 c 0 0.61 -0.49 1.1 -1.1 1.1 h -5.8 c -0.61 0 -1.1 -0.49 -1.1 -1.1 Z "/>
                                <path class="typst-shape" fill="none" stroke="#1e6b3a" stroke-width="0.8" stroke-linecap="butt" stroke-linejoin="miter" stroke-miterlimit="4" d="M 0 0m 1.1 0 h 5.8 c 0.61 0 1.1 0.49 1.1 1.1 v 5.8 c 0 0.61 -0.49 1.1 -1.1 1.1 h -5.8 c -0.61 0 -1.1 -0.49 -1.1 -1.1 v -5.8 c 0 -0.61 0.49 -1.1 1.1 -1.1 "/>
                                <path class="typst-shape" fill="none" stroke="#ffffff" stroke-width="1.3" stroke-linecap="round" stroke-linejoin="round" stroke-miterlimit="4" d="M 0 0m 1.8 4.2 l 1.7 1.8 l 2.9 -3.8 "/>
                            </g>
                        </g>
                        <g class="typst-text" transform="matrix(1 0 0 -1 24 14.3)">
                            <use xlink:href="#gA64EAF1F866B1B8AD16777CF3F515B12" x="0" y="0" fill="#1c1b1f" fill-rule="nonzero"/>
                            <use xlink:href="#g487015CE0E5CFB72933777642E90B93A" x="3.7" y="0" fill="#1c1b1f" fill-rule="nonzero"/>
                            <use xlink:href="#g94B012C5A69C16A155244537EC7377F7" x="8.28" y="0" fill="#1c1b1f" fill-rule="nonzero"/>
                            <use xlink:href="#g46C966DE9770741F323AFB7F2FA3A826" x="16.04" y="0" fill="#1c1b1f" fill-rule="nonzero"/>
                            <use xlink:href="#g39F01A54AA9259CE9487DC06812C5E2C" x="19.43" y="0" fill="#1c1b1f" fill-rule="nonzero"/>
                            <use xlink:href="#gAB1FDF3D4635E551C83B874F8D177E16" x="24.21" y="0" fill="#1c1b1f" fill-rule="nonzero"/>
                            <use xlink:href="#g42809E90898E99596E10AF177884AE0D" x="28.92" y="0" fill="#1c1b1f" fill-rule="nonzero"/>
                            <use xlink:href="#gAB1FDF3D4635E551C83B874F8D177E16" x="31.1" y="0" fill="#1c1b1f" fill-rule="nonzero"/>
                            <use xlink:href="#gCC327FEA7CB8178C90C982986EB70D9B" x="35.81" y="0" fill="#1c1b1f" fill-rule="nonzero"/>
                            <use xlink:href="#gCDAB35AE8D13A8F27F52E27F9C0FDE68" x="39.96" y="0" fill="#1c1b1f" fill-rule="nonzero"/>
                            <use xlink:href="#gAB1FDF3D4635E551C83B874F8D177E16" x="43.01" y="0" fill="#1c1b1f" fill-rule="nonzero"/>
                            <use xlink:href="#gB2359E1D0204ADF29C4EF569A8426DE4" x="47.72" y="0" fill="#1c1b1f" fill-rule="nonzero"/>
                            <use xlink:href="#g61898CA52DC4E3397DA8D7415868A6E4" x="55.49" y="0" fill="#1c1b1f" fill-rule="nonzero"/>
                            <use xlink:href="#gFD6D67ADECF1EFA74F9ABBC2B13541C5" x="58.3" y="0" fill="#1c1b1f" fill-rule="nonzero"/>
                            <use xlink:href="#g42809E90898E99596E10AF177884AE0D" x="63.58" y="0" fill="#1c1b1f" fill-rule="nonzero"/>
                            <use xlink:href="#gB2359E1D0204ADF29C4EF569A8426DE4" x="65.76" y="0" fill="#1c1b1f" fill-rule="nonzero"/>
                            <use xlink:href="#gAB1FDF3D4635E551C83B874F8D177E16" x="71.06" y="0" fill="#1c1b1f" fill-rule="nonzero"/>
                            <use xlink:href="#g5F9F3C7628C6B2A484A79C34ACA25663" x="75.76" y="0" fill="#1c1b1f" fill-rule="nonzero"/>
                            <use xlink:href="#g5A94AABC043644E03CF2F4B42594D892" x="78.89" y="0" fill="#1c1b1f" fill-rule="nonzero"/>
                            <use xlink:href="#gCDAB35AE8D13A8F27F52E27F9C0FDE68" x="84.75" y="0" fill="#1c1b1f" fill-rule="nonzero"/>
                            <use xlink:href="#gFD6D67ADECF1EFA74F9ABBC2B13541C5" x="87.8" y="0" fill="#1c1b1f" fill-rule="nonzero"/>
                            <use xlink:href="#g5F9F3C7628C6B2A484A79C34ACA25663" x="95.54" y="0" fill="#1c1b1f" fill-rule="nonzero"/>
                            <use xlink:href="#gAB1FDF3D4635E551C83B874F8D177E16" x="98.67" y="0" fill="#1c1b1f" fill-rule="nonzero"/>
                            <use xlink:href="#gFD6D67ADECF1EFA74F9ABBC2B13541C5" x="103.37" y="0" fill="#1c1b1f" fill-rule="nonzero"/>
                            <use xlink:href="#g94B012C5A69C16A155244537EC7377F7" x="108.65" y="0" fill="#1c1b1f" fill-rule="nonzero"/>
                            <use xlink:href="#gAB1FDF3D4635E551C83B874F8D177E16" x="113.94" y="0" fill="#1c1b1f" fill-rule="nonzero"/>
                            <use xlink:href="#g3244CBF5CA59663399B06746832CBA3E" x="118.64" y="0" fill="#1c1b1f" fill-rule="nonzero"/>
                            <use xlink:href="#gCDAB35AE8D13A8F27F52E27F9C0FDE68" x="126.2" y="0" fill="#1c1b1f" fill-rule="nonzero"/>
                            <use xlink:href="#g37BDA802563B1F479E10DF610A1997C9" x="129.25" y="0" fill="#1c1b1f" fill-rule="nonzero"/>
                            <use xlink:href="#gAB1FDF3D4635E551C83B874F8D177E16" x="134.35" y="0" fill="#1c1b1f" fill-rule="nonzero"/>
                            <use xlink:href="#gA9C1F96885D1DFF82675CECD772E8398" x="141.52" y="0" fill="#1c1b1f" fill-rule="nonzero"/>
                            <use xlink:href="#g487015CE0E5CFB72933777642E90B93A" x="149.27" y="0" fill="#1c1b1f" fill-rule="nonzero"/>
                            <use xlink:href="#g94B012C5A69C16A155244537EC7377F7" x="153.85" y="0" fill="#1c1b1f" fill-rule="nonzero"/>
                        </g>
                    </g>
                </g>
                <g class="typst-group">
                    <g>
                        <g class="typst-group" transform="matrix(1 0 0 1 9 34.1)">
                            <g>
                                <path class="typst-shape" fill="#1e6b3a" fill-rule="nonzero" d="M 0 0m 0 1.1 c 0 -0.61 0.49 -1.1 1.1 -1.1 h 5.8 c 0.61 0 1.1 0.49 1.1 1.1 v 5.8 c 0 0.61 -0.49 1.1 -1.1 1.1 h -5.8 c -0.61 0 -1.1 -0.49 -1.1 -1.1 Z "/>
                                <path class="typst-shape" fill="none" stroke="#1e6b3a" stroke-width="0.8" stroke-linecap="butt" stroke-linejoin="miter" stroke-miterlimit="4" d="M 0 0m 1.1 0 h 5.8 c 0.61 0 1.1 0.49 1.1 1.1 v 5.8 c 0 0.61 -0.49 1.1 -1.1 1.1 h -5.8 c -0.61 0 -1.1 -0.49 -1.1 -1.1 v -5.8 c 0 -0.61 0.49 -1.1 1.1 -1.1 "/>
                                <path class="typst-shape" fill="none" stroke="#ffffff" stroke-width="1.3" stroke-linecap="round" stroke-linejoin="round" stroke-miterlimit="4" d="M 0 0m 1.8 4.2 l 1.7 1.8 l 2.9 -3.8 "/>
                            </g>
                        </g>
                        <g class="typst-text" transform="matrix(1 0 0 -1 24 40.4)">
                            <use xlink:href="#gA64EAF1F866B1B8AD16777CF3F515B12" x="0" y="0" fill="#1c1b1f" fill-rule="nonzero"/>
                            <use xlink:href="#g37BDA802563B1F479E10DF610A1997C9" x="4.72" y="0" fill="#1c1b1f" fill-rule="nonzero"/>
                            <use xlink:href="#gAB1FDF3D4635E551C83B874F8D177E16" x="9.81" y="0" fill="#1c1b1f" fill-rule="nonzero"/>
                            <use xlink:href="#g666E9D7F3E501F9A51E6BB0376FEE8FC" x="16.98" y="0" fill="#1c1b1f" fill-rule="nonzero"/>
                            <use xlink:href="#g5F9F3C7628C6B2A484A79C34ACA25663" x="23.29" y="0" fill="#1c1b1f" fill-rule="nonzero"/>
                            <use xlink:href="#g155C22185A989FBE5032CC2459A7B2" x="26.42" y="0" fill="#1c1b1f" fill-rule="nonzero"/>
                            <use xlink:href="#g64D26177F20183C399CBFD5349411F90" x="28.6" y="0" fill="#1c1b1f" fill-rule="nonzero"/>
                            <use xlink:href="#gAB1FDF3D4635E551C83B874F8D177E16" x="32.91" y="0" fill="#1c1b1f" fill-rule="nonzero"/>
                            <use xlink:href="#g61898CA52DC4E3397DA8D7415868A6E4" x="40.08" y="0" fill="#1c1b1f" fill-rule="nonzero"/>
                            <use xlink:href="#gFD6D67ADECF1EFA74F9ABBC2B13541C5" x="42.9" y="0" fill="#1c1b1f" fill-rule="nonzero"/>
                            <use xlink:href="#g42809E90898E99596E10AF177884AE0D" x="48.17" y="0" fill="#1c1b1f" fill-rule="nonzero"/>
                            <use xlink:href="#gB2359E1D0204ADF29C4EF569A8426DE4" x="50.35" y="0" fill="#1c1b1f" fill-rule="nonzero"/>
                            <use xlink:href="#gAB1FDF3D4635E551C83B874F8D177E16" x="55.65" y="0" fill="#1c1b1f" fill-rule="nonzero"/>
                            <use xlink:href="#g5F9F3C7628C6B2A484A79C34ACA25663" x="60.36" y="0" fill="#1c1b1f" fill-rule="nonzero"/>
                            <use xlink:href="#gB2359E1D0204ADF29C4EF569A8426DE4" x="65.95" y="0" fill="#1c1b1f" fill-rule="nonzero"/>
                            <use xlink:href="#g155C22185A989FBE5032CC2459A7B2" x="71.25" y="0" fill="#1c1b1f" fill-rule="nonzero"/>
                            <use xlink:href="#g487015CE0E5CFB72933777642E90B93A" x="73.43" y="0" fill="#1c1b1f" fill-rule="nonzero"/>
                            <use xlink:href="#g42809E90898E99596E10AF177884AE0D" x="78.01" y="0" fill="#1c1b1f" fill-rule="nonzero"/>
                            <use xlink:href="#gFD6D67ADECF1EFA74F9ABBC2B13541C5" x="80.19" y="0" fill="#1c1b1f" fill-rule="nonzero"/>
                            <use xlink:href="#gB2929BBB07883ADED5EC1DDC2F96FA6" x="85.46" y="0" fill="#1c1b1f" fill-rule="nonzero"/>
                            <use xlink:href="#g155C22185A989FBE5032CC2459A7B2" x="93.23" y="0" fill="#1c1b1f" fill-rule="nonzero"/>
                            <use xlink:href="#g4B80878DB99B10F6F85C8A6550857B4F" x="95.41" y="0" fill="#1c1b1f" fill-rule="nonzero"/>
                            <use xlink:href="#g3244CBF5CA59663399B06746832CBA3E" x="101.69" y="0" fill="#1c1b1f" fill-rule="nonzero"/>
                            <use xlink:href="#gFD6D67ADECF1EFA74F9ABBC2B13541C5" x="106.79" y="0" fill="#1c1b1f" fill-rule="nonzero"/>
                            <use xlink:href="#g65C2E9EDF07C7DB2A5DDF68B8AC93102" x="112.06" y="0" fill="#1c1b1f" fill-rule="nonzero"/>
                            <use xlink:href="#gCDAB35AE8D13A8F27F52E27F9C0FDE68" x="121.03" y="0" fill="#1c1b1f" fill-rule="nonzero"/>
                            <use xlink:href="#g5F9F3C7628C6B2A484A79C34ACA25663" x="124.08" y="0" fill="#1c1b1f" fill-rule="nonzero"/>
                            <use xlink:href="#g487015CE0E5CFB72933777642E90B93A" x="127.21" y="0" fill="#1c1b1f" fill-rule="nonzero"/>
                            <use xlink:href="#g3244CBF5CA59663399B06746832CBA3E" x="131.79" y="0" fill="#1c1b1f" fill-rule="nonzero"/>
                            <use xlink:href="#g4B80878DB99B10F6F85C8A6550857B4F" x="136.88" y="0" fill="#1c1b1f" fill-rule="nonzero"/>
                            <use xlink:href="#g42809E90898E99596E10AF177884AE0D" x="140.7" y="0" fill="#1c1b1f" fill-rule="nonzero"/>
                            <use xlink:href="#g487015CE0E5CFB72933777642E90B93A" x="142.88" y="0" fill="#1c1b1f" fill-rule="nonzero"/>
                            <use xlink:href="#gCDAB35AE8D13A8F27F52E27F9C0FDE68" x="147.46" y="0" fill="#1c1b1f" fill-rule="nonzero"/>
                            <use xlink:href="#gAB1FDF3D4635E551C83B874F8D177E16" x="150.51" y="0" fill="#1c1b1f" fill-rule="nonzero"/>
                            <use xlink:href="#gB2359E1D0204ADF29C4EF569A8426DE4" x="155.21" y="0" fill="#1c1b1f" fill-rule="nonzero"/>
                        </g>
                    </g>
                </g>
                <g class="typst-group">
                    <g>
                        <g class="typst-group" transform="matrix(1 0 0 1 9 60.2)">
                            <g>
                                <path class="typst-shape" fill="#1e6b3a" fill-rule="nonzero" d="M 0 0m 0 1.1 c 0 -0.61 0.49 -1.1 1.1 -1.1 h 5.8 c 0.61 0 1.1 0.49 1.1 1.1 v 5.8 c 0 0.61 -0.49 1.1 -1.1 1.1 h -5.8 c -0.61 0 -1.1 -0.49 -1.1 -1.1 Z "/>
                                <path class="typst-shape" fill="none" stroke="#1e6b3a" stroke-width="0.8" stroke-linecap="butt" stroke-linejoin="miter" stroke-miterlimit="4" d="M 0 0m 1.1 0 h 5.8 c 0.61 0 1.1 0.49 1.1 1.1 v 5.8 c 0 0.61 -0.49 1.1 -1.1 1.1 h -5.8 c -0.61 0 -1.1 -0.49 -1.1 -1.1 v -5.8 c 0 -0.61 0.49 -1.1 1.1 -1.1 "/>
                                <path class="typst-shape" fill="none" stroke="#ffffff" stroke-width="1.3" stroke-linecap="round" stroke-linejoin="round" stroke-miterlimit="4" d="M 0 0m 1.8 4.2 l 1.7 1.8 l 2.9 -3.8 "/>
                            </g>
                        </g>
                        <g class="typst-text" transform="matrix(1 0 0 -1 24 66.5)">
                            <use xlink:href="#g3DB858D05634B720B3F25A409D17EA34" x="0" y="0" fill="#1c1b1f" fill-rule="nonzero"/>
                            <use xlink:href="#g42809E90898E99596E10AF177884AE0D" x="4.55" y="0" fill="#1c1b1f" fill-rule="nonzero"/>
                            <use xlink:href="#gAB1FDF3D4635E551C83B874F8D177E16" x="6.73" y="0" fill="#1c1b1f" fill-rule="nonzero"/>
                            <use xlink:href="#g64D26177F20183C399CBFD5349411F90" x="11.44" y="0" fill="#1c1b1f" fill-rule="nonzero"/>
                            <use xlink:href="#g487015CE0E5CFB72933777642E90B93A" x="15.75" y="0" fill="#1c1b1f" fill-rule="nonzero"/>
                            <use xlink:href="#gCDAB35AE8D13A8F27F52E27F9C0FDE68" x="20.33" y="0" fill="#1c1b1f" fill-rule="nonzero"/>
                            <use xlink:href="#g155C22185A989FBE5032CC2459A7B2" x="23.38" y="0" fill="#1c1b1f" fill-rule="nonzero"/>
                            <use xlink:href="#gFD6D67ADECF1EFA74F9ABBC2B13541C5" x="25.56" y="0" fill="#1c1b1f" fill-rule="nonzero"/>
                            <use xlink:href="#g3244CBF5CA59663399B06746832CBA3E" x="30.83" y="0" fill="#1c1b1f" fill-rule="nonzero"/>
                            <use xlink:href="#gCDAB35AE8D13A8F27F52E27F9C0FDE68" x="38.39" y="0" fill="#1c1b1f" fill-rule="nonzero"/>
                            <use xlink:href="#g155C22185A989FBE5032CC2459A7B2" x="41.44" y="0" fill="#1c1b1f" fill-rule="nonzero"/>
                            <use xlink:href="#g42809E90898E99596E10AF177884AE0D" x="43.62" y="0" fill="#1c1b1f" fill-rule="nonzero"/>
                            <use xlink:href="#gAB1FDF3D4635E551C83B874F8D177E16" x="45.8" y="0" fill="#1c1b1f" fill-rule="nonzero"/>
                            <use xlink:href="#g4B80878DB99B10F6F85C8A6550857B4F" x="50.51" y="0" fill="#1c1b1f" fill-rule="nonzero"/>
                            <use xlink:href="#g42809E90898E99596E10AF177884AE0D" x="56.79" y="0" fill="#1c1b1f" fill-rule="nonzero"/>
                            <use xlink:href="#gFD6D67ADECF1EFA74F9ABBC2B13541C5" x="58.97" y="0" fill="#1c1b1f" fill-rule="nonzero"/>
                            <use xlink:href="#g487015CE0E5CFB72933777642E90B93A" x="64.24" y="0" fill="#1c1b1f" fill-rule="nonzero"/>
                            <use xlink:href="#gB2359E1D0204ADF29C4EF569A8426DE4" x="68.82" y="0" fill="#1c1b1f" fill-rule="nonzero"/>
                            <use xlink:href="#g61898CA52DC4E3397DA8D7415868A6E4" x="76.59" y="0" fill="#1c1b1f" fill-rule="nonzero"/>
                            <use xlink:href="#g487015CE0E5CFB72933777642E90B93A" x="79.4" y="0" fill="#1c1b1f" fill-rule="nonzero"/>
                            <use xlink:href="#g4B80878DB99B10F6F85C8A6550857B4F" x="83.98" y="0" fill="#1c1b1f" fill-rule="nonzero"/>
                            <use xlink:href="#gCDAB35AE8D13A8F27F52E27F9C0FDE68" x="87.8" y="0" fill="#1c1b1f" fill-rule="nonzero"/>
                            <use xlink:href="#gAB1FDF3D4635E551C83B874F8D177E16" x="90.85" y="0" fill="#1c1b1f" fill-rule="nonzero"/>
                            <use xlink:href="#g5F9F3C7628C6B2A484A79C34ACA25663" x="95.56" y="0" fill="#1c1b1f" fill-rule="nonzero"/>
                        </g>
                    </g>
                </g>
            </g>
        </g>
    </g>
    <defs id="glyph">
        <symbol id="g80CC69A693CB558A114EF9FC19AD4922" overflow="visible">
            <path d="M 0 0m 8.46 3.94 q 0 -4.1 -3.82 -4.1 q -3.71 0 -3.71 4.01 v 5.26 h 2.06 v -5.28 q 0 -2.21 1.73 -2.21 q 1.69 0 1.69 2.13 v 5.36 h 2.05 v -5.16 Z "/>
        </symbol>
        <symbol id="g9F952ECA1EB35FF6C1A531701BC04687" overflow="visible">
            <path d="M 0 0m 0.42 0.17 v 1.62 q 0.5 -0.3 0.99 -0.44 q 0.49 -0.15 0.93 -0.15 q 0.53 0 0.84 0.15 q 0.31 0.15 0.31 0.44 q 0 0.19 -0.14 0.32 q -0.14 0.13 -0.36 0.22 q -0.22 0.1 -0.48 0.17 q -0.26 0.08 -0.5 0.17 q -0.39 0.15 -0.68 0.31 q -0.3 0.17 -0.5 0.39 q -0.2 0.22 -0.3 0.51 q -0.1 0.29 -0.1 0.69 q 0 0.55 0.24 0.94 q 0.24 0.39 0.63 0.64 q 0.4 0.25 0.91 0.37 q 0.51 0.12 1.06 0.12 q 0.43 0 0.88 -0.07 q 0.44 -0.07 0.88 -0.19 v -1.55 q -0.38 0.22 -0.82 0.33 q -0.43 0.11 -0.85 0.11 q -0.2 0 -0.37 -0.03 q -0.17 -0.03 -0.31 -0.1 q -0.13 -0.07 -0.21 -0.17 q -0.08 -0.1 -0.08 -0.24 q 0 -0.18 0.11 -0.3 q 0.11 -0.13 0.3 -0.22 q 0.18 -0.09 0.41 -0.17 q 0.23 -0.07 0.45 -0.15 q 0.4 -0.14 0.72 -0.3 q 0.32 -0.17 0.56 -0.39 q 0.23 -0.22 0.36 -0.52 q 0.12 -0.3 0.12 -0.71 q 0 -0.58 -0.25 -0.99 q -0.25 -0.41 -0.67 -0.67 q -0.42 -0.26 -0.96 -0.37 q -0.54 -0.12 -1.13 -0.12 q -1.07 0 -1.99 0.33 Z "/>
        </symbol>
        <symbol id="g7A049C40684B532C410142BEE2DC5FD3" overflow="visible">
            <path d="M 0 0m 6.25 0 h -1.9 v 0.93 h -0.03 q -0.65 -1.09 -1.94 -1.09 q -0.95 0 -1.49 0.54 q -0.54 0.54 -0.54 1.43 q 0 1.89 2.24 2.18 l 1.76 0.23 q 0 1.07 -1.16 1.07 q -1.16 0 -2.21 -0.69 v 1.51 q 0.42 0.22 1.15 0.38 q 0.73 0.17 1.32 0.17 q 2.78 0 2.78 -2.77 v -3.88 Z m -1.89 2.64 v 0.44 l -1.18 -0.15 q -0.98 -0.13 -0.98 -0.88 q 0 -0.34 0.24 -0.56 q 0.24 -0.22 0.64 -0.22 q 0.56 0 0.92 0.39 q 0.36 0.39 0.36 0.99 Z "/>
        </symbol>
        <symbol id="g832FDB32169045A646F9C7A1971C85BF" overflow="visible">
            <path d="M 0 0m 2.88 0.76 h -0.03 v -0.76 h -2.01 v 9.62 h 2.01 v -4.1 h 0.03 q 0.74 1.14 2.11 1.14 q 1.26 0 1.94 -0.86 q 0.68 -0.86 0.68 -2.36 q 0 -1.62 -0.79 -2.61 q -0.79 -0.98 -2.12 -0.98 q -1.2 0 -1.82 0.91 Z m -0.06 2.74 v -0.67 q 0 -0.63 0.36 -1.04 q 0.36 -0.41 0.93 -0.41 q 0.69 0 1.06 0.53 q 0.38 0.53 0.38 1.5 q 0 0.81 -0.35 1.26 q -0.35 0.45 -0.99 0.45 q -0.6 0 -1 -0.45 q -0.4 -0.45 -0.4 -1.17 Z "/>
        </symbol>
        <symbol id="g6DDED66878B6269783BACEA6F879FCE6" overflow="visible">
            <path d="M 0 0m 1.86 7.53 q -0.51 0 -0.83 0.3 q -0.32 0.3 -0.32 0.74 q 0 0.45 0.32 0.74 q 0.32 0.29 0.83 0.29 q 0.51 0 0.83 -0.29 q 0.32 -0.29 0.32 -0.74 q 0 -0.46 -0.32 -0.75 q -0.32 -0.29 -0.83 -0.29 Z m 0.99 -7.53 h -2.01 v 6.5 h 2.01 v -6.5 Z "/>
        </symbol>
        <symbol id="g3AA4DAA39B036FEE8444CE47337A1A8D" overflow="visible">
            <path d="M 0 0m 2.85 0 h -2.01 v 9.62 h 2.01 v -9.62 Z "/>
        </symbol>
        <symbol id="g417ED91CFC111620AC431A590036F104" overflow="visible">
            <path d="M 0 0m 4.77 0.08 q -0.44 -0.23 -1.34 -0.23 q -2.12 0 -2.12 2.2 v 2.98 h -1.05 v 1.48 h 1.05 v 1.4 l 2 0.57 v -1.97 h 1.46 v -1.48 h -1.46 v -2.63 q 0 -1.02 0.81 -1.02 q 0.32 0 0.65 0.18 v -1.49 Z "/>
        </symbol>
        <symbol id="g688A6887CEBD27A97A85542FEF4CDC59" overflow="visible">
            <path d="M 0 0m 7.03 6.5 l -2.64 -7.02 q -0.95 -2.53 -2.87 -2.53 q -0.73 0 -1.2 0.17 v 1.6 q 0.4 -0.23 0.87 -0.23 q 0.77 0 1.08 0.73 l 0.34 0.81 l -2.64 6.49 h 2.22 l 1.21 -3.95 q 0.11 -0.37 0.18 -0.87 h 0.03 q 0.06 0.37 0.21 0.86 l 1.23 3.97 h 1.99 Z "/>
        </symbol>
        <symbol id="gA64EAF1F866B1B8AD16777CF3F515B12" overflow="visible">
            <path d="M 0 0m 4.55 5.63 h -1.82 v -5.63 h -0.74 v 5.63 h -1.81 v 0.67 h 4.37 v -0.67 Z "/>
        </symbol>
        <symbol id="g487015CE0E5CFB72933777642E90B93A" overflow="visible">
            <path d="M 0 0m 3.95 0 h -0.72 v 0.7 h -0.02 q -0.47 -0.81 -1.38 -0.81 q -0.67 0 -1.05 0.36 q -0.38 0.36 -0.38 0.94 q 0 1.26 1.49 1.47 l 1.35 0.19 q 0 1.15 -0.93 1.15 q -0.81 0 -1.47 -0.55 v 0.74 q 0.66 0.42 1.53 0.42 q 1.59 0 1.59 -1.68 v -2.93 Z m -0.72 2.28 l -1.09 -0.15 q -0.5 -0.07 -0.76 -0.25 q -0.25 -0.18 -0.25 -0.63 q 0 -0.33 0.24 -0.54 q 0.24 -0.21 0.63 -0.21 q 0.54 0 0.89 0.38 q 0.35 0.38 0.35 0.95 v 0.45 Z "/>
        </symbol>
        <symbol id="g94B012C5A69C16A155244537EC7377F7" overflow="visible">
            <path d="M 0 0m 1.47 0.65 h -0.02 v -2.72 h -0.72 v 6.57 h 0.72 v -0.79 h 0.02 q 0.53 0.9 1.56 0.9 q 0.87 0 1.36 -0.6 q 0.49 -0.6 0.49 -1.62 q 0 -1.13 -0.55 -1.81 q -0.55 -0.68 -1.5 -0.68 q -0.87 0 -1.35 0.76 Z m -0.02 1.81 v -0.63 q 0 -0.56 0.36 -0.95 q 0.36 -0.39 0.92 -0.39 q 0.65 0 1.03 0.5 q 0.37 0.5 0.37 1.39 q 0 0.75 -0.35 1.18 q -0.35 0.43 -0.94 0.43 q -0.63 0 -1.01 -0.44 q -0.38 -0.44 -0.38 -1.1 Z "/>
        </symbol>
        <symbol id="g46C966DE9770741F323AFB7F2FA3A826" overflow="visible">
            <path d="M 0 0m 2.94 6.41 l -0.49 -1.96 h -0.65 l 0.62 1.96 h 0.51 Z m -1.34 0 l -0.47 -1.96 h -0.66 l 0.62 1.96 h 0.52 Z "/>
        </symbol>
        <symbol id="g39F01A54AA9259CE9487DC06812C5E2C" overflow="visible">
            <path d="M 0 0m 0.53 0.25 v 0.87 q 0.15 -0.13 0.36 -0.24 q 0.21 -0.11 0.44 -0.18 q 0.23 -0.07 0.46 -0.11 q 0.23 -0.04 0.43 -0.04 q 0.68 0 1.02 0.25 q 0.34 0.25 0.34 0.73 q 0 0.25 -0.11 0.44 q -0.11 0.19 -0.31 0.34 q -0.2 0.16 -0.47 0.3 q -0.27 0.14 -0.58 0.3 q -0.33 0.17 -0.62 0.34 q -0.29 0.17 -0.5 0.38 q -0.21 0.21 -0.33 0.47 q -0.12 0.26 -0.12 0.61 q 0 0.43 0.19 0.75 q 0.19 0.32 0.5 0.53 q 0.31 0.21 0.7 0.31 q 0.39 0.1 0.8 0.1 q 0.93 0 1.36 -0.22 v -0.83 q -0.56 0.39 -1.43 0.39 q -0.24 0 -0.48 -0.05 q -0.24 -0.05 -0.43 -0.16 q -0.19 -0.11 -0.31 -0.29 q -0.12 -0.18 -0.12 -0.44 q 0 -0.24 0.09 -0.42 q 0.09 -0.18 0.27 -0.32 q 0.18 -0.15 0.43 -0.28 q 0.25 -0.14 0.58 -0.3 q 0.34 -0.17 0.64 -0.35 q 0.3 -0.18 0.53 -0.41 q 0.23 -0.22 0.36 -0.5 q 0.13 -0.27 0.13 -0.62 q 0 -0.47 -0.18 -0.79 q -0.18 -0.32 -0.49 -0.53 q -0.31 -0.2 -0.71 -0.29 q -0.4 -0.09 -0.85 -0.09 q -0.15 0 -0.37 0.02 q -0.22 0.02 -0.45 0.07 q -0.23 0.05 -0.43 0.11 q -0.2 0.07 -0.33 0.15 Z "/>
        </symbol>
        <symbol id="gAB1FDF3D4635E551C83B874F8D177E16" overflow="visible">
            <path d="M 0 0m 4.35 2.07 h -3.18 q 0.02 -0.75 0.4 -1.16 q 0.39 -0.41 1.06 -0.41 q 0.76 0 1.4 0.5 v -0.68 q -0.59 -0.43 -1.57 -0.43 q -0.95 0 -1.5 0.61 q -0.54 0.61 -0.54 1.72 q 0 1.05 0.6 1.71 q 0.6 0.66 1.48 0.66 q 0.88 0 1.37 -0.57 q 0.48 -0.57 0.48 -1.59 v -0.38 Z m -0.74 0.61 q 0 0.62 -0.3 0.97 q -0.3 0.35 -0.82 0.35 q -0.51 0 -0.87 -0.36 q -0.36 -0.36 -0.44 -0.95 h 2.43 Z "/>
        </symbol>
        <symbol id="g42809E90898E99596E10AF177884AE0D" overflow="visible">
            <path d="M 0 0m 1.45 0 h -0.72 v 6.66 h 0.72 v -6.66 Z "/>
        </symbol>
        <symbol id="gCC327FEA7CB8178C90C982986EB70D9B" overflow="visible">
            <path d="M 0 0m 3.8 0.21 q -0.52 -0.31 -1.23 -0.31 q -0.96 0 -1.55 0.63 q -0.59 0.63 -0.59 1.62 q 0 1.11 0.64 1.79 q 0.64 0.67 1.7 0.67 q 0.59 0 1.05 -0.22 v -0.74 q -0.5 0.35 -1.07 0.35 q -0.69 0 -1.13 -0.49 q -0.44 -0.49 -0.44 -1.3 q 0 -0.79 0.42 -1.25 q 0.42 -0.46 1.11 -0.46 q 0.59 0 1.11 0.39 v -0.69 Z "/>
        </symbol>
        <symbol id="gCDAB35AE8D13A8F27F52E27F9C0FDE68" overflow="visible">
            <path d="M 0 0m 2.82 0.04 q -0.25 -0.14 -0.67 -0.14 q -1.18 0 -1.18 1.32 v 2.66 h -0.77 v 0.62 h 0.77 v 1.1 l 0.72 0.23 v -1.33 h 1.13 v -0.62 h -1.13 v -2.54 q 0 -0.45 0.15 -0.65 q 0.15 -0.19 0.51 -0.19 q 0.27 0 0.47 0.15 v -0.62 Z "/>
        </symbol>
        <symbol id="gB2359E1D0204ADF29C4EF569A8426DE4" overflow="visible">
            <path d="M 0 0m 4.57 0 h -0.72 v 0.76 h -0.02 q -0.5 -0.87 -1.55 -0.87 q -0.85 0 -1.36 0.6 q -0.51 0.6 -0.51 1.65 q 0 1.12 0.56 1.79 q 0.56 0.67 1.5 0.67 q 0.93 0 1.35 -0.73 h 0.02 v 2.79 h 0.72 v -6.66 Z m -0.72 2.03 v 0.66 q 0 0.54 -0.36 0.92 q -0.36 0.38 -0.91 0.38 q -0.66 0 -1.04 -0.48 q -0.38 -0.48 -0.38 -1.34 q 0 -0.78 0.36 -1.23 q 0.36 -0.45 0.97 -0.45 q 0.6 0 0.98 0.44 q 0.38 0.44 0.38 1.1 Z "/>
        </symbol>
        <symbol id="g61898CA52DC4E3397DA8D7415868A6E4" overflow="visible">
            <path d="M 0 0m 2.95 6.03 q -0.21 0.12 -0.48 0.12 q -0.76 0 -0.76 -0.95 v -0.69 h 1.05 v -0.62 h -1.05 v -3.88 h -0.72 v 3.88 h -0.77 v 0.62 h 0.77 v 0.73 q 0 0.71 0.41 1.12 q 0.41 0.41 1.02 0.41 q 0.33 0 0.52 -0.08 v -0.65 Z "/>
        </symbol>
        <symbol id="gFD6D67ADECF1EFA74F9ABBC2B13541C5" overflow="visible">
            <path d="M 0 0m 2.61 -0.11 q -1 0 -1.59 0.63 q -0.6 0.63 -0.6 1.67 q 0 1.13 0.62 1.77 q 0.62 0.64 1.67 0.64 q 1.01 0 1.57 -0.62 q 0.56 -0.62 0.56 -1.72 q 0 -1.08 -0.61 -1.72 q -0.61 -0.65 -1.63 -0.65 Z m 0.05 4.1 q -0.69 0 -1.1 -0.47 q -0.4 -0.47 -0.4 -1.3 q 0 -0.8 0.41 -1.26 q 0.41 -0.46 1.09 -0.46 q 0.7 0 1.07 0.45 q 0.38 0.45 0.38 1.29 q 0 0.84 -0.38 1.3 q -0.38 0.46 -1.07 0.46 Z "/>
        </symbol>
        <symbol id="g5F9F3C7628C6B2A484A79C34ACA25663" overflow="visible">
            <path d="M 0 0m 3.08 3.77 q -0.19 0.15 -0.54 0.15 q -0.46 0 -0.77 -0.44 q -0.31 -0.44 -0.31 -1.19 v -2.29 h -0.72 v 4.5 h 0.72 v -0.93 h 0.02 q 0.15 0.47 0.47 0.74 q 0.32 0.27 0.71 0.27 q 0.28 0 0.43 -0.06 v -0.75 Z "/>
        </symbol>
        <symbol id="g5A94AABC043644E03CF2F4B42594D892" overflow="visible">
            <path d="M 0 0m 2.95 6.41 l -0.62 -1.96 h -0.52 l 0.47 1.96 h 0.66 Z m -1.34 0 l -0.62 -1.96 h -0.52 l 0.49 1.96 h 0.65 Z "/>
        </symbol>
        <symbol id="g3244CBF5CA59663399B06746832CBA3E" overflow="visible">
            <path d="M 0 0m 4.46 0 h -0.72 v 2.57 q 0 1.43 -1.05 1.43 q -0.54 0 -0.89 -0.41 q -0.35 -0.41 -0.35 -1.03 v -2.57 h -0.72 v 4.5 h 0.72 v -0.75 h 0.02 q 0.51 0.85 1.48 0.85 q 0.74 0 1.13 -0.48 q 0.39 -0.48 0.39 -1.38 v -2.75 Z "/>
        </symbol>
        <symbol id="g37BDA802563B1F479E10DF610A1997C9" overflow="visible">
            <path d="M 0 0m 4.46 0 h -0.72 v 2.59 q 0 1.41 -1.05 1.41 q -0.53 0 -0.89 -0.41 q -0.36 -0.41 -0.36 -1.04 v -2.55 h -0.72 v 6.66 h 0.72 v -2.91 h 0.02 q 0.52 0.85 1.48 0.85 q 1.52 0 1.52 -1.83 v -2.77 Z "/>
        </symbol>
        <symbol id="gA9C1F96885D1DFF82675CECD772E8398" overflow="visible">
            <path d="M 0 0m 7.12 0 h -0.72 v 2.58 q 0 0.75 -0.23 1.08 q -0.23 0.33 -0.78 0.33 q -0.46 0 -0.78 -0.42 q -0.32 -0.42 -0.32 -1.01 v -2.57 h -0.72 v 2.67 q 0 1.33 -1.02 1.33 q -0.47 0 -0.78 -0.4 q -0.31 -0.4 -0.31 -1.03 v -2.57 h -0.72 v 4.5 h 0.72 v -0.71 h 0.02 q 0.48 0.82 1.4 0.82 q 0.46 0 0.8 -0.26 q 0.34 -0.26 0.47 -0.67 q 0.5 0.93 1.49 0.93 q 1.49 0 1.49 -1.83 v -2.77 Z "/>
        </symbol>
        <symbol id="g666E9D7F3E501F9A51E6BB0376FEE8FC" overflow="visible">
            <path d="M 0 0m 0.83 0 v 6.3 h 1.74 q 3.33 0 3.33 -3.07 q 0 -1.46 -0.93 -2.34 q -0.93 -0.89 -2.48 -0.89 h -1.67 Z m 0.74 5.63 v -4.97 h 0.94 q 1.24 0 1.93 0.66 q 0.69 0.66 0.69 1.88 q 0 2.42 -2.58 2.42 h -0.98 Z "/>
        </symbol>
        <symbol id="g155C22185A989FBE5032CC2459A7B2" overflow="visible">
            <path d="M 0 0m 1.1 5.64 q -0.19 0 -0.33 0.13 q -0.14 0.13 -0.14 0.33 q 0 0.2 0.14 0.34 q 0.14 0.13 0.33 0.13 q 0.2 0 0.34 -0.13 q 0.14 -0.13 0.14 -0.34 q 0 -0.19 -0.14 -0.33 q -0.14 -0.14 -0.34 -0.14 Z m 0.35 -5.64 h -0.72 v 4.5 h 0.72 v -4.5 Z "/>
        </symbol>
        <symbol id="g64D26177F20183C399CBFD5349411F90" overflow="visible">
            <path d="M 0 0m 4.27 4.5 l -1.79 -4.5 h -0.71 l -1.71 4.5 h 0.79 l 1.14 -3.27 q 0.13 -0.36 0.16 -0.63 h 0.02 q 0.04 0.34 0.14 0.61 l 1.2 3.29 h 0.76 Z "/>
        </symbol>
        <symbol id="gB2929BBB07883ADED5EC1DDC2F96FA6" overflow="visible">
            <path d="M 0 0m 4.57 0.36 q 0 -2.48 -2.37 -2.48 q -0.83 0 -1.46 0.32 v 0.72 q 0.76 -0.42 1.45 -0.42 q 1.66 0 1.66 1.77 v 0.49 h -0.02 q -0.51 -0.86 -1.55 -0.86 q -0.84 0 -1.35 0.6 q -0.51 0.6 -0.51 1.61 q 0 1.15 0.55 1.82 q 0.55 0.68 1.51 0.68 q 0.91 0 1.35 -0.73 h 0.02 v 0.62 h 0.72 v -4.14 Z m -0.72 1.67 v 0.66 q 0 0.54 -0.36 0.92 q -0.36 0.38 -0.9 0.38 q -0.67 0 -1.05 -0.49 q -0.38 -0.49 -0.38 -1.36 q 0 -0.75 0.36 -1.2 q 0.36 -0.45 0.96 -0.45 q 0.61 0 0.99 0.43 q 0.38 0.43 0.38 1.1 Z "/>
        </symbol>
        <symbol id="g4B80878DB99B10F6F85C8A6550857B4F" overflow="visible">
            <path d="M 0 0m 0.46 0.16 v 0.77 q 0.59 -0.44 1.3 -0.44 q 0.95 0 0.95 0.63 q 0 0.18 -0.08 0.31 q -0.08 0.13 -0.22 0.22 q -0.14 0.1 -0.33 0.17 q -0.19 0.08 -0.4 0.16 q -0.3 0.12 -0.53 0.24 q -0.23 0.12 -0.38 0.27 q -0.15 0.15 -0.23 0.34 q -0.08 0.19 -0.08 0.45 q 0 0.32 0.15 0.56 q 0.15 0.24 0.39 0.41 q 0.24 0.16 0.55 0.25 q 0.31 0.08 0.64 0.08 q 0.58 0 1.05 -0.2 v -0.73 q -0.5 0.33 -1.14 0.33 q -0.2 0 -0.36 -0.05 q -0.16 -0.05 -0.28 -0.13 q -0.12 -0.08 -0.18 -0.2 q -0.06 -0.12 -0.06 -0.26 q 0 -0.18 0.06 -0.29 q 0.06 -0.12 0.19 -0.21 q 0.12 -0.09 0.3 -0.17 q 0.18 -0.07 0.4 -0.16 q 0.3 -0.11 0.54 -0.24 q 0.24 -0.12 0.4 -0.27 q 0.17 -0.15 0.26 -0.35 q 0.09 -0.2 0.09 -0.47 q 0 -0.33 -0.15 -0.58 q -0.15 -0.25 -0.39 -0.41 q -0.25 -0.16 -0.57 -0.24 q -0.32 -0.08 -0.67 -0.08 q -0.69 0 -1.2 0.27 Z "/>
        </symbol>
        <symbol id="g65C2E9EDF07C7DB2A5DDF68B8AC93102" overflow="visible">
            <path d="M 0 0m 6.4 4.5 l -1.35 -4.5 h -0.75 l -0.93 3.22 q -0.05 0.18 -0.07 0.42 h -0.02 q -0.01 -0.16 -0.09 -0.41 l -1.01 -3.23 h -0.72 l -1.36 4.5 h 0.76 l 0.93 -3.38 q 0.04 -0.15 0.06 -0.4 h 0.04 q 0.01 0.19 0.08 0.41 l 1.04 3.38 h 0.66 l 0.93 -3.39 q 0.04 -0.16 0.07 -0.4 h 0.04 q 0.01 0.17 0.07 0.4 l 0.91 3.39 h 0.71 Z "/>
        </symbol>
        <symbol id="g3DB858D05634B720B3F25A409D17EA34" overflow="visible">
            <path d="M 0 0m 4.17 0 h -3.34 v 6.3 h 3.2 v -0.67 h -2.46 v -2.1 h 2.28 v -0.66 h -2.28 v -2.21 h 2.6 v -0.67 Z "/>
        </symbol>
    </defs>
</svg>
